<svg width="175" height="153" viewBox="0 0 175 153" fill="none" xmlns="http://www.w3.org/2000/svg">
<ellipse cx="84.5" cy="99" rx="54.5" ry="54" fill="#22C55E" fill-opacity="0.05"/>
<ellipse cx="113.5" cy="73" rx="57.5" ry="57" fill="#22C55E" fill-opacity="0.05"/>
<circle cx="77" cy="54" r="54" fill="#22C55E" fill-opacity="0.05"/>
<path opacity="0.2" d="M0 124.744C0 126.054 39.0704 127.116 87.2662 127.116C135.462 127.116 174.532 126.054 174.532 124.744C174.532 123.434 135.462 122.372 87.2662 122.372C39.0704 122.372 0 123.434 0 124.744Z" fill="#462769"/>
<path d="M85.1317 44.6775C85.11 44.6231 85.0929 44.5361 85.1075 44.4524C85.1142 44.411 85.1267 44.3725 85.1413 44.3394C85.148 44.3219 85.1476 44.3194 85.1509 44.3085L85.1806 44.2005L85.2407 43.9855C85.2812 43.8429 85.3209 43.6985 85.3664 43.558C85.455 43.2752 85.5435 42.9915 85.64 42.7121C85.8325 42.1523 86.0334 41.5947 86.2518 41.045C86.6811 39.9414 87.1614 38.8587 87.6739 37.7886C88.7004 35.6483 89.8948 33.5851 91.2133 31.5799C93.8761 27.5969 97.132 23.8803 101.189 20.8607C102.198 20.098 103.274 19.412 104.385 18.761C104.955 18.454 105.507 18.1214 106.096 17.839C106.69 17.5646 107.273 17.2751 107.888 17.0366C108.508 16.8078 109.112 16.5459 109.75 16.3514C110.391 16.1656 111.017 15.9393 111.674 15.7954C112.334 15.6644 112.985 15.495 113.656 15.4063C114.328 15.326 114.995 15.2084 115.673 15.1704C116.353 15.1436 117.026 15.0833 117.713 15.0955C118.405 15.1223 119.084 15.1298 119.804 15.2277C120.506 15.2854 121.244 15.4373 121.973 15.5862C122.718 15.7853 123.46 15.9832 124.216 16.3129C125.71 16.9291 127.237 17.8955 128.423 19.2337C129.621 20.5578 130.437 22.155 130.898 23.6941C131.358 25.2437 131.543 26.7397 131.528 28.1641C131.518 28.8804 131.527 29.5949 131.415 30.3061L131.282 31.3712C131.238 31.7259 131.136 32.0715 131.063 32.4212L130.816 33.4642C130.713 33.8055 130.591 34.141 130.477 34.4782C130.357 34.8137 130.249 35.1538 130.115 35.4822L129.666 36.4482C129.381 37.0996 129.002 37.6978 128.634 38.299C128.287 38.9152 127.828 39.4515 127.413 40.0163C123.951 44.4449 118.498 47.0382 113.097 47.1294L112.087 47.1365C111.742 47.1407 111.453 47.1085 111.133 47.0955L109.26 46.9859C108.014 46.9085 106.77 46.8328 105.537 46.7282L101.866 46.4153L98.2822 46.0534C93.5625 45.5505 89.1786 45.0188 85.1317 44.6775ZM85.5823 44.3997C90.7142 43.9951 95.5091 43.4002 99.9694 42.8342L103.269 42.4251L106.483 42.0649C107.545 41.9448 108.595 41.8532 109.643 41.7599C110.673 41.6624 111.79 41.6022 112.688 41.46C114.568 41.201 116.344 40.52 117.915 39.5599C119.487 38.5939 120.816 37.2841 121.825 35.8044C122.054 35.4182 122.338 35.0689 122.514 34.6573C122.714 34.2603 122.934 33.875 123.069 33.4533L123.317 32.8429C123.388 32.6358 123.436 32.4212 123.499 32.212C123.556 32.0012 123.625 31.7941 123.679 31.5833L123.787 30.939C123.818 30.724 123.881 30.5148 123.889 30.2969L123.929 29.6468C123.986 29.2167 123.939 28.7799 123.925 28.3474C123.911 27.476 123.758 26.6702 123.539 26.026C123.314 25.3759 123.018 24.9015 122.659 24.5358C122.295 24.1756 121.851 23.8627 121.225 23.6151C120.929 23.4791 120.554 23.3963 120.193 23.2938C119.794 23.2285 119.41 23.1373 118.965 23.1122C118.11 23.0101 117.154 23.0444 116.223 23.0762C115.755 23.0905 115.289 23.1762 114.82 23.2168C114.351 23.2657 113.888 23.39 113.421 23.467C112.952 23.5473 112.489 23.6937 112.021 23.7991C111.552 23.9121 111.094 24.0932 110.628 24.2334C109.707 24.5668 108.784 24.9375 107.869 25.3621C107.409 25.5679 106.965 25.8227 106.509 26.0494C106.058 26.2874 105.616 26.5585 105.161 26.8037C101.592 28.9201 98.199 31.6799 94.9737 34.7363C93.3486 36.2583 91.7834 37.8752 90.2152 39.5268C89.4396 40.3593 88.6674 41.2031 87.8939 42.0569L86.7421 43.3509L86.1662 44.0043L85.8776 44.3323L85.7335 44.4967L85.6621 44.5791C85.6571 44.5842 85.6479 44.5971 85.6462 44.5955C85.6525 44.5783 85.6567 44.5557 85.6554 44.5302C85.6542 44.4771 85.6208 44.4219 85.5823 44.3997Z" fill="#F9CD80"/>
<path d="M82.7341 44.3997C82.6957 44.4223 82.6619 44.4775 82.6606 44.5293C82.659 44.5549 82.6636 44.5775 82.6698 44.5946C82.6682 44.5963 82.659 44.5833 82.654 44.5783L82.5826 44.4959L82.4385 44.3315L82.1499 44.0035L81.574 43.35L80.4221 42.0561C79.6487 41.2018 78.8761 40.3584 78.1009 39.5259C76.5323 37.8743 74.9674 36.2574 73.3424 34.7355C70.117 31.6791 66.7238 28.9192 63.1551 26.8028C62.7003 26.5577 62.2584 26.2866 61.8074 26.0486C61.3517 25.8222 60.907 25.567 60.448 25.3612C59.5325 24.9366 58.61 24.5655 57.6887 24.2325C57.2222 24.0924 56.764 23.9112 56.2959 23.7983C55.8273 23.6929 55.3645 23.546 54.896 23.4661C54.4282 23.3887 53.9646 23.2645 53.4965 23.2159C53.0279 23.1758 52.5618 23.0896 52.0936 23.0758C51.1623 23.044 50.2064 23.0097 49.3515 23.1118C48.9063 23.1373 48.522 23.2285 48.1232 23.2933C47.7624 23.3958 47.3877 23.4787 47.0916 23.6146C46.4648 23.8623 46.0217 24.1752 45.6579 24.5354C45.2979 24.901 45.0022 25.3759 44.7771 26.0255C44.5583 26.6698 44.4054 27.4751 44.3912 28.3469C44.3779 28.7795 44.3307 29.2167 44.3875 29.6463L44.4271 30.2964C44.4355 30.5144 44.4994 30.7236 44.5295 30.9386L44.6376 31.5828C44.6911 31.7937 44.76 32.0008 44.8176 32.2116C44.8811 32.4204 44.9283 32.6354 44.9997 32.8425L45.2474 33.4533C45.3827 33.8749 45.6024 34.2598 45.802 34.6572C45.9782 35.0689 46.2622 35.4182 46.4911 35.8044C47.5001 37.284 48.8303 38.5939 50.4018 39.5598C51.9729 40.5204 53.7483 41.201 55.6289 41.4599C56.5264 41.6026 57.6436 41.6628 58.673 41.7599C59.7213 41.8532 60.7716 41.9448 61.8337 42.0649L65.0474 42.4251L68.3471 42.8342C72.8074 43.4002 77.6023 43.9951 82.7341 44.3997ZM83.1848 44.6774C79.1379 45.0188 74.7536 45.5505 70.0348 46.0534L66.4506 46.4152L62.78 46.7282C61.5476 46.8323 60.3031 46.9081 59.0564 46.9859L57.1838 47.0955C56.8643 47.1084 56.5744 47.1407 56.2303 47.1365L55.22 47.1294C49.8192 47.0386 44.3662 44.4448 40.9048 40.0162C40.4901 39.4519 40.0299 38.9152 39.6837 38.2989C39.3145 37.6978 38.9365 37.0995 38.6513 36.4482L38.2027 35.4822C38.0683 35.1538 37.9605 34.8137 37.8406 34.4782C37.7262 34.141 37.6038 33.8051 37.5011 33.4641L37.2543 32.4212C37.1812 32.0715 37.0785 31.7259 37.0355 31.3712L36.9022 30.306C36.7907 29.5949 36.7991 28.8803 36.7895 28.1641C36.774 26.7397 36.959 25.2437 37.4193 23.6941C37.8803 22.155 38.6964 20.5578 39.8946 19.2337C41.0802 17.8959 42.6071 16.9295 44.1014 16.3128C44.8573 15.9832 45.5994 15.7853 46.3441 15.5862C47.0729 15.4377 47.8112 15.2854 48.5129 15.2277C49.2333 15.1298 49.9123 15.1222 50.6039 15.0955C51.2914 15.0829 51.9646 15.1432 52.6445 15.1703C53.3223 15.2084 53.9897 15.3264 54.6617 15.4063C55.3324 15.495 55.9831 15.6644 56.6429 15.7954C57.2999 15.9393 57.9267 16.1656 58.5678 16.3513C59.2055 16.5459 59.8098 16.8077 60.4296 17.0366C61.0448 17.275 61.6282 17.5645 62.2217 17.839C62.8105 18.1213 63.3631 18.4539 63.9323 18.761C65.0432 19.4119 66.1194 20.098 67.1284 20.8607C71.1853 23.8803 74.4416 27.5968 77.1045 31.5799C78.4229 33.5854 79.6174 35.6483 80.6439 37.7886C81.1563 38.8587 81.6366 39.9414 82.0659 41.045C82.2844 41.5947 82.4852 42.1523 82.6778 42.7121C82.7747 42.9915 82.8628 43.2751 82.9513 43.5579C82.9968 43.6981 83.0365 43.8424 83.0774 43.9855L83.1376 44.2005L83.1672 44.3085C83.1706 44.3193 83.1702 44.3223 83.1768 44.3394C83.1915 44.3725 83.204 44.411 83.2107 44.4524C83.224 44.536 83.2069 44.6231 83.1848 44.6774Z" fill="#F9CD80"/>
<path d="M84.8642 46.4496C84.8471 46.4069 84.8333 46.3379 84.8454 46.2718C84.8508 46.2391 84.8609 46.2086 84.8721 46.1826L84.8797 46.158L84.903 46.073L84.9502 45.9032C84.9824 45.7902 85.0133 45.6764 85.0505 45.5664L85.2697 44.9008C85.4192 44.4578 85.575 44.0156 85.7483 43.5826C86.0875 42.7116 86.4667 41.857 86.8709 41.0123C87.6811 39.3231 88.6237 37.6944 89.6645 36.1114C91.7664 32.9676 94.3365 30.0341 97.5385 27.6504C98.335 27.0484 99.1844 26.5071 100.061 25.9929C100.511 25.7507 100.947 25.488 101.412 25.265C101.88 25.0487 102.341 24.8199 102.826 24.6316C103.315 24.4509 103.793 24.2442 104.296 24.0907C104.802 23.9443 105.297 23.7652 105.815 23.6519C106.336 23.5485 106.85 23.4151 107.379 23.3448C107.91 23.2816 108.436 23.1888 108.971 23.1586C109.508 23.1373 110.039 23.0896 110.582 23.0997C111.128 23.121 111.664 23.1268 112.233 23.2038C112.786 23.2494 113.369 23.3695 113.944 23.4866C114.532 23.6439 115.118 23.8 115.715 24.0602C116.894 24.5467 118.099 25.3094 119.035 26.3657C119.981 27.4111 120.625 28.6716 120.989 29.8865C121.352 31.1097 121.499 32.2907 121.486 33.4148C121.479 33.9804 121.485 34.5443 121.397 35.1057L121.292 35.9466C121.258 36.2265 121.177 36.4996 121.119 36.7753L120.924 37.5982C120.843 37.8676 120.746 38.1324 120.656 38.3989C120.561 38.6637 120.476 38.9319 120.37 39.1913L120.016 39.9539C119.791 40.4681 119.492 40.9404 119.201 41.4148C118.927 41.9013 118.564 42.3247 118.237 42.7702C115.505 46.2659 111.201 48.3129 106.937 48.3848C106.403 48.394 105.866 48.3961 105.387 48.358L103.909 48.2714C102.925 48.2104 101.943 48.1505 100.97 48.0681L98.0731 47.8213L95.2441 47.5356C91.5192 47.1386 88.0587 46.719 84.8642 46.4496ZM85.22 46.2299C89.2711 45.9107 93.0557 45.4413 96.5759 44.9941L99.1807 44.6712L101.717 44.3867C102.556 44.2917 103.385 44.2198 104.212 44.1461C105.025 44.0692 105.907 44.0219 106.615 43.9094C108.1 43.7048 109.501 43.1676 110.741 42.4096C111.982 41.647 113.031 40.6132 113.828 39.4452C114.618 38.2701 115.145 36.9544 115.377 35.6048C115.401 35.435 115.451 35.2701 115.458 35.0978L115.489 34.5849C115.534 34.2456 115.497 33.9005 115.486 33.5591C115.475 32.8709 115.355 32.2355 115.182 31.7268C115.004 31.2139 114.771 30.839 114.487 30.5504C114.199 30.2659 113.85 30.0191 113.355 29.8237C112.393 29.4091 110.879 29.3175 109.406 29.3982C109.037 29.4091 108.669 29.4773 108.299 29.5091C107.929 29.5476 107.563 29.6459 107.194 29.7066C106.825 29.7697 106.459 29.8856 106.089 29.9689C105.72 30.058 105.358 30.201 104.99 30.3115C104.263 30.5746 103.535 30.8675 102.812 31.2026C102.449 31.3649 102.099 31.5661 101.739 31.7452C101.383 31.933 101.034 32.1472 100.675 32.3405C97.858 34.0109 95.1798 36.1892 92.6339 38.6018C91.3509 39.8033 90.1155 41.0793 88.8777 42.3832C88.2654 43.0405 87.6557 43.706 87.0455 44.3804L86.1321 45.3995L85.6811 45.9174L85.4543 46.1768L85.3407 46.3065L85.2844 46.3717C85.2802 46.3755 85.2718 46.3847 85.2718 46.3847C85.2768 46.3713 85.2802 46.3533 85.2789 46.3333C85.2768 46.2914 85.2501 46.2479 85.22 46.2299Z" fill="#FFE1B0"/>
<path d="M83.0963 46.2299C83.0658 46.2475 83.0395 46.291 83.0383 46.3324C83.037 46.3525 83.0404 46.3705 83.0454 46.3838C83.0454 46.3838 83.037 46.3746 83.0328 46.3709L82.9765 46.3056L82.8629 46.1759L82.6361 45.9165L82.185 45.3986L81.2717 44.3795C80.6611 43.7052 80.0513 43.0396 79.4395 42.3824C78.2017 41.0788 76.9663 39.8024 75.6833 38.601C73.1374 36.1884 70.4591 34.01 67.6422 32.3396C67.2835 32.1463 66.9347 31.9321 66.5785 31.7443C66.2189 31.5652 65.8677 31.364 65.5052 31.2017C64.7827 30.8666 64.0543 30.5738 63.3272 30.3106C62.9589 30.2002 62.5976 30.0571 62.228 29.968C61.858 29.8847 61.493 29.7689 61.123 29.7057C60.7538 29.6446 60.3879 29.5467 60.0183 29.5082C59.6483 29.4764 59.2804 29.4087 58.9107 29.3974C57.4382 29.3166 55.9238 29.4083 54.9624 29.8228C54.4675 30.0182 54.118 30.265 53.8307 30.5495C53.5467 30.8382 53.3132 31.213 53.1353 31.7259C52.9624 32.2342 52.8421 32.8701 52.8308 33.5582C52.82 33.8996 52.7832 34.2447 52.8279 34.584L52.8592 35.0969C52.8659 35.2688 52.916 35.4341 52.9403 35.6039C53.172 36.9535 53.6987 38.2692 54.4888 39.4443C55.2853 40.6124 56.3352 41.6461 57.576 42.4087C58.8159 43.1668 60.2175 43.7039 61.7018 43.9085C62.4105 44.021 63.2921 44.0687 64.1049 44.1453C64.9326 44.2189 65.7612 44.2913 66.5998 44.3858L69.1365 44.6703L71.7413 44.9933C75.2607 45.4413 79.0453 45.9107 83.0963 46.2299ZM83.4521 46.4495C80.2577 46.7189 76.7971 47.1385 73.0723 47.5355L70.2432 47.8213L67.3461 48.0681C66.3734 48.1505 65.3907 48.2103 64.4072 48.2714L62.9292 48.358C62.4506 48.3961 61.9131 48.394 61.379 48.3848C57.1158 48.3132 52.8116 46.2659 50.0795 42.7702C49.752 42.3246 49.3891 41.9013 49.1156 41.4147C48.8245 40.9403 48.5259 40.468 48.3004 39.9539L47.9462 39.1912C47.8401 38.9319 47.7549 38.6637 47.6601 38.3989C47.5699 38.1324 47.4734 37.8676 47.392 37.5982L47.1974 36.7753C47.1398 36.4992 47.0587 36.2264 47.0245 35.9466L46.9192 35.1057C46.8311 34.5443 46.8378 33.9803 46.8303 33.4147C46.8182 32.2902 46.9643 31.1092 47.3273 29.8864C47.691 28.6716 48.3354 27.4107 49.281 26.3656C50.2169 25.3093 51.4222 24.5467 52.6016 24.0601C53.1984 23.7999 53.7839 23.6439 54.3719 23.4866C54.947 23.3695 55.53 23.2494 56.0838 23.2038C56.6526 23.1268 57.1884 23.1205 57.7343 23.0996C58.2768 23.09 58.808 23.1373 59.3451 23.1586C59.8801 23.1887 60.4071 23.2816 60.9371 23.3448C61.4667 23.4146 61.9799 23.5485 62.5011 23.6518C63.0198 23.7652 63.5147 23.9443 64.0205 24.0907C64.5237 24.2442 65.0011 24.4509 65.4901 24.6316C65.9759 24.8199 66.4361 25.0483 66.9047 25.265C67.3695 25.4879 67.8055 25.7502 68.2549 25.9929C69.1319 26.5066 69.9814 27.0484 70.7774 27.6504C73.9798 30.0337 76.5499 32.9675 78.6519 36.1114C79.6926 37.6944 80.6356 39.3226 81.4454 41.0123C81.8497 41.8569 82.2289 42.7116 82.568 43.5826C82.7413 44.016 82.8971 44.4578 83.0466 44.9008L83.2663 45.5664C83.3035 45.6764 83.3348 45.7906 83.3665 45.9032L83.4137 46.073L83.4371 46.1579L83.4446 46.1826C83.4559 46.2086 83.4659 46.2391 83.4713 46.2717C83.483 46.3378 83.4693 46.4064 83.4521 46.4495Z" fill="#FFE1B0"/>
<path d="M69.7319 49.4788H95.7868V40.6889C95.7868 38.3571 93.8995 36.4666 91.5716 36.4666H73.9471C71.6192 36.4666 69.7319 38.3571 69.7319 40.6889V49.4788Z" fill="#FFE1B0"/>
<path d="M69.7319 57.3349H95.7868V48.5446C95.7868 46.2128 93.8995 44.3223 91.5716 44.3223H73.9471C71.6192 44.3223 69.7319 46.2128 69.7319 48.5446V57.3349Z" fill="#F9CD80"/>
<path d="M126.825 55.372H43.0215V124.538H126.825V55.372Z" fill="#22C55E"/>
<path d="M36.5918 65.3181H133.256V56.9755C133.256 51.332 128.688 46.757 123.054 46.757H46.7933C41.1595 46.757 36.5922 51.332 36.5922 56.9755V65.3181H36.5918Z" fill="#23BC5B"/>
<path d="M43.0928 65.2809C43.0928 65.2809 54.9799 72.0615 84.2017 72.0615C113.423 72.0615 126.632 64.9505 126.632 64.9505L43.0928 65.2809Z" fill="#20AD54"/>
<path d="M89.8152 45.4355H75.9473V124.816H89.8152V45.4355Z" fill="#FFE1B0"/>
<path d="M73.313 45.5744V87.6109" stroke="white" stroke-miterlimit="10" stroke-linecap="round"/>
<path d="M79.8403 116.211H67.0169C66.4681 116.211 66.0229 115.765 66.0229 115.215V92.9004C66.0229 92.5917 66.1662 92.3001 66.4105 92.1119L72.6445 87.303C72.9945 87.0327 73.4806 87.0269 73.8373 87.2879L80.4267 92.1127C80.6827 92.3001 80.8339 92.5988 80.8339 92.9163V115.215C80.8339 115.765 80.3891 116.211 79.8403 116.211Z" fill="white"/>
<path d="M72.2847 90.0962C72.2847 90.6083 72.699 91.0237 73.2106 91.0237C73.7217 91.0237 74.1365 90.6087 74.1365 90.0962C74.1365 89.5842 73.7222 89.1688 73.2106 89.1688C72.699 89.1688 72.2847 89.5842 72.2847 90.0962Z" fill="#22C55E"/>
<path d="M77.1295 110.868H69.9199C68.9347 110.868 68.1357 110.068 68.1357 109.081C68.1357 108.094 68.9347 107.294 69.9199 107.294H77.1295C78.1147 107.294 78.9136 108.094 78.9136 109.081C78.9136 110.068 78.1151 110.868 77.1295 110.868Z" fill="#22C55E"/>
<path d="M77.068 105.333H69.8584C68.8732 105.333 68.0742 104.532 68.0742 103.546C68.0742 102.559 68.8732 101.758 69.8584 101.758H77.068C78.0532 101.758 78.8521 102.559 78.8521 103.546C78.8521 104.532 78.0536 105.333 77.068 105.333Z" fill="#22C55E"/>
<path d="M77.068 99.8942H69.8584C68.8732 99.8942 68.0742 99.0939 68.0742 98.1071C68.0742 97.1202 68.8732 96.3199 69.8584 96.3199H77.068C78.0532 96.3199 78.8521 97.1202 78.8521 98.1071C78.8521 99.0939 78.0536 99.8942 77.068 99.8942Z" fill="#22C55E"/>
<path d="M70.6635 114.687C70.5412 114.674 70.4329 114.651 70.3387 114.618C70.2444 114.582 70.1654 114.546 70.1017 114.507C70.0406 114.469 69.9934 114.433 69.9603 114.4C69.9297 114.365 69.9144 114.342 69.9144 114.332C69.9144 114.293 69.9233 114.251 69.9412 114.205C69.9616 114.157 69.9858 114.114 70.0138 114.075C70.0418 114.035 70.0711 114.002 70.1017 113.976C70.1348 113.948 70.1654 113.934 70.1934 113.934C70.2164 113.934 70.2406 113.944 70.2661 113.965C70.2915 113.985 70.3208 114.009 70.354 114.037C70.3896 114.065 70.4317 114.093 70.4801 114.121C70.531 114.147 70.5922 114.165 70.6635 114.175V113.024C70.5336 112.953 70.4011 112.875 70.2661 112.791C70.1336 112.707 70.0125 112.609 69.903 112.497C69.7934 112.385 69.7029 112.254 69.6316 112.103C69.5628 111.953 69.5284 111.775 69.5284 111.568C69.5284 111.41 69.5577 111.252 69.6163 111.094C69.6775 110.936 69.759 110.786 69.8609 110.643C69.9628 110.501 70.0826 110.371 70.2202 110.253C70.3578 110.134 70.5056 110.036 70.6635 109.959V109.34C70.6635 109.327 70.6572 109.312 70.6444 109.294C70.6317 109.276 70.6253 109.257 70.6253 109.237C70.6253 109.181 70.7005 109.153 70.8508 109.153C70.9247 109.153 70.9833 109.167 71.0266 109.195C71.0725 109.223 71.0954 109.274 71.0954 109.348V109.802C71.1438 109.792 71.191 109.785 71.2368 109.779C71.2853 109.772 71.3349 109.768 71.3859 109.768C71.5159 109.768 71.6331 109.788 71.7375 109.829C71.842 109.87 71.9299 109.929 72.0012 110.005C72.0751 110.081 72.1312 110.173 72.1694 110.28C72.2102 110.387 72.2306 110.507 72.2306 110.639C72.2306 110.759 72.214 110.876 72.1809 110.991C72.1478 111.106 72.1032 111.208 72.0471 111.297C71.9936 111.386 71.9312 111.459 71.8598 111.515C71.7885 111.568 71.7159 111.595 71.642 111.595C71.5757 111.595 71.5133 111.572 71.4547 111.526C71.3961 111.478 71.3566 111.424 71.3362 111.366C71.3158 111.31 71.3171 111.269 71.34 111.243C71.363 111.215 71.3859 111.201 71.4088 111.201C71.4547 111.201 71.4929 111.186 71.5235 111.155C71.5566 111.125 71.5821 111.085 71.5999 111.037C71.6178 110.989 71.6305 110.934 71.6382 110.873C71.6458 110.809 71.6496 110.744 71.6496 110.678C71.6496 110.571 71.6254 110.488 71.577 110.429C71.5286 110.371 71.4432 110.341 71.3209 110.341C71.2853 110.341 71.2483 110.345 71.2101 110.353C71.1719 110.358 71.1337 110.367 71.0954 110.38V112.627C71.1948 112.688 71.2916 112.753 71.3859 112.822C71.4802 112.888 71.563 112.963 71.6343 113.047C71.7082 113.131 71.7668 113.226 71.8101 113.33C71.856 113.435 71.8789 113.554 71.8789 113.689C71.8789 113.804 71.8586 113.912 71.8178 114.014C71.777 114.116 71.721 114.209 71.6496 114.293C71.5783 114.375 71.4942 114.446 71.3974 114.507C71.3031 114.568 71.2024 114.614 71.0954 114.645V115.272C71.0954 115.323 71.0827 115.358 71.0572 115.379C71.0343 115.402 70.9948 115.413 70.9387 115.413C70.8648 115.413 70.7999 115.395 70.7438 115.36C70.6903 115.324 70.6635 115.267 70.6635 115.188V114.687ZM70.1246 111.568C70.1246 111.66 70.1387 111.744 70.1667 111.82C70.1947 111.897 70.2317 111.967 70.2775 112.031C70.3259 112.094 70.3833 112.154 70.4495 112.21C70.5158 112.264 70.5871 112.316 70.6635 112.367V110.609C70.5897 110.665 70.5196 110.729 70.4533 110.8C70.3871 110.869 70.3298 110.944 70.2813 111.025C70.2329 111.107 70.1947 111.194 70.1667 111.285C70.1387 111.377 70.1246 111.471 70.1246 111.568ZM71.3286 113.716C71.3286 113.635 71.3069 113.559 71.2636 113.491C71.2228 113.422 71.1668 113.358 71.0954 113.3V114.129C71.177 114.091 71.2356 114.035 71.2712 113.961C71.3095 113.887 71.3286 113.805 71.3286 113.716Z" fill="white"/>
<path d="M120.299 76.634H124.18V72.4827H120.299V76.634Z" fill="#FFC0D1"/>
<path d="M124.18 76.634L124.679 76.8858L129.639 79.467V80.4556H120.118L120.299 76.634H124.18Z" fill="#7A5183"/>
<path d="M120.243 80.7747H129.533C129.598 80.7747 129.65 80.7224 129.65 80.6576V80.2865C129.65 80.2217 129.598 80.1694 129.533 80.1694H120.243C120.178 80.1694 120.126 80.2217 120.126 80.2865V80.6576C120.126 80.7224 120.179 80.7747 120.243 80.7747Z" fill="#462769"/>
<path d="M127.406 78.181C127.406 78.181 126.513 77.766 125.684 78.5324" stroke="#462769" stroke-width="0.9055" stroke-miterlimit="10" stroke-linecap="round"/>
<path d="M126.577 77.5426C126.577 77.5426 125.684 77.1276 124.855 77.894" stroke="#462769" stroke-width="0.9055" stroke-miterlimit="10" stroke-linecap="round"/>
<path d="M125.365 77.0314C125.365 77.0314 124.473 76.6164 123.644 77.3828" stroke="#462769" stroke-width="0.9055" stroke-miterlimit="10" stroke-linecap="round"/>
<path d="M111.738 76.7499H115.619V72.5987H111.738V76.7499Z" fill="#FFC0D1"/>
<path d="M115.619 76.7498L116.118 77.0021L117.517 79.5833V80.5714H110.655L110.714 79.2603L111.738 76.7498H115.619Z" fill="#7A5183"/>
<path d="M110.78 80.891H117.41C117.475 80.891 117.527 80.8388 117.527 80.7739V80.4028C117.527 80.338 117.475 80.2857 117.41 80.2857H110.78C110.715 80.2857 110.663 80.338 110.663 80.4028V80.7739C110.663 80.8383 110.715 80.891 110.78 80.891Z" fill="#462769"/>
<path d="M115.593 78.9336C115.593 78.9336 113.744 78.3588 112.405 79.1252" stroke="#462769" stroke-width="0.9055" stroke-miterlimit="10" stroke-linecap="round"/>
<path d="M115.593 78.1672C115.593 78.1672 113.744 77.5924 112.405 78.3588" stroke="#462769" stroke-width="0.9055" stroke-miterlimit="10" stroke-linecap="round"/>
<path d="M115.14 77.3221C115.14 77.3221 113.817 76.9109 112.859 77.4589" stroke="#462769" stroke-width="0.9055" stroke-miterlimit="10" stroke-linecap="round"/>
<path d="M156.913 85.8354H94.3565C94.1176 85.8354 93.9238 86.0295 93.9238 86.2688V124.137C93.9238 124.376 94.1176 124.57 94.3565 124.57H156.913C157.152 124.57 157.346 124.376 157.346 124.137V86.2688C157.346 86.0291 157.152 85.8354 156.913 85.8354Z" fill="#462769"/>
<path d="M154.728 83.3408H96.5412C94.4201 83.3408 92.7007 85.0631 92.7007 87.1879V96.0957C92.7007 96.3442 92.902 96.5459 93.1501 96.5459H158.119C158.367 96.5459 158.569 96.3442 158.569 96.0957V87.1879C158.568 85.0636 156.849 83.3408 154.728 83.3408Z" fill="#583887"/>
<path d="M118.384 82.6351H107.985V124.57H118.384V82.6351Z" fill="#FFE1B0"/>
<path d="M114.173 80.7211C114.161 80.691 114.151 80.6425 114.159 80.596C114.163 80.573 114.17 80.5517 114.178 80.5333C114.182 80.5237 114.182 80.522 114.184 80.5161L114.2 80.4563L114.233 80.3367C114.256 80.2572 114.278 80.1768 114.303 80.099C114.353 79.9417 114.402 79.784 114.455 79.6284C114.562 79.3171 114.674 79.0067 114.796 78.7013C115.035 78.0876 115.302 77.4852 115.587 76.8899C116.158 75.6997 116.822 74.5522 117.555 73.4369C119.036 71.2218 120.847 69.1547 123.103 67.4751C123.664 67.0509 124.263 66.6693 124.881 66.307C125.197 66.1364 125.505 65.9515 125.832 65.7942C126.163 65.6415 126.487 65.4808 126.829 65.3482C127.174 65.221 127.51 65.075 127.864 64.9671C128.221 64.8638 128.569 64.7378 128.935 64.6579C129.302 64.5851 129.664 64.491 130.037 64.4416C130.411 64.3969 130.782 64.3316 131.159 64.3103C131.537 64.2952 131.911 64.2618 132.293 64.2685C132.678 64.2835 133.056 64.2877 133.456 64.3421C133.846 64.3743 134.257 64.4588 134.662 64.5416C135.077 64.6521 135.489 64.7625 135.91 64.9458C136.741 65.2888 137.59 65.8259 138.249 66.5702C138.916 67.3069 139.369 68.195 139.626 69.051C139.882 69.9128 139.985 70.7448 139.976 71.5372C139.971 71.9355 139.975 72.3329 139.914 72.7286L139.84 73.321C139.815 73.5185 139.759 73.7105 139.718 73.905L139.58 74.4848C139.523 74.6748 139.455 74.8614 139.392 75.0492C139.325 75.2358 139.265 75.4249 139.19 75.6077L138.941 76.1448C138.782 76.5071 138.572 76.8397 138.367 77.1744C138.174 77.517 137.918 77.8153 137.688 78.1295C135.762 80.5927 132.729 82.0351 129.726 82.0858L129.164 82.0899C128.972 82.0924 128.812 82.0745 128.634 82.0673L127.592 82.0063C126.899 81.9632 126.207 81.9209 125.521 81.8632L123.48 81.6892L121.486 81.4879C118.862 81.2068 116.424 80.911 114.173 80.7211ZM114.424 80.5663C117.278 80.3412 119.945 80.0103 122.426 79.6957L124.261 79.4682L126.049 79.2678C126.64 79.2008 127.223 79.1502 127.806 79.0984C128.379 79.0444 129 79.0105 129.499 78.9314C130.546 78.7871 131.533 78.4085 132.407 77.8747C133.281 77.3375 134.02 76.6088 134.582 75.7859C134.709 75.5713 134.867 75.3768 134.965 75.1479C135.076 74.927 135.198 74.7128 135.274 74.4782L135.412 74.1385C135.451 74.0234 135.477 73.9038 135.513 73.7875C135.545 73.6703 135.584 73.5553 135.613 73.4377L135.673 73.0792C135.69 72.9596 135.726 72.8433 135.731 72.7219L135.753 72.3605C135.784 72.1212 135.758 71.8786 135.751 71.6376C135.743 71.1527 135.658 70.7047 135.536 70.3466C135.411 69.9851 135.246 69.7212 135.046 69.5178C134.844 69.3175 134.597 69.1434 134.248 69.0058C134.084 68.9301 133.875 68.884 133.675 68.8272C133.453 68.7908 133.239 68.7401 132.991 68.7259C132.516 68.6694 131.984 68.6883 131.466 68.7058C131.206 68.7138 130.947 68.7615 130.686 68.7841C130.425 68.8113 130.168 68.8803 129.908 68.9234C129.647 68.9681 129.39 69.0493 129.129 69.1083C128.868 69.171 128.614 69.2719 128.354 69.3497C127.842 69.535 127.329 69.7412 126.82 69.9776C126.564 70.0918 126.317 70.2336 126.063 70.36C125.812 70.4922 125.567 70.6432 125.314 70.7796C123.329 71.9568 121.442 73.4917 119.648 75.1914C118.744 76.0377 117.873 76.9372 117.001 77.8559C116.57 78.319 116.14 78.7879 115.71 79.2632L115.069 79.9827L114.749 80.3463L114.589 80.5287L114.509 80.6199L114.469 80.6659C114.466 80.6688 114.461 80.6759 114.46 80.6751C114.463 80.6655 114.466 80.6529 114.465 80.6387C114.464 80.6098 114.445 80.5789 114.424 80.5663Z" fill="#F9CD80"/>
<path d="M112.84 80.5663C112.818 80.5789 112.799 80.6094 112.799 80.6383C112.798 80.6525 112.8 80.6651 112.804 80.6747C112.803 80.6755 112.798 80.6684 112.795 80.6655L112.755 80.6195L112.675 80.5283L112.515 80.3459L112.194 79.9823L111.554 79.2628C111.123 78.788 110.694 78.3186 110.263 77.8555C109.39 76.9368 108.52 76.0378 107.616 75.191C105.822 73.4909 103.935 71.9564 101.95 70.7792C101.697 70.6428 101.452 70.4922 101.201 70.3596C100.947 70.2337 100.7 70.0918 100.444 69.9772C99.9351 69.7408 99.4218 69.5346 98.9094 69.3493C98.65 69.2715 98.3953 69.1706 98.1347 69.1079C97.8741 69.0493 97.6168 68.9677 97.3562 68.923C97.096 68.8799 96.8383 68.8109 96.5777 68.7837C96.3171 68.7611 96.0578 68.7134 95.7976 68.7054C95.2797 68.6879 94.7481 68.669 94.2724 68.7255C94.0247 68.7397 93.8109 68.7904 93.5892 68.8268C93.3883 68.8837 93.1803 68.9301 93.0153 69.0054C92.6666 69.143 92.4202 69.3171 92.2176 69.5175C92.0176 69.7208 91.8531 69.9847 91.7278 70.3462C91.6058 70.7043 91.521 71.1523 91.5131 71.6372C91.5056 71.8777 91.4797 72.1208 91.511 72.3601L91.5331 72.7215C91.5377 72.8429 91.5732 72.9592 91.5904 73.0788L91.6505 73.4373C91.6801 73.5545 91.7186 73.6699 91.7507 73.7871C91.7858 73.9034 91.8125 74.0226 91.8522 74.1381L91.99 74.4778C92.0652 74.7125 92.1876 74.9266 92.2987 75.1475C92.3968 75.3764 92.5547 75.5709 92.682 75.7855C93.2433 76.6084 93.983 77.3371 94.8571 77.8743C95.7308 78.4085 96.7185 78.7871 97.7642 78.931C98.2633 79.0101 98.8847 79.044 99.4573 79.098C100.04 79.1498 100.625 79.2009 101.215 79.2674L103.003 79.4678L104.838 79.6953C107.318 80.0108 109.985 80.3417 112.84 80.5663ZM113.09 80.7211C110.84 80.9111 108.401 81.2064 105.777 81.4863L103.783 81.6875L101.742 81.8615C101.056 81.9197 100.364 81.9615 99.6707 82.0046L98.6292 82.0657C98.4512 82.0728 98.2904 82.0908 98.0988 82.0883L97.537 82.0841C94.5334 82.0335 91.5006 80.591 89.5753 78.1278C89.3443 77.8141 89.0887 77.5154 88.8962 77.1727C88.6911 76.8385 88.4807 76.5055 88.322 76.1432L88.0726 75.606C87.9979 75.4232 87.9377 75.2341 87.8713 75.0475C87.8079 74.8597 87.7398 74.6731 87.6826 74.4832L87.5452 73.9034C87.5047 73.7088 87.4474 73.5168 87.4232 73.3194L87.3493 72.727C87.2875 72.3317 87.2921 71.9342 87.2866 71.5355C87.2779 70.7432 87.381 69.9111 87.637 69.0493C87.8935 68.1934 88.3474 67.3048 89.0136 66.5685C89.673 65.8243 90.5225 65.2867 91.3531 64.9441C91.7737 64.7609 92.1863 64.6508 92.6006 64.54C93.0057 64.4572 93.4167 64.3726 93.8067 64.3404C94.2073 64.2861 94.5852 64.2819 94.9699 64.2668C95.352 64.2601 95.7266 64.2936 96.1046 64.3086C96.4817 64.33 96.853 64.3952 97.2263 64.44C97.5993 64.4894 97.9614 64.5835 98.3285 64.6563C98.6939 64.7362 99.0426 64.8621 99.3988 64.9654C99.7534 65.0734 100.09 65.2194 100.434 65.3466C100.776 65.4792 101.101 65.6402 101.431 65.7925C101.758 65.9498 102.066 66.1347 102.382 66.3054C103.001 66.6677 103.599 67.0492 104.16 67.4734C106.416 69.1531 108.227 71.2201 109.708 73.4352C110.441 74.5505 111.106 75.6981 111.676 76.8883C111.961 77.4836 112.229 78.0856 112.467 78.6997C112.589 79.0055 112.7 79.3155 112.808 79.6267C112.862 79.7824 112.911 79.9401 112.96 80.0974C112.985 80.1756 113.007 80.2555 113.03 80.335L113.063 80.4546L113.08 80.5145C113.082 80.5203 113.081 80.522 113.085 80.5316C113.093 80.55 113.1 80.5714 113.104 80.5944C113.112 80.6425 113.102 80.691 113.09 80.7211Z" fill="#F9CD80"/>
<path d="M114.024 81.7067C114.015 81.6829 114.007 81.6448 114.014 81.608C114.017 81.59 114.022 81.5729 114.029 81.5582L114.033 81.5444L114.046 81.4972L114.072 81.4026C114.09 81.3399 114.107 81.2767 114.128 81.2152L114.25 80.845C114.333 80.5986 114.42 80.3526 114.516 80.1116C114.705 79.6272 114.915 79.1519 115.141 78.6821C115.591 77.7425 116.116 76.8368 116.694 75.9566C117.863 74.2079 119.293 72.5764 121.074 71.2506C121.517 70.916 121.989 70.6148 122.477 70.329C122.726 70.1943 122.969 70.0483 123.228 69.9245C123.488 69.804 123.744 69.6768 124.014 69.5722C124.286 69.4718 124.552 69.3568 124.832 69.2715C125.113 69.1899 125.388 69.0903 125.677 69.0276C125.966 68.9703 126.252 68.8958 126.547 68.8569C126.841 68.8217 127.135 68.7699 127.432 68.7531C127.731 68.7414 128.026 68.7146 128.328 68.7201C128.631 68.7318 128.93 68.7351 129.246 68.7782C129.554 68.8037 129.878 68.8703 130.198 68.9355C130.525 69.023 130.851 69.11 131.183 69.2543C131.838 69.525 132.509 69.9492 133.029 70.5365C133.555 71.118 133.914 71.8192 134.116 72.4948C134.318 73.175 134.399 73.8318 134.393 74.4573C134.388 74.7718 134.392 75.0856 134.343 75.3977L134.285 75.8654C134.266 76.021 134.221 76.1729 134.189 76.3264L134.081 76.7841C134.036 76.9339 133.982 77.0811 133.932 77.2292C133.879 77.3765 133.831 77.5258 133.772 77.6697L133.576 78.0939C133.45 78.3801 133.284 78.6424 133.123 78.9064C132.971 79.177 132.769 79.4125 132.586 79.6602C131.067 81.6043 128.673 82.743 126.302 82.7827C126.005 82.7877 125.706 82.789 125.44 82.7681L124.618 82.72C124.071 82.6861 123.525 82.6526 122.983 82.607L121.372 82.4698L119.798 82.3108C117.725 82.09 115.801 81.8565 114.024 81.7067ZM114.222 81.5846C116.475 81.4072 118.58 81.1458 120.538 80.8973L121.987 80.7174L123.398 80.5592C123.864 80.5065 124.325 80.4664 124.785 80.4254C125.237 80.3827 125.728 80.3563 126.122 80.2936C126.947 80.1798 127.727 79.8811 128.417 79.4594C129.107 79.0352 129.69 78.4604 130.134 77.8107C130.573 77.1568 130.866 76.4251 130.995 75.6746C131.008 75.5801 131.036 75.4885 131.04 75.3927L131.057 75.1074C131.082 74.9187 131.062 74.7267 131.056 74.5367C131.049 74.154 130.983 73.8005 130.886 73.5177C130.787 73.2323 130.657 73.024 130.499 72.8634C130.339 72.7052 130.145 72.568 129.87 72.4592C129.335 72.2287 128.493 72.1777 127.674 72.2225C127.469 72.2287 127.264 72.2664 127.058 72.284C126.852 72.3053 126.649 72.3601 126.444 72.394C126.238 72.4291 126.035 72.4935 125.829 72.54C125.624 72.5893 125.423 72.6693 125.218 72.7308C124.813 72.8772 124.408 73.0399 124.006 73.2265C123.805 73.3169 123.61 73.4285 123.41 73.5281C123.212 73.6327 123.018 73.7515 122.818 73.859C121.251 74.7882 119.762 75.9997 118.345 77.3417C117.632 78.0098 116.945 78.7198 116.256 79.4448C115.916 79.8104 115.577 80.1806 115.237 80.5555L114.73 81.1223L114.479 81.4101L114.352 81.5545L114.289 81.6268L114.258 81.6628C114.256 81.6649 114.251 81.6699 114.251 81.6699C114.254 81.6624 114.256 81.6524 114.255 81.6415C114.253 81.6185 114.239 81.5946 114.222 81.5846Z" fill="#FFE1B0"/>
<path d="M113.041 81.5846C113.024 81.5946 113.009 81.6185 113.008 81.6415C113.008 81.6528 113.01 81.6628 113.012 81.6699C113.012 81.6699 113.008 81.6649 113.005 81.6628L112.974 81.6269L112.911 81.5545L112.785 81.4101L112.534 81.1223L112.026 80.5555C111.686 80.1806 111.347 79.81 111.007 79.4448C110.318 78.7198 109.631 78.0099 108.918 77.3418C107.502 75.9997 106.012 74.7886 104.445 73.859C104.246 73.7515 104.052 73.6323 103.853 73.5281C103.653 73.4286 103.458 73.3164 103.257 73.2265C102.855 73.0399 102.45 72.8772 102.045 72.7308C101.841 72.6693 101.639 72.5898 101.434 72.54C101.228 72.4936 101.025 72.4295 100.819 72.394C100.613 72.3601 100.41 72.3053 100.205 72.284C99.9987 72.2664 99.7941 72.2283 99.5886 72.2225C98.7696 72.1777 97.9273 72.2287 97.3927 72.4593C97.1175 72.568 96.9229 72.7052 96.7633 72.8634C96.6055 73.024 96.4756 73.2324 96.3766 73.5177C96.2805 73.8005 96.2133 74.154 96.207 74.5367C96.2012 74.7267 96.1803 74.9187 96.2054 75.1074L96.2229 75.3927C96.2267 75.4885 96.2547 75.5801 96.268 75.6746C96.3971 76.4252 96.6898 77.1568 97.1292 77.8107C97.5723 78.4604 98.1561 79.0352 98.8461 79.4594C99.5356 79.8811 100.315 80.1798 101.141 80.2936C101.535 80.3563 102.026 80.3827 102.477 80.4254C102.938 80.4664 103.399 80.5065 103.865 80.5592L105.276 80.7174L106.725 80.8973C108.683 81.1458 110.787 81.4072 113.041 81.5846ZM113.239 81.7068C111.462 81.8565 109.537 82.09 107.466 82.3108L105.892 82.4698L104.281 82.607C103.739 82.6526 103.193 82.6861 102.646 82.72L101.824 82.7681C101.558 82.7894 101.259 82.7882 100.962 82.7827C98.5909 82.743 96.197 81.6043 94.6773 79.6602C94.4952 79.4126 94.2935 79.177 94.141 78.9064C93.979 78.6424 93.8132 78.3797 93.6879 78.0939L93.4912 77.6697C93.4323 77.5254 93.3847 77.3765 93.3321 77.2292C93.2819 77.0811 93.2281 76.9339 93.183 76.7841L93.0748 76.3264C93.0426 76.1729 92.9975 76.021 92.9787 75.8654L92.9203 75.3977C92.8714 75.0856 92.8752 74.7719 92.871 74.4573C92.8643 73.8318 92.9453 73.175 93.1475 72.4948C93.35 71.8192 93.7079 71.118 94.2341 70.5365C94.7545 69.9492 95.4252 69.525 96.0809 69.2543C96.4129 69.1096 96.7387 69.0226 97.0657 68.9355C97.3856 68.8703 97.7097 68.8033 98.0179 68.7782C98.334 68.7356 98.6322 68.7322 98.9359 68.7201C99.2378 68.7147 99.5331 68.741 99.8317 68.7531C100.129 68.7699 100.422 68.8217 100.717 68.8569C101.012 68.8958 101.297 68.9703 101.587 69.0276C101.876 69.0907 102.151 69.1903 102.432 69.2715C102.712 69.3568 102.977 69.4719 103.249 69.5723C103.519 69.6768 103.775 69.804 104.036 69.9245C104.295 70.0483 104.537 70.1943 104.787 70.329C105.275 70.6148 105.747 70.916 106.19 71.2507C107.971 72.5764 109.401 74.2079 110.569 75.9566C111.148 76.8372 111.672 77.7429 112.123 78.6821C112.348 79.1519 112.559 79.6272 112.747 80.1116C112.844 80.3526 112.93 80.5986 113.013 80.845L113.135 81.2152C113.156 81.2763 113.173 81.3399 113.191 81.4026L113.218 81.4972L113.231 81.5444L113.235 81.5582C113.241 81.5729 113.247 81.5896 113.25 81.608C113.256 81.6444 113.248 81.6829 113.239 81.7068Z" fill="#FFE1B0"/>
<path d="M105.608 83.3914H120.099V78.5026C120.099 77.2058 119.049 76.1541 117.754 76.1541H107.952C106.657 76.1541 105.607 77.2054 105.607 78.5026V83.3914H105.608Z" fill="#FFE1B0"/>
<path d="M127.099 83.5249V96.7919" stroke="white" stroke-width="0.8549" stroke-miterlimit="10" stroke-linecap="round"/>
<path d="M132.678 121.242H121.715C121.246 121.242 120.866 120.861 120.866 120.392V101.314C120.866 101.05 120.988 100.801 121.197 100.64L126.527 96.5283C126.826 96.2974 127.241 96.2924 127.547 96.5154L133.18 100.64C133.399 100.8 133.528 101.056 133.528 101.327V120.391C133.528 120.861 133.148 121.242 132.678 121.242Z" fill="white"/>
<path d="M127.01 99.7094C127.447 99.7094 127.802 99.3545 127.802 98.9167C127.802 98.4788 127.447 98.1239 127.01 98.1239C126.573 98.1239 126.219 98.4788 126.219 98.9167C126.219 99.3545 126.573 99.7094 127.01 99.7094Z" fill="#462769"/>
<path d="M130.361 116.675H124.198C123.355 116.675 122.672 115.991 122.672 115.148C122.672 114.304 123.355 113.62 124.198 113.62H130.361C131.203 113.62 131.886 114.304 131.886 115.148C131.886 115.991 131.203 116.675 130.361 116.675Z" fill="#583887"/>
<path d="M130.473 112.763H124.309C123.467 112.763 122.784 112.079 122.784 111.235C122.784 110.391 123.467 109.707 124.309 109.707H130.473C131.315 109.707 131.998 110.391 131.998 111.235C131.998 112.079 131.315 112.763 130.473 112.763Z" fill="#583887"/>
<path d="M130.473 108.997H124.309C123.467 108.997 122.784 108.313 122.784 107.47C122.784 106.626 123.467 105.942 124.309 105.942H130.473C131.315 105.942 131.998 106.626 131.998 107.47C131.998 108.313 131.315 108.997 130.473 108.997Z" fill="#583887"/>
<path d="M124.833 119.101C124.729 119.09 124.636 119.07 124.556 119.042C124.475 119.011 124.408 118.98 124.353 118.947C124.301 118.914 124.261 118.884 124.232 118.855C124.206 118.825 124.193 118.805 124.193 118.797C124.193 118.764 124.201 118.728 124.216 118.689C124.233 118.647 124.254 118.61 124.278 118.578C124.302 118.543 124.327 118.515 124.353 118.493C124.381 118.469 124.408 118.457 124.432 118.457C124.451 118.457 124.472 118.466 124.494 118.483C124.515 118.5 124.54 118.521 124.569 118.545C124.599 118.569 124.635 118.593 124.677 118.617C124.72 118.639 124.772 118.654 124.833 118.663V117.679C124.722 117.618 124.609 117.552 124.494 117.48C124.38 117.408 124.277 117.324 124.183 117.228C124.09 117.132 124.012 117.02 123.951 116.892C123.892 116.763 123.863 116.611 123.863 116.434C123.863 116.299 123.888 116.164 123.938 116.029C123.99 115.894 124.06 115.765 124.147 115.643C124.234 115.521 124.337 115.41 124.454 115.31C124.572 115.208 124.698 115.124 124.833 115.059V114.529C124.833 114.518 124.828 114.505 124.817 114.49C124.806 114.475 124.801 114.458 124.801 114.441C124.801 114.393 124.865 114.369 124.994 114.369C125.057 114.369 125.107 114.381 125.144 114.405C125.183 114.429 125.203 114.473 125.203 114.536V114.925C125.244 114.916 125.284 114.909 125.324 114.905C125.365 114.898 125.407 114.895 125.451 114.895C125.562 114.895 125.662 114.913 125.752 114.947C125.841 114.982 125.916 115.032 125.977 115.098C126.04 115.163 126.088 115.242 126.121 115.333C126.156 115.425 126.173 115.527 126.173 115.64C126.173 115.743 126.159 115.843 126.131 115.941C126.102 116.039 126.064 116.126 126.016 116.202C125.971 116.278 125.917 116.341 125.856 116.388C125.795 116.434 125.733 116.457 125.67 116.457C125.613 116.457 125.56 116.437 125.51 116.398C125.46 116.357 125.426 116.311 125.409 116.261C125.391 116.213 125.392 116.178 125.412 116.156C125.431 116.132 125.451 116.121 125.471 116.121C125.51 116.121 125.543 116.107 125.569 116.081C125.597 116.055 125.619 116.021 125.634 115.98C125.649 115.939 125.66 115.892 125.667 115.839C125.673 115.785 125.677 115.729 125.677 115.673C125.677 115.581 125.656 115.511 125.614 115.46C125.573 115.41 125.5 115.385 125.396 115.385C125.365 115.385 125.333 115.389 125.301 115.395C125.268 115.399 125.235 115.407 125.203 115.418V117.339C125.288 117.392 125.37 117.447 125.451 117.506C125.532 117.563 125.602 117.627 125.663 117.699C125.727 117.771 125.777 117.851 125.814 117.941C125.853 118.03 125.873 118.132 125.873 118.248C125.873 118.346 125.855 118.438 125.82 118.525C125.785 118.613 125.738 118.692 125.677 118.764C125.616 118.834 125.544 118.895 125.461 118.947C125.38 118.999 125.294 119.038 125.203 119.065V119.6C125.203 119.644 125.192 119.675 125.17 119.692C125.15 119.712 125.117 119.721 125.069 119.721C125.006 119.721 124.95 119.706 124.902 119.676C124.856 119.645 124.833 119.596 124.833 119.529V119.101ZM124.373 116.434C124.373 116.513 124.385 116.585 124.409 116.65C124.433 116.715 124.464 116.775 124.503 116.83C124.545 116.884 124.594 116.935 124.65 116.983C124.707 117.029 124.768 117.074 124.833 117.117V115.614C124.77 115.662 124.71 115.716 124.654 115.777C124.597 115.836 124.548 115.9 124.507 115.97C124.465 116.04 124.433 116.114 124.409 116.192C124.385 116.271 124.373 116.351 124.373 116.434ZM125.402 118.271C125.402 118.201 125.384 118.137 125.346 118.078C125.312 118.019 125.264 117.965 125.203 117.914V118.623C125.272 118.591 125.323 118.543 125.353 118.48C125.386 118.417 125.402 118.347 125.402 118.271Z" fill="white"/>
<path d="M96.9034 108.361V104.73C96.9034 103.862 96.2009 103.159 95.3347 103.159H89.9138C89.0477 103.159 88.3452 103.862 88.3452 104.73V108.361" stroke="white" stroke-miterlimit="10"/>
<path d="M84.9082 126.002H100.873L100.297 106.344H85.4069L84.9082 126.002Z" fill="#8045DD"/>
<path d="M88.83 108.265C88.83 108.507 88.6333 108.704 88.3911 108.704C88.1489 108.704 87.9521 108.507 87.9521 108.265C87.9521 108.022 88.1484 107.825 88.3911 107.825C88.6337 107.825 88.83 108.022 88.83 108.265Z" fill="white"/>
<path d="M97.1689 108.265C97.1689 108.507 96.9726 108.704 96.73 108.704C96.4877 108.704 96.291 108.507 96.291 108.265C96.291 108.022 96.4873 107.825 96.73 107.825C96.9722 107.825 97.1689 108.022 97.1689 108.265Z" fill="white"/>
<path d="M86.8833 126.002H102.849L102.272 106.344H87.382L86.8833 126.002Z" fill="#5CA596"/>
<path d="M90.8051 108.265C90.8051 108.507 90.6088 108.704 90.3662 108.704C90.1239 108.704 89.9272 108.507 89.9272 108.265C89.9272 108.022 90.1235 107.825 90.3662 107.825C90.6088 107.825 90.8051 108.022 90.8051 108.265Z" fill="white"/>
<path d="M99.144 108.265C99.144 108.507 98.9473 108.704 98.705 108.704C98.4628 108.704 98.2661 108.507 98.2661 108.265C98.2661 108.022 98.4628 107.825 98.705 107.825C98.9477 107.825 99.144 108.022 99.144 108.265Z" fill="white"/>
<path d="M98.834 108.361V104.73C98.834 103.862 98.1319 103.159 97.2653 103.159H91.844C90.9779 103.159 90.2754 103.862 90.2754 104.73V108.361" stroke="white" stroke-miterlimit="10"/>
<path d="M100.396 106.099V114.439" stroke="white" stroke-width="0.1984" stroke-miterlimit="10" stroke-linecap="round"/>
<path d="M101.691 120.113H99.1463C99.0373 120.113 98.9492 120.025 98.9492 119.916V115.489C98.9492 115.427 98.9776 115.369 99.0261 115.332L100.263 114.378C100.332 114.324 100.429 114.323 100.5 114.375L101.807 115.332C101.858 115.369 101.888 115.428 101.888 115.491V119.916C101.888 120.025 101.8 120.113 101.691 120.113Z" fill="white"/>
<path d="M100.192 114.932C100.192 115.034 100.274 115.116 100.376 115.116C100.477 115.116 100.559 115.034 100.559 114.932C100.559 114.83 100.477 114.748 100.376 114.748C100.274 114.748 100.192 114.83 100.192 114.932Z" fill="#5CA596"/>
<path d="M94.0421 116.517C94.4003 116.517 94.6907 116.226 94.6907 115.867C94.6907 115.508 94.4003 115.217 94.0421 115.217C93.6839 115.217 93.3936 115.508 93.3936 115.867C93.3936 116.226 93.6839 116.517 94.0421 116.517Z" stroke="white" stroke-width="0.6512" stroke-miterlimit="10"/>
<path d="M94.0586 115.2V112.543" stroke="white" stroke-width="0.6512" stroke-miterlimit="10"/>
<path d="M93.4985 112.936L94.0682 113.507L94.6658 112.908" stroke="white" stroke-width="0.6512" stroke-miterlimit="10"/>
<path d="M93.4985 113.572L94.0682 114.143L94.6658 113.544" stroke="white" stroke-width="0.6512" stroke-miterlimit="10"/>
<path d="M93.4985 114.246L94.0682 114.817L94.6658 114.218" stroke="white" stroke-width="0.6512" stroke-miterlimit="10"/>
<path d="M94.1055 116.622V119.279" stroke="white" stroke-width="0.6512" stroke-miterlimit="10"/>
<path d="M94.6658 118.886L94.0962 118.316L93.4985 118.914" stroke="white" stroke-width="0.6512" stroke-miterlimit="10"/>
<path d="M94.6658 118.25L94.0962 117.679L93.4985 118.278" stroke="white" stroke-width="0.6512" stroke-miterlimit="10"/>
<path d="M94.6658 117.576L94.0962 117.006L93.4985 117.604" stroke="white" stroke-width="0.6512" stroke-miterlimit="10"/>
<path d="M94.5679 115.392L96.443 113.513" stroke="white" stroke-width="0.6512" stroke-miterlimit="10"/>
<path d="M95.77 113.394V114.201H96.6153" stroke="white" stroke-width="0.6512" stroke-miterlimit="10"/>
<path d="M95.3203 113.844V114.651H96.1656" stroke="white" stroke-width="0.6512" stroke-miterlimit="10"/>
<path d="M94.8452 114.32V115.127H95.6905" stroke="white" stroke-width="0.6512" stroke-miterlimit="10"/>
<path d="M93.5973 116.431L91.7217 118.309" stroke="white" stroke-width="0.6512" stroke-miterlimit="10"/>
<path d="M92.3951 118.428V117.621H91.5498" stroke="white" stroke-width="0.6512" stroke-miterlimit="10"/>
<path d="M92.8438 117.979V117.172H91.9985" stroke="white" stroke-width="0.6512" stroke-miterlimit="10"/>
<path d="M93.3199 117.502V116.695H92.4746" stroke="white" stroke-width="0.6512" stroke-miterlimit="10"/>
<path d="M94.792 115.888H97.4444" stroke="white" stroke-width="0.6512" stroke-miterlimit="10"/>
<path d="M97.0521 115.327L96.4824 115.897L97.0801 116.496" stroke="white" stroke-width="0.6512" stroke-miterlimit="10"/>
<path d="M96.4168 115.327L95.8472 115.897L96.4448 116.496" stroke="white" stroke-width="0.6512" stroke-miterlimit="10"/>
<path d="M95.7444 115.327L95.1748 115.897L95.7724 116.496" stroke="white" stroke-width="0.6512" stroke-miterlimit="10"/>
<path d="M93.3726 115.935H90.7202" stroke="white" stroke-width="0.6512" stroke-miterlimit="10"/>
<path d="M91.1125 116.496L91.6821 115.925L91.0845 115.327" stroke="white" stroke-width="0.6512" stroke-miterlimit="10"/>
<path d="M91.7477 116.496L92.3174 115.925L91.7197 115.327" stroke="white" stroke-width="0.6512" stroke-miterlimit="10"/>
<path d="M92.4201 116.496L92.9897 115.925L92.3921 115.327" stroke="white" stroke-width="0.6512" stroke-miterlimit="10"/>
<path d="M94.6011 116.398L96.4762 118.276" stroke="white" stroke-width="0.6512" stroke-miterlimit="10"/>
<path d="M96.5952 117.602H95.7896V118.448" stroke="white" stroke-width="0.6512" stroke-miterlimit="10"/>
<path d="M96.1464 117.152H95.3408V117.999" stroke="white" stroke-width="0.6512" stroke-miterlimit="10"/>
<path d="M95.6708 116.675H94.8652V117.522" stroke="white" stroke-width="0.6512" stroke-miterlimit="10"/>
<path d="M93.5641 115.425L91.6885 113.547" stroke="white" stroke-width="0.6512" stroke-miterlimit="10"/>
<path d="M91.5698 114.221H92.3754V113.375" stroke="white" stroke-width="0.6512" stroke-miterlimit="10"/>
<path d="M92.0186 114.671H92.8242V113.824" stroke="white" stroke-width="0.6512" stroke-miterlimit="10"/>
<path d="M92.4941 115.147H93.3002V114.3" stroke="white" stroke-width="0.6512" stroke-miterlimit="10"/>
</svg>
