<svg width="64" height="52" viewBox="0 0 64 52" fill="none" xmlns="http://www.w3.org/2000/svg">
<path d="M5.75789 49.736H54.9072C54.9072 49.736 61.5294 30.6055 45.9157 31.699C45.9157 31.699 44.6095 18.5747 31.0919 18.5747C17.5743 18.5747 15.6537 32.8533 15.6537 32.8533C15.6537 32.8533 -0.553424 28.236 5.75789 49.736Z" fill="#F7F7F7"/>
<path d="M54.9065 49.7356H21.5C37.1218 49.2656 31.5976 38.2202 31.5976 38.2202C48.2842 34.979 39.5684 20.9193 39.5684 20.9193C45.2187 24.6922 45.9157 31.6988 45.9157 31.6988C61.5285 30.6053 54.9065 49.7356 54.9065 49.7356Z" fill="#EAEAEA"/>
<path d="M41.1697 25.3662L39.7969 26.2857C39.7667 26.2412 39.5424 25.9214 39.1192 25.476C38.8711 25.2135 38.5529 24.9065 38.1647 24.5899C38.1457 24.574 38.1266 24.5581 38.1075 24.5422C37.4934 24.0459 36.7092 23.5257 35.7515 23.0962C35.007 22.7637 34.1575 22.4853 33.1999 22.3167C33.184 22.3151 33.1665 22.3119 33.1458 22.3087C32.554 22.2069 31.9225 22.1481 31.2464 22.1449C31.2193 22.1433 31.1923 22.1433 31.1684 22.1433C30.7516 22.1433 30.3539 22.1576 29.9737 22.1847C29.3788 22.2244 28.8252 22.296 28.3098 22.3915C28.1586 22.4185 28.0091 22.4487 27.8643 22.4821C27.6194 22.5346 27.3823 22.5951 27.1533 22.6587C26.6044 22.8146 26.1049 22.9944 25.6547 23.1932C25.2379 23.3762 24.8625 23.5718 24.5253 23.7739C24.4712 23.8057 24.4187 23.8375 24.3678 23.8693C24.048 24.0697 23.7633 24.275 23.5119 24.4738C23.2574 24.6774 23.0395 24.8763 22.8518 25.0624C22.8088 25.1038 22.7674 25.1451 22.7293 25.1865C22.1709 25.7655 21.9355 26.1982 21.9291 26.2125L20.4688 25.4394C20.5022 25.3694 20.833 24.7649 21.5759 23.9997C21.7637 23.8073 21.9768 23.6036 22.2202 23.3968C22.5272 23.1328 22.8804 22.8607 23.2845 22.5967C23.4435 22.4917 23.609 22.3883 23.784 22.2865C23.9685 22.1783 24.1626 22.0717 24.3646 21.9699C25.133 21.577 26.0349 21.2254 27.0833 20.9645C27.1533 20.947 27.2248 20.9295 27.2996 20.9136C27.4826 20.8707 27.6703 20.8293 27.8612 20.7927C28.3591 20.6957 28.8856 20.6193 29.4456 20.5684C29.7288 20.5414 30.0246 20.5223 30.3253 20.5096C30.4064 20.5064 30.4876 20.5032 30.5719 20.5C30.766 20.4936 30.9632 20.4905 31.1684 20.4905C31.2384 20.4905 31.3116 20.4905 31.3816 20.4921C31.625 20.4968 31.862 20.5064 32.0927 20.5223C32.2518 20.5334 32.4092 20.5461 32.5636 20.562C32.5922 20.5636 32.6224 20.5668 32.651 20.57C35.2934 20.8595 37.2978 21.8856 38.6992 22.9164C38.914 23.0755 39.116 23.233 39.3022 23.3905C39.6776 23.7023 39.9957 24.0061 40.2566 24.2765C40.8277 24.8683 41.13 25.3074 41.1697 25.3662Z" fill="#2A2A2A"/>
<path d="M13.8154 34.8036C13.3964 34.6209 12.9262 34.6119 12.4744 34.6244C12.0635 34.6359 11.6513 34.6865 11.2488 34.7701C10.427 34.941 9.62669 35.2687 8.92133 35.7238C7.48612 36.65 6.45656 38.096 6.03102 39.7495C5.79272 40.676 5.75597 41.6342 5.90535 42.5776C5.93891 42.79 6.20028 42.9102 6.39245 42.8588C6.61802 42.7984 6.70742 42.5846 6.6737 42.3717C6.44462 40.9251 6.78776 39.4079 7.5682 38.1749C8.34864 36.9417 9.59646 36.0491 10.9957 35.6513C11.3879 35.5398 11.7889 35.4637 12.1955 35.4341C12.405 35.4189 12.6152 35.4141 12.8251 35.4201C13.0121 35.4256 13.2422 35.4159 13.4177 35.4924C13.6146 35.5781 13.8448 35.5479 13.961 35.3468C14.0591 35.1769 14.0135 34.8899 13.8154 34.8036Z" fill="#EAEAEA"/>
<path d="M7.2272 47.4388C6.9539 46.5636 6.80532 45.6621 6.78878 44.7451C6.78496 44.5305 6.60552 44.3482 6.38885 44.3495C6.17553 44.3508 5.9894 44.5339 5.99322 44.7494C6.01088 45.73 6.16646 46.7085 6.45885 47.6447C6.5228 47.8495 6.73246 47.983 6.94595 47.9259C7.14734 47.8718 7.29147 47.6445 7.2272 47.4388Z" fill="#EAEAEA"/>
<path d="M19.7562 27.4806C18.3581 29.0304 17.4348 30.9877 17.1661 33.0603C17.1386 33.2732 17.2243 33.4863 17.4508 33.5455C17.6386 33.5945 17.9082 33.475 17.936 33.2608C18.1864 31.3284 19.0076 29.4962 20.3146 28.0473C20.6568 27.6682 20.0995 27.1001 19.7562 27.4806Z" fill="#EAEAEA"/>
<path d="M33.2654 36.7699H32.163V40.7282C32.163 41.2737 31.7207 41.7159 31.1753 41.7159H30.357C29.8115 41.7159 29.3692 41.2737 29.3692 40.7282V36.7699H28.2681C27.8341 36.7699 27.5721 36.2898 27.8068 35.9248L30.3048 32.0396C30.5207 31.7038 31.0114 31.7038 31.2273 32.0395L33.7264 35.9247C33.9615 36.2896 33.6994 36.7699 33.2654 36.7699Z" fill="#A6A6A6"/>
<path d="M41.1485 45.0346H20.4863V40.3949C20.4863 40.0351 20.7781 39.7435 21.1378 39.7435H21.7437C22.1035 39.7435 22.3951 40.0352 22.3951 40.3949V43.1257H39.2392V40.3949C39.2392 40.0351 39.531 39.7435 39.8907 39.7435H40.4966C40.8564 39.7435 41.148 40.0352 41.148 40.3949V45.0346H41.1485Z" fill="#A6A6A6"/>
<path d="M33.2654 37.1044H32.163V41.0627C32.163 41.6082 31.7207 42.0504 31.1753 42.0504H30.357C29.8115 42.0504 29.3692 41.6082 29.3692 41.0627V37.1044H28.2681C27.8341 37.1044 27.5721 36.6243 27.8068 36.2593L30.3048 32.3742C30.5207 32.0383 31.0114 32.0383 31.2273 32.374L33.7264 36.2592C33.9615 36.6243 33.6994 37.1044 33.2654 37.1044Z" fill="#BBBBBB"/>
<path d="M41.1485 45.3688H20.4863V40.7291C20.4863 40.3693 20.7781 40.0777 21.1378 40.0777H21.7437C22.1035 40.0777 22.3951 40.3694 22.3951 40.7291V43.4599H39.2392V40.7291C39.2392 40.3693 39.531 40.0777 39.8907 40.0777H40.4966C40.8564 40.0777 41.148 40.3694 41.148 40.7291V45.3688H41.1485Z" fill="#BBBBBB"/>
<path d="M28.7264 7.19621L20.9395 15.4111C22.3282 15.1852 23.7583 15.2058 25.136 15.4699C25.8105 15.5972 26.5056 15.8008 26.9845 16.2892C27.6224 16.9398 27.7337 17.9213 27.7862 18.8313C27.8244 19.4851 27.8499 20.1389 27.861 20.7927C27.8658 21.0281 27.8674 21.2636 27.8674 21.499L27.9628 21.4958C28.7582 21.4688 29.5552 21.437 30.349 21.4083C31.4769 21.3686 32.6207 21.3304 33.6944 21.6549C34.5121 21.9031 35.2868 22.401 35.7513 23.0962C36.709 23.5257 37.4933 24.0459 38.1073 24.5422C38.1264 24.5581 38.1455 24.574 38.1646 24.5899L39.302 23.3905L42.3802 20.1421L28.7264 7.19621ZM28.3764 11.8063C29.377 10.7516 31.0346 10.7071 32.0861 11.7029C33.1408 12.7035 33.1854 14.3611 32.1848 15.4158C31.1873 16.4673 29.5297 16.5119 28.475 15.5113C27.4235 14.5154 27.379 12.8578 28.3764 11.8063Z" fill="#C9C9C9"/>
<path d="M29.3838 6.50408L28.5757 5.73732L17.6533 17.2562L23.2847 22.5965L24.5256 23.7737C24.8628 23.5717 25.2382 23.376 25.655 23.1931L24.3649 21.9697L19.2855 17.1544L20.9399 15.4109L28.7268 7.19607L42.3806 20.1419L39.3024 23.3903L38.165 24.5898C38.5532 24.9063 38.8713 25.2134 39.1195 25.4758L40.2569 24.2764L43.9841 20.3455L29.3838 6.50408Z" fill="#F2F2F2"/>
<path d="M35.7514 23.0959C35.0069 22.7634 34.1574 22.4851 33.1998 22.3164C33.1839 22.3148 33.1664 22.3117 33.1457 22.3085C32.5539 22.2067 31.9224 22.1478 31.2463 22.1446C31.2192 22.143 31.1922 22.143 31.1683 22.143C30.7515 22.143 30.3539 22.1574 29.9737 22.1844C29.3787 22.2242 28.8251 22.2958 28.3097 22.3912C28.1586 22.4182 28.009 22.4485 27.8643 22.4819C27.869 22.1542 27.8706 21.8265 27.8674 21.4988L27.9629 21.4956C28.7583 21.4685 29.5553 21.4367 30.3491 21.4081C31.4769 21.3683 32.6207 21.3301 33.6945 21.6547C34.5122 21.9028 35.2869 22.4007 35.7514 23.0959Z" fill="#BBBBBB"/>
<path d="M27.8675 21.499C27.8707 21.8267 27.8691 22.1544 27.8643 22.4821C27.6193 22.5346 27.3823 22.595 27.1532 22.6587C26.6044 22.8146 26.1049 22.9943 25.6547 23.1932L24.3646 21.9699L19.2852 17.1545L20.9396 15.411C22.3283 15.1851 23.7585 15.2058 25.1361 15.4699C25.8106 15.5971 26.5058 15.8008 26.9846 16.2891C27.6225 16.9398 27.7339 17.9213 27.7864 18.8312C27.8245 19.485 27.85 20.1389 27.8611 20.7927C27.8659 21.0281 27.8675 21.2635 27.8675 21.499Z" fill="#999999"/>
<path d="M32.0861 11.7037C33.1409 12.7038 33.1852 14.3615 32.185 15.4164C31.1882 16.4678 29.5305 16.512 28.4756 15.5118C27.4243 14.5151 27.38 12.8573 28.3768 11.8059C29.377 10.7509 31.0347 10.7069 32.0861 11.7037Z" fill="#939393"/>
<path d="M48.2478 26.3836L48.9287 27.066L48.3735 27.6212L47.691 26.9404L47.0118 27.6212L46.455 27.066L47.1358 26.3836L46.4502 25.6979L47.0054 25.1428L47.691 25.8284L48.3735 25.1475L48.9287 25.7043L48.2478 26.3836Z" fill="#F7F7F7"/>
<path d="M56.9506 28.3881L60.6741 31.4323L57.6298 35.1561L53.9062 32.112L56.9506 28.3881ZM60.3057 31.4693L56.9876 28.7569L54.275 32.0749L57.5931 34.7874L60.3057 31.4693ZM59.0257 31.598L57.116 30.0368L55.5548 31.9462L57.4645 33.5074L59.0257 31.598Z" fill="#F7F7F7"/>
<path d="M57.0826 29.6662L55.1895 31.9809L57.5042 33.874L59.3973 31.5593L57.0826 29.6662Z" fill="#F7F7F7"/>
<path d="M61.4126 22.1417C59.9837 22.1417 58.8232 20.9812 58.8232 19.5548C58.8232 18.1283 59.9837 16.9654 61.4126 16.9654C62.839 16.9654 63.9995 18.1283 63.9995 19.5548C63.9995 20.9812 62.839 22.1417 61.4126 22.1417ZM59.7904 19.5548C59.7904 20.4493 60.5182 21.1747 61.4127 21.1747C62.3049 21.1747 63.0326 20.4494 63.0326 19.5548C63.0326 18.6603 62.3049 17.9325 61.4127 17.9325C60.5181 17.9325 59.7904 18.6603 59.7904 19.5548Z" fill="#BBBBBB"/>
<path d="M52.6551 24.0194C51.8156 24.0194 51.1338 23.3376 51.1338 22.4994C51.1338 21.6614 51.8156 20.9781 52.6551 20.9781C53.4931 20.9781 54.1749 21.6614 54.1749 22.4994C54.1749 23.3376 53.4931 24.0194 52.6551 24.0194ZM51.7019 22.4994C51.7019 23.025 52.1295 23.4512 52.6551 23.4512C53.1792 23.4512 53.6068 23.025 53.6068 22.4994C53.6068 21.9738 53.1792 21.5462 52.6551 21.5462C52.1295 21.5464 51.7019 21.974 51.7019 22.4994Z" fill="#BBBBBB"/>
<path d="M55.996 23.799L57.7393 25.0027L58.943 23.2594L57.1997 22.0557L55.996 23.799Z" fill="#E4E4E4"/>
<path d="M51.7862 15.847C52.4998 15.847 53.0782 15.2685 53.0782 14.5549C53.0782 13.8413 52.4998 13.2629 51.7862 13.2629C51.0726 13.2629 50.4941 13.8413 50.4941 14.5549C50.4941 15.2685 51.0726 15.847 51.7862 15.847Z" fill="#E4E4E4"/>
<path d="M8.71267 9.1184L7.40202 10.4292L8.70218 11.7316L7.64048 12.7933L6.34032 11.4909L5.03794 12.7931L3.97656 11.7314L5.27863 10.4292L3.97656 9.12906L5.03794 8.06737L6.34032 9.36752L7.65098 8.05687L8.71267 9.1184ZM5.0381 8.42068L4.3302 9.12874L5.63226 10.4289L4.3302 11.7313L5.0381 12.4395L6.34048 11.1371L7.64064 12.4395L8.34886 11.7313L7.0487 10.4289L8.35936 9.1184L7.65114 8.41019L6.34048 9.72084L5.0381 8.42068Z" fill="#C6C6C6"/>
<path d="M15.4914 28.0274L11.9398 30.931L9.03613 27.379L12.5877 24.4755L15.4914 28.0274ZM11.975 30.5794L15.1399 27.9921L12.5526 24.8274L9.3877 27.4147L11.975 30.5794ZM14.2706 27.9048L12.0625 29.7102L10.2571 27.5017L12.4652 25.6963L14.2706 27.9048ZM12.0976 29.3585L13.9192 27.8693L12.4301 26.048L10.6085 27.5372L12.0976 29.3585Z" fill="#F7F7F7"/>
<path d="M9.88574 11.5045C9.88574 10.3698 10.8089 9.4446 11.9438 9.4446C13.0804 9.4446 14.0037 10.3696 14.0037 11.5045C14.0037 12.6392 13.0805 13.5625 11.9438 13.5625C10.809 13.5625 9.88574 12.6394 9.88574 11.5045ZM11.9438 10.2141C11.2341 10.2141 10.655 10.7929 10.655 11.5047C10.655 12.2162 11.2339 12.7934 11.9438 12.7934C12.6553 12.7934 13.2344 12.2164 13.2344 11.5047C13.2344 10.7929 12.6553 10.2141 11.9438 10.2141Z" fill="#939393"/>
<path d="M0 21.4388C0 20.6394 0.650316 19.9877 1.44969 19.9877C2.2505 19.9877 2.90081 20.6394 2.90081 21.4388C2.90081 22.2382 2.2505 22.8885 1.44969 22.8885C0.650316 22.8886 0 22.2382 0 21.4388ZM1.44969 20.5297C0.949704 20.5297 0.541983 20.9375 0.541983 21.4388C0.541983 21.9401 0.949863 22.3465 1.44969 22.3465C1.95095 22.3465 2.35883 21.9401 2.35883 21.4388C2.35883 20.9375 1.95095 20.5297 1.44969 20.5297Z" fill="#999999"/>
<path d="M7.62664 15.3324L5.96387 16.4805L7.11199 18.1432L8.77476 16.9951L7.62664 15.3324Z" fill="#C6C6C6"/>
<path d="M5.17784 29.0023C5.53656 29.0023 5.82736 28.7115 5.82736 28.3528C5.82736 27.994 5.53656 27.7032 5.17784 27.7032C4.81912 27.7032 4.52832 27.994 4.52832 28.3528C4.52832 28.7115 4.81912 29.0023 5.17784 29.0023Z" fill="#C6C6C6"/>
<path d="M8.48268 23.3708C8.98927 23.3708 9.39993 22.9601 9.39993 22.4535C9.39993 21.947 8.98927 21.5363 8.48268 21.5363C7.9761 21.5363 7.56543 21.947 7.56543 22.4535C7.56543 22.9601 7.9761 23.3708 8.48268 23.3708Z" fill="#939393"/>
<path d="M55.4817 12.5272C55.9694 12.5272 56.3647 12.1319 56.3647 11.6442C56.3647 11.1565 55.9694 10.7611 55.4817 10.7611C54.994 10.7611 54.5986 11.1565 54.5986 11.6442C54.5986 12.1319 54.994 12.5272 55.4817 12.5272Z" fill="#939393"/>
<path d="M44.7484 15.0403C45.214 15.0403 45.5915 14.6628 45.5915 14.1972C45.5915 13.7315 45.214 13.354 44.7484 13.354C44.2827 13.354 43.9053 13.7315 43.9053 14.1972C43.9053 14.6628 44.2827 15.0403 44.7484 15.0403Z" fill="#BBBBBB"/>
<path d="M40.9491 5.82026L38.913 14.4606C38.6607 14.0528 38.4131 13.6458 38.1608 13.238C37.9323 12.8555 37.6943 12.4709 37.3681 12.1651C36.5548 11.391 35.301 11.2399 34.2044 11.4994C33.1125 11.7598 32.1429 12.3676 31.1897 12.9694C30.5173 13.3934 29.8438 13.8221 29.1713 14.2462L29.0897 14.2966C28.6434 13.5294 28.1688 12.7754 27.6768 12.0321C27.1739 11.2714 26.5839 10.4803 25.705 10.2384C25.0456 10.0581 24.3426 10.231 23.6958 10.4619C22.3716 10.9264 21.1259 11.6286 20.0391 12.5224L22.6352 1.50508L40.9491 5.82026ZM29.7601 6.86763C30.0935 5.45279 29.2211 4.04239 27.8061 3.70896C26.3959 3.37665 24.9856 4.24903 24.6522 5.66404C24.3199 7.07428 25.1923 8.48451 26.6025 8.81683C28.0175 9.15026 29.4278 8.27787 29.7601 6.86763Z" fill="#ECECEC"/>
<path d="M38.9123 14.4605L40.9483 5.82011L22.6347 1.50478L20.0385 12.5221L19.4873 14.8614L30.6698 17.4964L37.801 19.1767L38.9123 14.4605ZM42.4359 5.19L38.795 20.6407L18.1279 15.7708L21.7688 0.320114L42.4359 5.19Z" fill="#F2F2F2"/>
<path d="M38.9132 14.4607L37.8018 19.1771L30.6706 17.4967L30.7183 17.2939C30.2109 16.2782 29.6708 15.2749 29.0898 14.2965L29.1715 14.2461C29.8439 13.8222 30.5174 13.3934 31.1898 12.9693C32.1431 12.3675 33.1128 11.7597 34.2046 11.4993C35.3011 11.24 36.555 11.391 37.3682 12.165C37.6943 12.4709 37.9323 12.8556 38.1609 13.2379C38.4132 13.6461 38.6609 14.0528 38.9132 14.4607Z" fill="#BBBBBB"/>
<path d="M30.7177 17.2938L30.6699 17.4966L19.4873 14.8616L20.0385 12.5224C21.1253 11.6285 22.3711 10.9263 23.6953 10.4618C24.3421 10.2308 25.0449 10.0581 25.7044 10.2383C26.5834 10.4803 27.1735 11.2715 27.6762 12.0321C28.1683 12.7753 28.6426 13.5293 29.0892 14.2966C29.6701 15.2747 30.2102 16.2782 30.7177 17.2938Z" fill="#999999"/>
<path d="M27.8056 3.70907C29.2204 4.0425 30.093 5.45273 29.7595 6.86774C29.4272 8.27798 28.017 9.15037 26.602 8.81694C25.1917 8.48462 24.3193 7.07439 24.6517 5.66415C24.9851 4.24914 26.3955 3.37675 27.8056 3.70907Z" fill="#C9C9C9"/>
<path d="M5.80566 49.7355H54.8816C54.8816 49.7355 49.2551 51.6444 29.1751 51.6444C9.09503 51.6444 5.80566 49.7355 5.80566 49.7355Z" fill="#E2E2E2"/>
</svg>
