<svg width="54" height="56" viewBox="0 0 54 56" fill="none" xmlns="http://www.w3.org/2000/svg">
<path d="M48.5942 7.03772C48.576 7.0553 48.5507 7.06281 48.5259 7.05523C48.4302 7.02604 48.3337 6.99906 48.239 6.97495C48.1987 6.96474 48.1734 6.9197 48.1825 6.87435C48.1917 6.82901 48.2316 6.80052 48.2719 6.81078C48.3686 6.83532 48.4672 6.86287 48.565 6.89268C48.6048 6.90484 48.6284 6.95108 48.6175 6.99592C48.6135 7.01284 48.6052 7.02711 48.5942 7.03772Z" fill="#B4B4B4"/>
<path d="M51.3885 20.9265C51.2562 21.0547 51.1183 21.1788 50.9785 21.2952C50.9454 21.3229 50.8986 21.315 50.874 21.2776C50.8495 21.2403 50.8558 21.1879 50.8897 21.1599C51.0505 21.0258 51.2082 20.8818 51.3591 20.7321C51.3594 20.7318 51.3596 20.7316 51.3598 20.7314C51.3908 20.7014 51.4375 20.7049 51.4646 20.7396C51.4919 20.7744 51.4889 20.8276 51.458 20.8584C51.4349 20.8813 51.4117 20.904 51.3885 20.9265ZM52.1528 20.0638C52.1253 20.0904 52.0839 20.0912 52.0555 20.0639C52.0241 20.0336 52.0205 19.9805 52.0473 19.9451C52.1776 19.7737 52.3031 19.5937 52.4203 19.4102C52.4442 19.372 52.4911 19.3638 52.5246 19.391C52.5581 19.4181 52.5657 19.4707 52.5416 19.5084C52.422 19.6958 52.2938 19.8796 52.1608 20.0546C52.1583 20.0579 52.1556 20.061 52.1528 20.0638ZM53.052 18.5743C53.0293 18.5962 52.9962 18.6016 52.9683 18.5849C52.9318 18.5632 52.9178 18.5122 52.9372 18.4712C53.0311 18.2711 53.1183 18.0645 53.1965 17.8571C53.2125 17.8143 53.2565 17.7943 53.2945 17.8125C53.3324 17.8307 53.3502 17.8801 53.334 17.9229C53.2543 18.1347 53.1652 18.3456 53.0693 18.5499C53.0647 18.5594 53.0588 18.5676 53.052 18.5743ZM53.6365 16.8984C53.6184 16.916 53.5932 16.9235 53.5684 16.916C53.5286 16.9039 53.5049 16.8577 53.5156 16.8128C53.5674 16.5951 53.6115 16.3718 53.6465 16.1492C53.6537 16.1034 53.6925 16.0728 53.7332 16.081C53.7738 16.0891 53.8009 16.1328 53.7937 16.1786C53.7579 16.406 53.7129 16.6341 53.6599 16.8565C53.6559 16.8734 53.6475 16.8878 53.6365 16.8984ZM53.8737 15.1182C53.86 15.1315 53.8419 15.1393 53.8223 15.1384C53.781 15.1368 53.7488 15.0977 53.7503 15.0513C53.7577 14.8259 53.7564 14.5971 53.7467 14.3713C53.7448 14.3248 53.7767 14.2854 53.8177 14.2831C53.859 14.2809 53.894 14.3166 53.896 14.3631C53.9059 14.5937 53.9072 14.8273 53.8997 15.0575C53.8989 15.0818 53.889 15.1034 53.8737 15.1182ZM53.7538 13.3225C53.7442 13.3318 53.7323 13.3385 53.719 13.3413C53.6784 13.3499 53.6393 13.3199 53.6316 13.2742C53.5943 13.052 53.5483 12.8291 53.4946 12.6118C53.4835 12.567 53.5068 12.5205 53.5465 12.5082C53.5863 12.4957 53.6275 12.5219 53.6385 12.5667C53.6933 12.7885 53.7404 13.0161 53.7785 13.243C53.7836 13.2736 53.7734 13.3035 53.7538 13.3225ZM53.2845 11.6007C53.2789 11.6061 53.2725 11.6107 53.2654 11.6142C53.2276 11.6327 53.1836 11.6131 53.1672 11.5705C53.0873 11.3632 52.9985 11.1574 52.9033 10.9587C52.8837 10.9177 52.8972 10.8669 52.9336 10.8446C52.9699 10.8225 53.0152 10.8378 53.0348 10.8787C53.1321 11.0816 53.2227 11.2918 53.3042 11.5034C53.3176 11.5381 53.3086 11.5773 53.2845 11.6007ZM52.4875 10.0392C52.486 10.0405 52.4845 10.0419 52.483 10.0432C52.4497 10.0707 52.4029 10.0627 52.3785 10.0252C52.2735 9.86455 52.1618 9.70651 52.0466 9.55555C52.0312 9.53541 52.0157 9.51529 52.0001 9.49535C51.9729 9.46039 51.9759 9.40722 52.0069 9.37654C52.0072 9.37632 52.0074 9.37614 52.0075 9.37595C52.0386 9.3459 52.0853 9.34949 52.1124 9.38419C52.1284 9.40463 52.1441 9.42513 52.1599 9.44575C52.2776 9.59995 52.3917 9.76134 52.4989 9.92549C52.5222 9.96115 52.5168 10.0107 52.4875 10.0392ZM51.4008 8.71806C51.3733 8.74476 51.3318 8.74546 51.3034 8.71798C51.1518 8.5709 50.9923 8.42906 50.8295 8.29635C50.796 8.26913 50.7885 8.21645 50.8127 8.17879C50.8372 8.14129 50.8836 8.13266 50.917 8.1599C51.0833 8.29543 51.2462 8.44023 51.4009 8.59036C51.4322 8.62073 51.4357 8.67386 51.4088 8.70914C51.4063 8.71232 51.4036 8.71532 51.4008 8.71806ZM50.081 7.70089C50.0584 7.72285 50.0252 7.7282 49.9972 7.71139C49.8197 7.60494 49.6365 7.50612 49.4526 7.41753C49.4147 7.3993 49.397 7.34981 49.4133 7.30708C49.4295 7.26429 49.4734 7.2444 49.5114 7.26276C49.6991 7.35314 49.8862 7.45407 50.0674 7.56271C50.1038 7.58453 50.1177 7.63556 50.0983 7.67658C50.0938 7.68614 50.0879 7.69425 50.081 7.70089Z" fill="#B4B4B4"/>
<path d="M50.143 21.8934C50.139 21.8973 50.1346 21.9007 50.1298 21.9037C50.0405 21.9581 49.9503 22.0106 49.8615 22.0595C49.8244 22.0799 49.7796 22.0627 49.7615 22.0209C49.7433 21.9791 49.7589 21.9289 49.7958 21.9082C49.8827 21.8604 49.9711 21.809 50.0586 21.7556C50.0948 21.7334 50.1402 21.7487 50.1598 21.7895C50.1769 21.825 50.1691 21.8681 50.143 21.8934Z" fill="#B4B4B4"/>
<path d="M44.5656 22.4959C44.5466 22.5143 44.5198 22.5215 44.4942 22.5123C44.3993 22.4784 44.3031 22.4415 44.2084 22.4026C44.1696 22.3867 44.1496 22.3383 44.1637 22.2947C44.178 22.2509 44.2207 22.2284 44.2595 22.2444C44.3523 22.2824 44.4465 22.3186 44.5394 22.3518C44.5787 22.3659 44.6005 22.4132 44.588 22.4575C44.5837 22.473 44.5757 22.486 44.5656 22.4959Z" fill="#B4B4B4"/>
<path d="M43.3911 21.9412C43.3684 21.9631 43.3354 21.9685 43.3074 21.9518C43.1298 21.8461 42.9535 21.7303 42.7834 21.6076C42.7486 21.5825 42.7384 21.5305 42.7607 21.4913C42.7831 21.4524 42.8292 21.4407 42.8639 21.4658C43.0306 21.5859 43.2033 21.6994 43.3772 21.803C43.4137 21.8247 43.4276 21.8756 43.4084 21.9167C43.4039 21.9263 43.3979 21.9345 43.3911 21.9412ZM42.0881 20.9475C42.0607 20.9741 42.0195 20.975 41.9911 20.9478C41.8373 20.8006 41.6875 20.6444 41.5457 20.4837C41.5166 20.4507 41.5168 20.3974 41.5461 20.3647C41.5757 20.3314 41.6227 20.332 41.6518 20.3651C41.7906 20.5224 41.9373 20.6753 42.0879 20.8195C42.1193 20.8496 42.1232 20.9027 42.0965 20.9382C42.0939 20.9416 42.0911 20.9447 42.0881 20.9475ZM41.0093 19.6573C41.008 19.6585 41.0067 19.6597 41.0054 19.6608C40.9724 19.6888 40.9255 19.6813 40.9007 19.6441C40.7798 19.4629 40.6642 19.2734 40.5571 19.081C40.5352 19.0416 40.5458 18.9897 40.5807 18.965C40.6157 18.9403 40.6618 18.9522 40.6837 18.9916C40.7886 19.18 40.9018 19.3655 41.0202 19.5429C41.044 19.5786 41.0389 19.6286 41.0093 19.6573ZM40.2087 18.1316C40.2034 18.1367 40.1974 18.1411 40.1906 18.1445C40.153 18.1636 40.1088 18.1447 40.0918 18.1023C40.0091 17.8956 39.9332 17.6822 39.8661 17.4681C39.8523 17.4243 39.8726 17.376 39.9117 17.3607C39.9506 17.3452 39.9933 17.3682 40.007 17.412C40.0727 17.6217 40.1471 17.8307 40.2281 18.0332C40.242 18.068 40.2332 18.1079 40.2087 18.1316ZM39.7236 16.4459C39.7143 16.4549 39.7029 16.4615 39.69 16.4644C39.6496 16.4738 39.6101 16.4446 39.6017 16.399C39.5609 16.1768 39.528 15.95 39.5038 15.7247C39.4989 15.6786 39.528 15.6367 39.569 15.6311C39.61 15.6255 39.6473 15.6584 39.6523 15.7045C39.6759 15.9252 39.7082 16.1473 39.7481 16.3649C39.7538 16.396 39.7435 16.4266 39.7236 16.4459ZM39.5756 14.6818C39.5622 14.6947 39.5447 14.7024 39.5257 14.7021C39.4844 14.7014 39.4515 14.6631 39.4522 14.6166C39.4553 14.3895 39.4671 14.1601 39.4871 13.9346C39.4913 13.8884 39.5279 13.8546 39.5689 13.8592C39.61 13.8639 39.64 13.9051 39.6359 13.9514C39.6163 14.1722 39.6047 14.3969 39.6016 14.6193C39.6013 14.6443 39.5912 14.6666 39.5756 14.6818ZM39.7735 12.9245C39.7559 12.9416 39.7315 12.9492 39.7072 12.9426C39.6671 12.9317 39.6424 12.8862 39.6521 12.841C39.6994 12.6202 39.7557 12.3992 39.8192 12.1841C39.8324 12.1401 39.8747 12.1162 39.9138 12.1308C39.9529 12.1455 39.9741 12.1931 39.9611 12.2373C39.8988 12.448 39.8437 12.6644 39.7974 12.8805C39.7935 12.8983 39.785 12.9134 39.7735 12.9245ZM40.3097 11.2589C40.2876 11.2802 40.2556 11.2859 40.2279 11.2706C40.1908 11.25 40.1757 11.1995 40.194 11.1578C40.2829 10.955 40.3807 10.7533 40.4848 10.5584C40.5059 10.5183 40.5521 10.5057 40.5874 10.5297C40.6227 10.5536 40.6341 10.6054 40.6129 10.6452C40.5109 10.8362 40.415 11.0337 40.3279 11.2323C40.3234 11.2428 40.3171 11.2517 40.3097 11.2589ZM41.1554 9.76462C41.1286 9.79057 41.0884 9.79219 41.0599 9.76637C41.0277 9.73724 41.0226 9.6843 41.0484 9.648C41.175 9.4705 41.3094 9.29747 41.4479 9.13363C41.4768 9.10031 41.5237 9.09867 41.5535 9.13069C41.5834 9.16278 41.5846 9.21608 41.5561 9.24972C41.4205 9.41014 41.2889 9.57962 41.165 9.75348C41.1621 9.7576 41.1588 9.76129 41.1554 9.76462ZM42.7548 8.11474C42.7525 8.117 42.7501 8.11913 42.7474 8.12103C42.5832 8.24446 42.4217 8.37717 42.2676 8.51552C42.2354 8.5445 42.1884 8.53854 42.1626 8.5022C42.1369 8.46578 42.1412 8.41278 42.1745 8.38387C42.3319 8.24256 42.4968 8.10701 42.6646 7.98099C42.6989 7.95521 42.7453 7.96558 42.7682 8.00431C42.7894 8.04007 42.783 8.08741 42.7548 8.11474Z" fill="#B4B4B4"/>
<path d="M43.8765 7.42694C43.8709 7.43233 43.8645 7.43689 43.8575 7.44037C43.7667 7.48473 43.6763 7.53143 43.5888 7.57923C43.5516 7.59948 43.507 7.58197 43.489 7.5402C43.471 7.4983 43.4863 7.448 43.5236 7.42768C43.613 7.37894 43.7053 7.33125 43.798 7.28593C43.8359 7.26745 43.8798 7.28698 43.8963 7.32961C43.9097 7.3643 43.9006 7.40353 43.8765 7.42694Z" fill="#B4B4B4"/>
<path d="M45.1408 8.81072C45.1048 8.81797 45.0768 8.85017 45.0711 8.89093L44.9095 10.0534C44.4614 10.2708 44.041 10.5703 43.6676 10.9482L42.6634 10.627C42.6281 10.6157 42.5905 10.6309 42.5695 10.6647L41.853 11.8226C41.8321 11.8565 41.8325 11.9016 41.8541 11.9349L42.4691 12.885C42.2835 13.4105 42.1796 13.9585 42.1536 14.5072L41.2413 15.0803C41.2093 15.1004 41.1922 15.1412 41.1986 15.1817L41.4188 16.5712C41.4253 16.6118 41.4539 16.6433 41.49 16.6497L42.522 16.8318C42.715 17.3365 42.9808 17.8101 43.3163 18.2308L43.0312 19.362C43.0212 19.4016 43.0346 19.4441 43.0647 19.4677L44.0926 20.2748C44.1226 20.2983 44.1626 20.2979 44.1922 20.2736L45.0357 19.5808C45.5022 19.7898 45.9886 19.9069 46.4757 19.9362L46.9845 20.9639C47.0023 20.9999 47.0385 21.0192 47.0745 21.0119L48.308 20.7639C48.344 20.7566 48.372 20.7244 48.3777 20.6837L48.5393 19.5212C48.9873 19.3038 49.4078 19.0043 49.7812 18.6264L50.7854 18.9476C50.8206 18.9589 50.8583 18.9437 50.8793 18.9099L51.5958 17.752C51.6167 17.7182 51.6162 17.6731 51.5947 17.6398L50.9797 16.6896C51.1652 16.1642 51.2691 15.6161 51.2952 15.0674L52.2074 14.4943C52.2394 14.4742 52.2566 14.4335 52.2501 14.3929L52.0299 13.0034C52.0235 12.9628 51.9949 12.9313 51.9587 12.9249L50.9268 12.7428C50.7338 12.2382 50.468 11.7645 50.1324 11.3439L50.4176 10.2126C50.4276 10.173 50.4141 10.1305 50.3841 10.107L49.3562 9.29987C49.3262 9.27628 49.2862 9.27677 49.2566 9.30105L48.4131 9.99384C47.9466 9.78481 47.4602 9.66779 46.973 9.63845L46.4643 8.6108C46.4464 8.57477 46.4103 8.55546 46.3742 8.56269L45.1408 8.81072Z" fill="#B4B4B4"/>
<path d="M47.5245 15.8322C47.4364 15.9176 47.3369 15.9891 47.2281 16.0445C46.9299 16.196 46.5973 16.2078 46.2913 16.0775C45.9853 15.9472 45.7427 15.6905 45.6081 15.3546C45.4735 15.0187 45.4631 14.6439 45.5788 14.2993C45.6945 13.9546 45.9223 13.6812 46.2205 13.5296C46.5187 13.3781 46.8514 13.3663 47.1574 13.4967C47.4634 13.627 47.706 13.8837 47.8405 14.2196C47.9751 14.5555 47.9855 14.9302 47.8698 15.2749C47.7964 15.4938 47.6777 15.6838 47.5245 15.8322ZM46.0707 13.9332C45.9455 14.0545 45.8486 14.2098 45.7886 14.3886C45.6941 14.6702 45.7025 14.9763 45.8125 15.2507C45.9224 15.5251 46.1206 15.7348 46.3706 15.8412C46.6205 15.9477 46.8923 15.9381 47.1359 15.8143C47.3795 15.6905 47.5657 15.4672 47.6601 15.1855C47.7546 14.904 47.7461 14.5979 47.6362 14.3235C47.5263 14.0491 47.3281 13.8394 47.0781 13.7329C46.8282 13.6265 46.5563 13.636 46.3128 13.7599C46.2239 13.8051 46.1426 13.8635 46.0707 13.9332Z" fill="#D0D0D0"/>
<path d="M48.7762 17.4939C47.7174 18.5196 46.1355 18.6538 44.9382 17.7137C44.7172 17.5403 44.5223 17.3403 44.3542 17.1202C43.4434 15.9276 43.3242 14.1453 44.1588 12.7964C44.1738 12.7723 44.1891 12.7482 44.2046 12.7244C44.3094 12.5638 44.4257 12.4135 44.5516 12.2761C44.5663 12.26 44.5811 12.2441 44.5961 12.2284L44.7489 12.4133C44.5985 12.5711 44.4618 12.7486 44.3428 12.9409C44.3416 12.9427 44.3405 12.9445 44.3394 12.9464C43.4256 14.4295 43.7511 16.4738 45.0663 17.5065C46.3832 18.5405 48.2012 18.1749 49.1194 16.6914C49.8942 15.439 49.7836 13.7841 48.9379 12.6768C48.7819 12.4725 48.6009 12.2869 48.3958 12.1258C47.9628 11.7859 47.4572 11.5847 46.9336 11.5442L46.9489 11.2922C47.513 11.3359 48.0577 11.5525 48.5239 11.9185C48.7449 12.0921 48.9399 12.292 49.1079 12.5121C50.0187 13.7047 50.1379 15.487 49.3033 16.8358C49.1492 17.0848 48.9716 17.3046 48.7762 17.4939Z" fill="#D0D0D0"/>
<path d="M42.6929 0.890505C42.682 0.901068 42.6668 0.905583 42.6518 0.901025C42.5943 0.88347 42.5363 0.867273 42.4794 0.852765C42.4552 0.846628 42.44 0.819562 42.4454 0.792298C42.451 0.765056 42.475 0.747918 42.4991 0.754076C42.5573 0.768826 42.6166 0.785373 42.6753 0.8033C42.6992 0.810598 42.7134 0.838388 42.7069 0.865345C42.7045 0.875536 42.6995 0.884127 42.6929 0.890505Z" fill="#B4B4B4"/>
<path d="M44.3725 9.23804C44.2929 9.3151 44.21 9.38966 44.126 9.45962C44.1061 9.47625 44.078 9.47152 44.0632 9.44903C44.0485 9.42661 44.0523 9.39512 44.0726 9.37828C44.1693 9.2977 44.2641 9.21113 44.3548 9.12116C44.3549 9.12101 44.355 9.12088 44.3552 9.12077C44.3738 9.10273 44.4019 9.10486 44.4182 9.12568C44.4346 9.14663 44.4328 9.17858 44.4142 9.19708C44.4003 9.21084 44.3864 9.22452 44.3725 9.23804ZM44.8318 8.7195C44.8153 8.73553 44.7904 8.73601 44.7734 8.71957C44.7545 8.7014 44.7523 8.66945 44.7684 8.64821C44.8467 8.54516 44.9222 8.43698 44.9926 8.32668C45.007 8.30373 45.0352 8.29882 45.0553 8.31515C45.0754 8.33146 45.08 8.3631 45.0655 8.38574C44.9936 8.49837 44.9166 8.60883 44.8367 8.71403C44.8351 8.716 44.8335 8.71784 44.8318 8.7195ZM45.3722 7.82427C45.3586 7.83744 45.3388 7.84069 45.3219 7.83065C45.3 7.81761 45.2916 7.78697 45.3032 7.76227C45.3597 7.64201 45.4121 7.51784 45.4591 7.3932C45.4687 7.36747 45.4952 7.35548 45.518 7.3664C45.5408 7.37731 45.5515 7.40703 45.5418 7.43276C45.4938 7.56005 45.4403 7.68681 45.3826 7.80959C45.3799 7.81533 45.3764 7.82028 45.3722 7.82427ZM45.7236 6.81702C45.7127 6.82759 45.6975 6.8321 45.6826 6.82756C45.6587 6.82033 45.6445 6.79259 45.6509 6.76559C45.682 6.63472 45.7085 6.50053 45.7296 6.36673C45.7339 6.33921 45.7572 6.32082 45.7817 6.32573C45.8061 6.33059 45.8224 6.35685 45.818 6.3844C45.7965 6.52107 45.7695 6.65813 45.7377 6.7918C45.7352 6.80199 45.7302 6.81062 45.7236 6.81702ZM45.8662 5.74705C45.8579 5.75505 45.847 5.75972 45.8352 5.75921C45.8105 5.75821 45.7911 5.73474 45.792 5.70681C45.7964 5.57135 45.7957 5.43383 45.7898 5.29812C45.7887 5.27018 45.8078 5.24653 45.8325 5.2451C45.8573 5.24377 45.8784 5.26527 45.8796 5.29319C45.8855 5.43181 45.8863 5.5722 45.8818 5.71054C45.8813 5.7252 45.8753 5.73818 45.8662 5.74705ZM45.7941 4.66776C45.7883 4.67335 45.7812 4.67739 45.7731 4.6791C45.7488 4.68427 45.7253 4.66623 45.7207 4.63877C45.6982 4.50517 45.6705 4.37122 45.6383 4.24066C45.6316 4.21373 45.6456 4.18581 45.6695 4.17835C45.6934 4.17084 45.7182 4.1866 45.7248 4.21353C45.7577 4.34685 45.786 4.4836 45.8089 4.61999C45.812 4.6384 45.8058 4.65637 45.7941 4.66776ZM45.512 3.63297C45.5086 3.63621 45.5048 3.63895 45.5006 3.64103C45.4778 3.65215 45.4514 3.6404 45.4415 3.61478C45.3935 3.49021 45.3401 3.36647 45.2829 3.24705C45.2711 3.22243 45.2792 3.19188 45.3011 3.17849C45.3229 3.16523 45.3502 3.17437 45.362 3.19898C45.4204 3.32095 45.4749 3.44727 45.5239 3.57445C45.5319 3.59527 45.5265 3.6189 45.512 3.63297ZM45.033 2.69438C45.0321 2.69522 45.0312 2.69603 45.0303 2.6968C45.0103 2.71337 44.9822 2.70854 44.9674 2.68601C44.9044 2.58943 44.8372 2.49444 44.768 2.40371C44.7587 2.39161 44.7494 2.37951 44.74 2.36753C44.7237 2.34651 44.7255 2.31455 44.7441 2.29612C44.7443 2.29599 44.7444 2.29588 44.7445 2.29577C44.7631 2.27771 44.7913 2.27986 44.8075 2.30073C44.8171 2.31302 44.8266 2.32532 44.8361 2.33772C44.9068 2.4304 44.9754 2.52741 45.0398 2.62605C45.0538 2.64753 45.0506 2.67729 45.033 2.69438ZM44.3798 1.90038C44.3633 1.91642 44.3384 1.91686 44.3213 1.90032C44.2302 1.81193 44.1343 1.72665 44.0364 1.6469C44.0163 1.63053 44.0118 1.59888 44.0264 1.57624C44.0411 1.55369 44.069 1.54852 44.0891 1.56489C44.189 1.64635 44.2869 1.73338 44.3799 1.82361C44.3987 1.84187 44.4008 1.8738 44.3847 1.89501C44.3831 1.89692 44.3815 1.89874 44.3798 1.90038ZM43.5866 1.28903C43.573 1.30222 43.5531 1.30544 43.5363 1.29534C43.4295 1.23137 43.3194 1.17197 43.2089 1.11872C43.1861 1.10776 43.1755 1.07802 43.1853 1.05233C43.1951 1.02663 43.2214 1.01466 43.2442 1.02571C43.3571 1.08004 43.4695 1.14068 43.5784 1.20599C43.6003 1.21912 43.6086 1.24978 43.597 1.27443C43.5943 1.28015 43.5908 1.28502 43.5866 1.28903Z" fill="#B4B4B4"/>
<path d="M43.6235 9.81924C43.6211 9.82156 43.6184 9.82364 43.6155 9.82542C43.5619 9.85816 43.5077 9.88965 43.4543 9.91906C43.432 9.93134 43.4051 9.92095 43.3942 9.89588C43.3833 9.87076 43.3927 9.84054 43.4148 9.82816C43.4671 9.79938 43.5202 9.76848 43.5727 9.73639C43.5946 9.72309 43.6218 9.73225 43.6336 9.7568C43.6439 9.77812 43.6391 9.80403 43.6235 9.81924Z" fill="#B4B4B4"/>
<path d="M40.2716 10.1815C40.2602 10.1926 40.2441 10.197 40.2287 10.1915C40.1717 10.1711 40.1138 10.1489 40.0569 10.1255C40.0336 10.1159 40.0216 10.0868 40.0301 10.0606C40.0386 10.0343 40.0644 10.0209 40.0876 10.0304C40.1434 10.0533 40.2 10.075 40.2559 10.095C40.2795 10.1035 40.2926 10.1319 40.2851 10.1585C40.2825 10.1678 40.2777 10.1757 40.2716 10.1815Z" fill="#B4B4B4"/>
<path d="M39.5657 9.84805C39.5521 9.86122 39.5322 9.86444 39.5154 9.85443C39.4086 9.79087 39.3027 9.72126 39.2004 9.64756C39.1795 9.63248 39.1734 9.60118 39.1868 9.57767C39.2003 9.55431 39.2279 9.54725 39.2488 9.56233C39.349 9.63454 39.4528 9.70275 39.5573 9.76501C39.5793 9.77805 39.5876 9.80867 39.5761 9.83336C39.5733 9.83911 39.5698 9.84404 39.5657 9.84805ZM38.7826 9.25081C38.7661 9.26677 38.7413 9.26731 38.7242 9.25094C38.6318 9.16249 38.5418 9.06862 38.4565 8.97201C38.4391 8.9522 38.4392 8.92016 38.4568 8.90048C38.4746 8.88049 38.5028 8.88086 38.5203 8.90072C38.6037 8.99529 38.6919 9.08721 38.7824 9.17384C38.8013 9.1919 38.8036 9.22388 38.7876 9.24518C38.786 9.24722 38.7843 9.2491 38.7826 9.25081ZM38.1341 8.47533C38.1334 8.47605 38.1326 8.47675 38.1318 8.47745C38.112 8.49424 38.0838 8.48973 38.0689 8.46741C37.9962 8.35847 37.9267 8.24462 37.8624 8.12899C37.8492 8.10529 37.8556 8.07408 37.8766 8.05923C37.8976 8.04437 37.9253 8.05153 37.9385 8.0752C38.0015 8.18847 38.0695 8.29993 38.1407 8.40658C38.155 8.42805 38.1519 8.4581 38.1341 8.47533ZM37.653 7.55831C37.6498 7.5614 37.6462 7.56405 37.6421 7.56609C37.6195 7.57755 37.5929 7.56624 37.5827 7.54073C37.533 7.41647 37.4873 7.28824 37.447 7.15954C37.4388 7.1332 37.451 7.10423 37.4744 7.095C37.4978 7.08569 37.5235 7.09949 37.5317 7.12584C37.5712 7.25188 37.6159 7.37748 37.6646 7.49918C37.673 7.52011 37.6677 7.54409 37.653 7.55831ZM37.3614 6.54517C37.3558 6.55058 37.349 6.55455 37.3412 6.5563C37.3169 6.56198 37.2932 6.5444 37.2881 6.517C37.2636 6.38347 37.2438 6.24715 37.2293 6.11173C37.2263 6.08398 37.2438 6.05882 37.2685 6.05543C37.2931 6.05207 37.3155 6.07184 37.3185 6.09959C37.3327 6.2322 37.3521 6.36572 37.3761 6.49651C37.3796 6.51518 37.3734 6.53355 37.3614 6.54517ZM37.2724 5.48488C37.2644 5.49266 37.2539 5.49731 37.2425 5.49711C37.2176 5.49665 37.1979 5.47364 37.1982 5.44569C37.2001 5.30922 37.2072 5.17135 37.2193 5.0358C37.2218 5.00807 37.2438 4.98771 37.2684 4.99049C37.2931 4.9933 37.3111 5.01809 37.3087 5.04588C37.2969 5.17858 37.2899 5.31363 37.2881 5.44729C37.2879 5.46235 37.2818 5.47578 37.2724 5.48488ZM37.3914 4.42872C37.3808 4.43897 37.3662 4.44353 37.3515 4.43959C37.3274 4.43303 37.3126 4.40568 37.3184 4.37853C37.3469 4.24585 37.3806 4.11301 37.4189 3.98369C37.4268 3.95725 37.4522 3.94288 37.4757 3.95167C37.4992 3.96052 37.5119 3.98914 37.5041 4.01568C37.4667 4.14227 37.4336 4.27234 37.4057 4.40224C37.4034 4.41296 37.3983 4.42203 37.3914 4.42872ZM37.7137 3.4276C37.7004 3.44045 37.6811 3.44387 37.6645 3.43464C37.6422 3.42224 37.6331 3.39192 37.6441 3.36687C37.6975 3.24498 37.7563 3.12376 37.8189 3.00659C37.8316 2.98244 37.8593 2.97493 37.8806 2.9893C37.9018 3.00372 37.9087 3.0348 37.8959 3.05873C37.8346 3.17353 37.7769 3.29223 37.7246 3.41163C37.7219 3.41794 37.7181 3.42331 37.7137 3.4276ZM38.2219 2.52952C38.2059 2.54513 38.1817 2.54609 38.1645 2.53057C38.1452 2.51306 38.1422 2.48124 38.1577 2.45943C38.2337 2.35277 38.3145 2.24875 38.3977 2.15028C38.4151 2.13025 38.4433 2.12927 38.4612 2.14851C38.4792 2.1678 38.4799 2.19984 38.4628 2.22004C38.3813 2.31647 38.3022 2.41832 38.2277 2.52282C38.226 2.52531 38.224 2.52753 38.2219 2.52952ZM39.1832 1.53788C39.1818 1.53924 39.1804 1.54051 39.1788 1.54165C39.0801 1.61583 38.983 1.69559 38.8904 1.77876C38.871 1.79618 38.8428 1.79259 38.8273 1.77074C38.8118 1.74884 38.8144 1.717 38.8344 1.69962C38.929 1.61467 39.0281 1.53321 39.129 1.45747C39.1496 1.44197 39.1775 1.44822 39.1913 1.47149C39.204 1.49302 39.2002 1.52149 39.1832 1.53788Z" fill="#B4B4B4"/>
<path d="M39.8575 1.12448C39.8542 1.12772 39.8504 1.13046 39.8461 1.13254C39.7915 1.15921 39.7372 1.18727 39.6846 1.216C39.6623 1.22818 39.6355 1.21764 39.6246 1.19253C39.6138 1.16734 39.623 1.13712 39.6455 1.12489C39.6992 1.09559 39.7547 1.06692 39.8104 1.03968C39.8331 1.02857 39.8596 1.04032 39.8694 1.06594C39.8775 1.08685 39.8721 1.11041 39.8575 1.12448Z" fill="#B4B4B4"/>
<path d="M40.6173 1.95614C40.5956 1.9605 40.5788 1.97985 40.5754 2.00433L40.4782 2.70304C40.209 2.83371 39.9562 3.01366 39.7318 3.24085L39.1282 3.04781C39.1071 3.04104 39.0844 3.05015 39.0718 3.07047L38.6412 3.76637C38.6286 3.78673 38.6289 3.81382 38.6418 3.83383L39.0115 4.4049C38.8999 4.72072 38.8375 5.05007 38.8218 5.37989L38.2735 5.72435C38.2543 5.73642 38.244 5.7609 38.2479 5.7853L38.3802 6.62039C38.3841 6.64483 38.4013 6.66377 38.423 6.6676L39.0433 6.77705C39.1593 7.08037 39.3191 7.36504 39.5207 7.61787L39.3493 8.29777C39.3433 8.32162 39.3514 8.34713 39.3694 8.36131L39.9872 8.84638C40.0053 8.86056 40.0293 8.86028 40.0471 8.84566L40.5541 8.42927C40.8344 8.55492 41.1268 8.62527 41.4196 8.64289L41.7254 9.26055C41.7361 9.28218 41.7578 9.2938 41.7795 9.28944L42.5208 9.14034C42.5425 9.13598 42.5593 9.11663 42.5627 9.09213L42.6599 8.39344C42.9292 8.26279 43.1819 8.0828 43.4063 7.85566L44.0099 8.04872C44.031 8.05549 44.0537 8.04637 44.0663 8.02606L44.4969 7.33011C44.5095 7.30979 44.5092 7.28268 44.4963 7.26265L44.1266 6.69158C44.2381 6.37576 44.3006 6.04639 44.3162 5.71659L44.8646 5.37213C44.8838 5.36008 44.8941 5.33558 44.8902 5.31116L44.7579 4.47607C44.754 4.45167 44.7368 4.43269 44.7151 4.42886L44.0948 4.31941C43.9788 4.01609 43.8191 3.73142 43.6174 3.47859L43.7888 2.79869C43.7948 2.77486 43.7867 2.74933 43.7687 2.73517L43.1509 2.2501C43.1328 2.23592 43.1088 2.23621 43.091 2.2508L42.584 2.66719C42.3037 2.54157 42.0113 2.47121 41.7185 2.45357L41.4127 1.83591C41.402 1.81425 41.3803 1.80264 41.3586 1.807L40.6173 1.95614Z" fill="#B4B4B4"/>
<path d="M42.0503 6.17644C41.9974 6.22775 41.9376 6.27072 41.8722 6.30399C41.693 6.3951 41.4931 6.40216 41.3092 6.32381C41.1253 6.24552 40.9795 6.09123 40.8986 5.88934C40.8177 5.68745 40.8114 5.46221 40.881 5.25506C40.9505 5.04793 41.0874 4.88363 41.2667 4.7925C41.4459 4.70139 41.6458 4.69436 41.8297 4.77271C42.0136 4.85099 42.1595 5.00528 42.2403 5.20718C42.3212 5.40905 42.3275 5.6343 42.2579 5.84145C42.2138 5.97299 42.1424 6.08724 42.0503 6.17644ZM41.1766 5.03509C41.1013 5.10796 41.0431 5.2013 41.007 5.3088C40.9502 5.47802 40.9553 5.66202 41.0214 5.82694C41.0875 5.99184 41.2066 6.1179 41.3568 6.18188C41.5071 6.24585 41.6704 6.24009 41.8168 6.16566C41.9632 6.0913 42.0751 5.95708 42.1319 5.78778C42.1887 5.61856 42.1836 5.43456 42.1175 5.26964C42.0514 5.10474 41.9323 4.97868 41.7821 4.9147C41.6318 4.85073 41.4685 4.85645 41.3221 4.93088C41.2686 4.95805 41.2198 4.99318 41.1766 5.03509Z" fill="#D0D0D0"/>
<path d="M42.8025 7.17501C42.1662 7.79152 41.2154 7.87217 40.4957 7.30713C40.3629 7.20287 40.2458 7.08268 40.1447 6.95042C39.5973 6.23363 39.5257 5.16243 40.0273 4.35168C40.0363 4.33713 40.0455 4.32269 40.0549 4.30835C40.1178 4.21186 40.1877 4.12149 40.2634 4.03891C40.2723 4.02925 40.2812 4.01969 40.2902 4.01027L40.382 4.12138C40.2915 4.21624 40.2094 4.32295 40.1379 4.43851C40.1372 4.43959 40.1365 4.44068 40.1358 4.44178C39.5866 5.33316 39.7823 6.56189 40.5728 7.18258C41.3643 7.80401 42.4569 7.58426 43.0088 6.69264C43.4745 5.93993 43.408 4.9453 42.8997 4.27977C42.8059 4.15695 42.6971 4.04538 42.5739 3.94858C42.3136 3.74427 42.0097 3.62336 41.695 3.59899L41.7043 3.44757C42.0433 3.47383 42.3706 3.60399 42.6509 3.82403C42.7837 3.9283 42.9009 4.04847 43.0019 4.18076C43.5493 4.89755 43.6209 5.96875 43.1193 6.77947C43.0267 6.92912 42.92 7.06125 42.8025 7.17501Z" fill="#D0D0D0"/>
<path d="M3.71553 52.1361C3.71553 52.6604 4.09669 53.0893 4.56255 53.0893H50.3656C50.8314 53.0893 51.2126 52.6604 51.2126 52.1361L51.5937 22.4853C51.5937 21.9611 51.0454 20.9376 50.0405 21.0145L5.27671 19.7097C4.69218 19.6927 4.12704 19.9461 3.71312 20.4109C3.2992 20.8756 3.07272 21.511 3.08653 22.1689L3.71553 52.1361Z" fill="#A5A5A5"/>
<path d="M4.55158 51.2215C4.55158 51.718 4.91217 52.1242 5.35292 52.1242H49.2609C49.7016 52.1242 50.0622 51.718 50.0622 51.2215L50.4218 24.3042C50.3795 22.6844 49.1188 22.1023 48.3546 22.1366L5.45259 20.8401C5.04194 20.8276 4.64491 21.0059 4.35407 21.3327C4.06323 21.6595 3.90326 22.1067 3.91355 22.5693L4.55158 51.2215Z" fill="#F4F4F4"/>
<path d="M49.5882 38.4339C49.5876 38.4339 49.587 38.4339 49.587 38.4339C49.5215 38.4329 49.4697 38.3728 49.4707 38.2996L49.4991 36.1167C49.5001 36.0443 49.5525 35.9864 49.6165 35.9864C49.6171 35.9864 49.6176 35.9864 49.6182 35.9864C49.6831 35.9874 49.7349 36.0475 49.7339 36.1206L49.7055 38.3036C49.7046 38.376 49.6522 38.4339 49.5882 38.4339Z" fill="#D0D0D0"/>
<path d="M49.6578 33.0845C49.6572 33.0845 49.6566 33.0845 49.656 33.0845C49.5912 33.0835 49.5393 33.0233 49.5403 32.9503L49.6493 24.5895C49.6472 24.0929 49.5134 23.6964 49.2515 23.4137C48.7626 22.886 47.9864 22.913 47.9537 22.9147L34.2412 22.5005C34.1764 22.4986 34.1252 22.4378 34.127 22.3647C34.1287 22.2917 34.1785 22.2295 34.2476 22.2361L47.9518 22.6503C48.0371 22.6447 48.8636 22.6286 49.414 23.2226C49.7236 23.5568 49.8818 24.0173 49.8841 24.5908L49.7751 32.9542C49.7742 33.0266 49.7218 33.0845 49.6578 33.0845Z" fill="#D0D0D0"/>
<path d="M0.110002 55.5506H53.89C53.9505 55.5506 54 55.4948 54 55.4267V53.0693C54 53.0011 53.9505 52.9453 53.89 52.9453H0.110002C0.0495143 52.9453 0 53.0011 0 53.0693V55.4267C0 55.4948 0.0494948 55.5506 0.110002 55.5506Z" fill="#A5A5A5"/>
<path d="M13.4414 9.74521C13.4414 7.92978 14.7479 6.45808 16.3595 6.45808H41.1749C42.5439 6.45808 43.6728 7.66665 43.7424 9.20686L45.5741 49.7347C45.6286 50.94 44.7863 51.9566 43.7152 51.9786L15.2737 52.5609C14.2672 52.5815 13.4414 51.6681 13.4414 50.5341V9.74521H13.4414Z" fill="url(#paint0_linear_426_1422)"/>
<path d="M19.4306 51.8719H19.4297L16.2473 51.8256C15.1831 51.81 14.3174 50.8221 14.3174 49.6233V44.2107C14.3174 44.1684 14.3478 44.1342 14.3853 44.1342C14.4229 44.1342 14.4533 44.1684 14.4533 44.2107V49.6233C14.4533 50.7388 15.2588 51.658 16.249 51.6725L19.4314 51.7189C19.4689 51.7194 19.499 51.7541 19.4985 51.7963C19.498 51.8382 19.4677 51.8719 19.4306 51.8719Z" fill="#B4B4B4"/>
<path d="M14.3853 42.6107C14.3478 42.6107 14.3174 42.5764 14.3174 42.5341V41.6576C14.3174 41.6153 14.3478 41.5811 14.3853 41.5811C14.4229 41.5811 14.4533 41.6153 14.4533 41.6576V42.5341C14.4533 42.5764 14.4228 42.6107 14.3853 42.6107Z" fill="#B4B4B4"/>
<path d="M15.4746 7.08192C15.4716 6.5011 15.925 6.05156 16.436 6.1296C19.8248 6.64726 31.4778 8.24833 41.1124 7.4152C41.5518 7.3772 41.9331 7.75221 41.9565 8.24791L43.8772 48.9564C43.9035 49.5146 43.5251 49.9919 43.0298 50.025C38.9776 50.2951 22.2897 51.3393 16.3373 50.637C15.975 50.5943 15.7001 50.2507 15.6979 49.8404L15.4746 7.08192Z" fill="#9D9D9D"/>
<path d="M15.874 8.10203C15.8711 7.54307 16.3075 7.11045 16.7992 7.18558C20.0604 7.68375 31.2746 9.22453 40.5464 8.42275C40.9693 8.38619 41.3362 8.74706 41.3587 9.22411L43.207 48.3998C43.2324 48.9369 42.8683 49.3963 42.3916 49.428C38.492 49.688 22.4324 50.6929 16.7042 50.0171C16.3556 49.9759 16.091 49.6453 16.0889 49.2504L15.874 8.10203Z" fill="#D0D0D0"/>
<path opacity="0.78" d="M18.8922 11.1224L19.2385 19.5213C19.25 19.8006 19.4504 20.0227 19.6985 20.0306C21.0793 20.0745 25.3821 20.1927 27.8116 20.05C28.0864 20.0339 28.3038 19.7834 28.3129 19.4736C28.3592 17.8985 28.4606 13.3141 28.142 11.3976C28.0905 11.088 27.8543 10.8612 27.5749 10.8502L19.4132 10.5287C19.1189 10.5171 18.8785 10.791 18.8922 11.1224Z" fill="white"/>
<g opacity="0.6">
<path d="M39.3119 11.8535C39.4718 11.8535 39.5993 11.7268 39.5953 11.5718C39.5913 11.4168 39.4572 11.2874 39.2973 11.2842L30.3474 11.1045C30.1875 11.1013 30.1001 11.2377 30.1533 11.4076L30.1961 11.5446C30.2492 11.7145 30.4235 11.8535 30.5834 11.8535H39.3119Z" fill="white"/>
</g>
<g opacity="0.6">
<path d="M30.3474 12.6703C30.1875 12.6671 30.1001 12.8035 30.1533 12.9734L30.1961 13.1104C30.2492 13.2803 30.4235 13.4193 30.5834 13.4193H39.3118C39.4718 13.4193 39.5993 13.2925 39.5953 13.1376C39.5913 12.9826 39.4572 12.8532 39.2973 12.85L30.3474 12.6703Z" fill="white"/>
</g>
<g opacity="0.6">
<path d="M30.3474 14.2588C30.1875 14.2556 30.1001 14.392 30.1533 14.5619L30.1961 14.6989C30.2492 14.8688 30.4235 15.0078 30.5834 15.0078H39.3118C39.4718 15.0078 39.5993 14.881 39.5953 14.7261C39.5913 14.5711 39.4572 14.4417 39.2973 14.4385L30.3474 14.2588Z" fill="white"/>
</g>
<g opacity="0.6">
<path d="M40.181 22.6683C40.3409 22.6683 40.4643 22.5415 40.4552 22.3865C40.4462 22.2316 40.3079 22.1036 40.148 22.1022L19.1807 21.916C19.0208 21.9146 18.9714 22.0287 19.071 22.1697L19.2424 22.412C19.342 22.553 19.5543 22.6683 19.7142 22.6683H40.181V22.6683Z" fill="white"/>
</g>
<g opacity="0.6">
<path d="M19.1807 23.9247C19.0208 23.9233 18.9714 24.0374 19.071 24.1784L19.2424 24.4207C19.342 24.5616 19.5543 24.6769 19.7142 24.6769H40.181C40.3409 24.6769 40.4643 24.5502 40.4552 24.3952C40.4462 24.2402 40.3079 24.1123 40.148 24.1108L19.1807 23.9247Z" fill="white"/>
</g>
<path d="M21.7922 34.1592C21.7906 34.1592 21.789 34.1592 21.7874 34.1592L20.0178 34.14C19.7649 34.1373 19.5562 33.9413 19.5323 33.6843L19.3767 32.0117C19.3676 31.9135 19.3947 31.8165 19.4529 31.7384C19.5182 31.651 19.6169 31.5962 19.7237 31.5879C19.8728 31.5764 20.0828 31.5563 20.305 31.535C20.7731 31.49 21.3556 31.4342 21.6833 31.4296C21.9211 31.4282 22.1228 31.5868 22.1788 31.82C22.271 32.204 22.2629 32.9307 22.2454 33.705C22.2397 33.9565 22.0369 34.1592 21.7922 34.1592ZM19.733 31.7406C19.6627 31.746 19.5986 31.7811 19.557 31.8369C19.5226 31.8829 19.5066 31.9393 19.5119 31.9957L19.6674 33.6683C19.6842 33.848 19.8353 33.985 20.0191 33.987L21.7887 34.0061C21.7899 34.0061 21.7911 34.0061 21.7922 34.0061C21.9637 34.0061 22.1057 33.87 22.1096 33.7011C22.1268 32.9386 22.1351 32.2241 22.0477 31.8599C22.0085 31.6968 21.8578 31.5833 21.685 31.5827C21.3622 31.5872 20.7824 31.6428 20.3166 31.6875C20.0937 31.7089 19.8832 31.7291 19.733 31.7406Z" fill="white"/>
<path opacity="0.6" d="M19.9234 31.9133C20.2952 31.8846 21.1032 31.7922 21.4864 31.7868C21.6487 31.7846 21.7911 31.8951 21.8292 32.0537C21.9032 32.3617 21.8934 32.9757 21.8805 33.5425C21.8767 33.7122 21.7383 33.8477 21.5694 33.8458L20.1552 33.8305C19.9813 33.8287 19.8369 33.6951 19.8207 33.5211L19.6964 32.1846C19.6835 32.0463 19.7856 31.9239 19.9234 31.9133Z" fill="white"/>
<g opacity="0.6">
<path d="M23.3468 33.0486C23.398 33.2674 23.5745 33.4192 23.7754 33.4173L40.1486 33.26C40.3339 33.2583 40.482 33.0862 40.478 32.8776C40.4741 32.6748 40.3274 32.5124 40.1473 32.5115L23.7737 32.4274C23.4846 32.4259 23.2731 32.7338 23.3468 33.0486Z" fill="white"/>
</g>
<path d="M21.7922 38.4316C21.7906 38.4316 21.789 38.4316 21.7874 38.4316L20.0178 38.4125C19.7649 38.4097 19.5562 38.2137 19.5323 37.9567L19.3767 36.2841C19.3676 36.1859 19.3947 36.0889 19.4529 36.0108C19.5182 35.9234 19.6169 35.8686 19.7237 35.8603C19.8728 35.8489 20.0828 35.8287 20.305 35.8074C20.7731 35.7625 21.3556 35.7066 21.6833 35.702C21.6857 35.702 21.6881 35.7019 21.6904 35.7019C21.9231 35.7019 22.1233 35.8616 22.1788 36.0924C22.271 36.4764 22.2629 37.2032 22.2454 37.9774C22.2397 38.2289 22.0369 38.4316 21.7922 38.4316ZM19.733 36.0131C19.6627 36.0185 19.5986 36.0536 19.557 36.1093C19.5226 36.1553 19.5066 36.2117 19.5119 36.2682L19.6674 37.9407C19.6842 38.1204 19.8353 38.2574 20.0191 38.2594L21.7887 38.2786C21.7899 38.2786 21.7911 38.2786 21.7922 38.2786C21.9637 38.2786 22.1057 38.1425 22.1096 37.9736C22.1268 37.211 22.1351 36.4965 22.0477 36.1324C22.0085 35.9693 21.8556 35.852 21.685 35.8551C21.3622 35.8597 20.7824 35.9153 20.3166 35.96C20.0937 35.9813 19.8832 36.0015 19.733 36.0131Z" fill="white"/>
<path opacity="0.6" d="M19.9234 36.1858C20.2952 36.1572 21.1032 36.0648 21.4864 36.0594C21.6487 36.0571 21.7911 36.1676 21.8292 36.3262C21.9032 36.6343 21.8934 37.2483 21.8805 37.815C21.8767 37.9847 21.7383 38.1202 21.5694 38.1184L20.1552 38.1031C19.9813 38.1012 19.8369 37.9676 19.8207 37.7937L19.6964 36.4571C19.6835 36.3188 19.7856 36.1964 19.9234 36.1858Z" fill="white"/>
<g opacity="0.6">
<path d="M23.3468 37.3211C23.398 37.54 23.5745 37.6918 23.7754 37.6898L40.1486 37.5326C40.3339 37.5308 40.482 37.3587 40.478 37.1501C40.4741 36.9473 40.3274 36.785 40.1473 36.784L23.7737 36.6999C23.4846 36.6984 23.2731 37.0063 23.3468 37.3211Z" fill="white"/>
</g>
<path d="M21.7922 42.7039C21.7906 42.7039 21.789 42.7039 21.7874 42.7039L20.0178 42.6848C19.7649 42.6821 19.5562 42.4862 19.5323 42.2291L19.3767 40.5566C19.3676 40.4584 19.3947 40.3613 19.453 40.2832C19.5182 40.1958 19.6168 40.1409 19.7237 40.1326C19.8728 40.1212 20.0828 40.101 20.305 40.0797C20.7731 40.0348 21.3556 39.979 21.6833 39.9743C21.6857 39.9743 21.6881 39.9743 21.6904 39.9743C21.9231 39.9743 22.1233 40.1339 22.1788 40.3648C22.271 40.7487 22.2629 41.4755 22.2454 42.2498C22.2397 42.5012 22.0369 42.7039 21.7922 42.7039ZM19.733 40.2854C19.6627 40.2908 19.5986 40.3259 19.557 40.3817C19.5226 40.4276 19.5066 40.4841 19.5119 40.5406L19.6674 42.2131C19.6842 42.3928 19.8353 42.5298 20.0191 42.5317L21.7887 42.5508C21.7899 42.5508 21.7911 42.5508 21.7922 42.5508C21.9637 42.5508 22.1057 42.4147 22.1096 42.2458C22.1268 41.4833 22.1351 40.7688 22.0477 40.4047C22.0085 40.2416 21.8556 40.1237 21.685 40.1274C21.3622 40.1319 20.7824 40.1875 20.3166 40.2323C20.0937 40.2536 19.8832 40.2738 19.733 40.2854Z" fill="white"/>
<path opacity="0.6" d="M19.9234 40.4581C20.2952 40.4295 21.1032 40.3371 21.4864 40.3317C21.6487 40.3294 21.7911 40.4399 21.8292 40.5985C21.9032 40.9066 21.8934 41.5206 21.8805 42.0873C21.8767 42.2571 21.7383 42.3925 21.5694 42.3907L20.1552 42.3754C19.9813 42.3735 19.8369 42.24 19.8207 42.066L19.6964 40.7294C19.6835 40.5912 19.7856 40.4687 19.9234 40.4581Z" fill="white"/>
<g opacity="0.6">
<path d="M23.3468 41.5935C23.398 41.8123 23.5745 41.9641 23.7754 41.9622L40.1486 41.8049C40.3339 41.8032 40.482 41.6311 40.478 41.4225C40.4741 41.2197 40.3274 41.0573 40.1473 41.0564L23.7737 40.9723C23.4846 40.9708 23.2731 41.2786 23.3468 41.5935Z" fill="white"/>
</g>
<path d="M21.7922 46.9765C21.7906 46.9765 21.789 46.9765 21.7874 46.9765L20.0178 46.9573C19.7649 46.9546 19.5562 46.7587 19.5323 46.5016L19.3767 44.8291C19.3676 44.7309 19.3947 44.6338 19.453 44.5557C19.5182 44.4683 19.6168 44.4134 19.7237 44.4052C19.8728 44.3937 20.0828 44.3735 20.305 44.3523C20.7731 44.3073 21.3556 44.2515 21.6833 44.2469C21.6857 44.2469 21.6881 44.2468 21.6904 44.2468C21.9231 44.2468 22.1233 44.4064 22.1788 44.6373C22.271 45.0213 22.2629 45.748 22.2454 46.5223C22.2397 46.7738 22.0369 46.9765 21.7922 46.9765ZM19.733 44.5579C19.6627 44.5633 19.5986 44.5984 19.557 44.6542C19.5226 44.7002 19.5066 44.7566 19.5119 44.8131L19.6674 46.4856C19.6842 46.6653 19.8353 46.8023 20.0191 46.8043L21.7887 46.8234C21.7899 46.8234 21.7911 46.8234 21.7922 46.8234C21.9637 46.8234 22.1057 46.6873 22.1096 46.5184C22.1268 45.7559 22.1351 45.0414 22.0477 44.6772C22.0085 44.5141 21.8556 44.3958 21.685 44.3999C21.3622 44.4045 20.7824 44.4601 20.3166 44.5048C20.0937 44.5262 19.8832 44.5463 19.733 44.5579Z" fill="white"/>
<path opacity="0.6" d="M19.9234 44.7305C20.2952 44.7019 21.1032 44.6094 21.4864 44.6041C21.6487 44.6018 21.7911 44.7123 21.8292 44.8709C21.9032 45.179 21.8934 45.793 21.8805 46.3597C21.8767 46.5294 21.7383 46.6649 21.5694 46.6631L20.1552 46.6478C19.9813 46.6459 19.8369 46.5123 19.8207 46.3384L19.6964 45.0018C19.6835 44.8635 19.7856 44.7411 19.9234 44.7305Z" fill="white"/>
<g opacity="0.6">
<path d="M23.3468 45.8658C23.398 46.0847 23.5745 46.2365 23.7754 46.2345L40.1486 46.0773C40.3339 46.0755 40.482 45.9034 40.478 45.6948C40.4741 45.492 40.3274 45.3297 40.1473 45.3287L23.7737 45.2446C23.4846 45.2432 23.2731 45.551 23.3468 45.8658Z" fill="white"/>
</g>
<path d="M21.636 30.4417C21.6344 30.4417 21.6327 30.4417 21.6311 30.4417L19.8615 30.4226C19.6087 30.4199 19.4 30.224 19.376 29.9669L19.2205 28.2944C19.2114 28.1962 19.2384 28.0991 19.2967 28.021C19.3619 27.9336 19.4606 27.8787 19.5675 27.8705C19.7165 27.859 19.9265 27.8388 20.1488 27.8175C20.6168 27.7726 21.1993 27.7168 21.527 27.7121C21.5294 27.7121 21.5318 27.7121 21.5342 27.7121C21.7669 27.7121 21.9671 27.8717 22.0226 28.1026C22.1148 28.4865 22.1066 29.2133 22.0891 29.9876C22.0835 30.239 21.8806 30.4417 21.636 30.4417ZM19.5767 28.0232C19.5065 28.0286 19.4423 28.0637 19.4007 28.1195C19.3664 28.1654 19.3504 28.2219 19.3556 28.2784L19.5112 29.9509C19.5279 30.1306 19.6791 30.2676 19.8628 30.2696L21.6325 30.2887C21.6336 30.2887 21.6348 30.2887 21.636 30.2887C21.8075 30.2887 21.9495 30.1526 21.9533 29.9837C21.9706 29.2212 21.9788 28.5067 21.8914 28.1425C21.8522 27.9794 21.6994 27.861 21.5287 27.8652C21.2059 27.8698 20.6261 27.9254 20.1603 27.9701C19.9374 27.9914 19.7269 28.0116 19.5767 28.0232Z" fill="white"/>
<path opacity="0.6" d="M19.7672 28.1958C20.1389 28.1672 20.9469 28.0748 21.3301 28.0694C21.4925 28.0672 21.6349 28.1777 21.673 28.3363C21.7469 28.6443 21.7371 29.2583 21.7243 29.8251C21.7204 29.9948 21.5821 30.1303 21.4131 30.1284L19.999 30.1131C19.8251 30.1113 19.6807 29.9777 19.6645 29.8037L19.5402 28.4671C19.5273 28.3289 19.6294 28.2065 19.7672 28.1958Z" fill="white"/>
<g opacity="0.6">
<path d="M23.1906 29.3312C23.2418 29.55 23.4183 29.7018 23.6192 29.6999L39.9924 29.5427C40.1776 29.5409 40.3258 29.3688 40.3217 29.1602C40.3178 28.9574 40.1711 28.795 39.9911 28.7941L23.6174 28.71C23.3284 28.7085 23.1168 29.0164 23.1906 29.3312Z" fill="white"/>
</g>
<path d="M30.3062 0.932331C29.4098 0.229873 28.6304 0.243789 28.0817 0.426154C27.5812 0.59252 27.2568 1.13685 27.3044 1.72223L27.541 4.6315L30.3567 4.91297C30.3567 4.91297 32.0641 2.30994 30.3062 0.932331ZM29.0679 3.2794C28.6802 3.2794 28.3659 2.92535 28.3659 2.48856C28.3659 2.05177 28.6802 1.69769 29.0679 1.69769C29.4557 1.69769 29.77 2.05177 29.77 2.48856C29.77 2.92535 29.4557 3.2794 29.0679 3.2794Z" fill="#A5A5A5"/>
<path d="M27.8229 3.40762C27.7882 3.40762 27.7585 3.37779 27.7553 3.33804L27.7176 2.87473C27.7142 2.83265 27.7417 2.79544 27.7791 2.79154C27.8172 2.7875 27.8495 2.81867 27.8529 2.86084L27.8906 3.32414C27.894 3.36622 27.8665 3.40344 27.8292 3.40734C27.827 3.40756 27.8249 3.40762 27.8229 3.40762ZM27.749 2.49968C27.7143 2.49968 27.6847 2.46985 27.6815 2.43009L27.6528 2.07836C27.6074 1.52072 27.919 1.00148 28.3935 0.84371C28.7295 0.731981 29.0758 0.715982 29.4225 0.796108C29.4592 0.804546 29.4829 0.845068 29.4754 0.886468C29.4679 0.927802 29.4323 0.954255 29.3952 0.946037C29.0704 0.871149 28.7464 0.886008 28.4319 0.990505C28.0194 1.12766 27.7487 1.57931 27.7881 2.06446L27.8167 2.4162C27.8202 2.45828 27.7926 2.49551 27.7553 2.49939C27.7532 2.49959 27.7511 2.49968 27.749 2.49968Z" fill="#B4B4B4"/>
<path d="M23.6982 6.51168V5.04899C23.6982 4.54406 24.0697 4.13966 24.5177 4.15695L33.4701 4.50246C33.8674 4.51778 34.1891 4.87105 34.2129 5.31807L34.2877 6.72352L23.6982 6.51168Z" fill="#A5A5A5"/>
<path d="M27.0369 4.70805H26.6519C26.6144 4.70805 26.584 4.67382 26.584 4.63152C26.584 4.5892 26.6144 4.55499 26.6519 4.55499H27.0369C27.0744 4.55499 27.1048 4.58923 27.1048 4.63152C27.1048 4.67382 27.0744 4.70805 27.0369 4.70805Z" fill="#B4B4B4"/>
<path d="M24.1832 6.05233C24.1457 6.05233 24.1152 6.0181 24.1152 5.9758V5.38408C24.1152 4.92689 24.4454 4.55499 24.8513 4.55499H26.2667C26.3042 4.55499 26.3346 4.58923 26.3346 4.63152C26.3346 4.67382 26.3042 4.70806 26.2667 4.70806H24.8513C24.5204 4.70806 24.2511 5.01135 24.2511 5.38408V5.9758C24.2511 6.0181 24.2207 6.05233 24.1832 6.05233Z" fill="#B4B4B4"/>
<path d="M20.0509 6.88091C20.0725 6.37441 20.4434 5.97626 20.8935 5.97624L36.5484 5.97575C37.1113 5.97573 37.5926 6.43205 37.6886 7.05686L37.7018 7.14308C37.807 7.82746 37.3393 8.45338 36.7227 8.45338H20.6617C20.2927 8.45338 19.9987 8.10583 20.0164 7.69065L20.0509 6.88091Z" fill="url(#paint1_linear_426_1422)"/>
<path d="M21.9457 16.813V16.4548C21.9457 16.1273 21.9903 15.8416 22.0797 15.5977C22.169 15.3539 22.3318 15.092 22.568 14.8122C22.7921 14.5359 22.9352 14.3193 22.9973 14.1624C23.0593 14.0055 23.0904 13.806 23.0904 13.5637C23.0904 13.342 23.045 13.1612 22.9541 13.0213C22.8633 12.8815 22.7194 12.8115 22.5226 12.8115C22.1955 12.8115 21.8518 12.9429 21.4914 13.2055L21.0645 12.1821C21.5398 11.8171 22.0667 11.6346 22.6452 11.6346C23.1449 11.6346 23.5393 11.7906 23.8285 12.1028C24.1177 12.4149 24.2623 12.8491 24.2623 13.405C24.2623 13.7939 24.2124 14.124 24.1124 14.3952C24.0125 14.6664 23.805 14.9931 23.4901 15.3751C23.2872 15.6241 23.1577 15.816 23.1017 15.9507C23.0456 16.0855 23.0177 16.2689 23.0177 16.5008V16.8129H21.9457V16.813ZM21.7322 18.5221C21.7322 18.2526 21.7965 18.0454 21.9252 17.9003C22.0539 17.7554 22.241 17.6829 22.4862 17.6829C22.7345 17.6829 22.9223 17.7571 23.0495 17.9055C23.1767 18.0538 23.2403 18.2594 23.2403 18.522C23.2403 18.7813 23.1751 18.986 23.045 19.1361C22.9147 19.2861 22.7285 19.3612 22.4862 19.3612C22.2439 19.3612 22.0576 19.2878 21.9275 19.1412C21.7973 18.9946 21.7322 18.7881 21.7322 18.5221Z" fill="url(#paint2_linear_426_1422)"/>
<defs>
<linearGradient id="paint0_linear_426_1422" x1="48.0938" y1="-7.12595" x2="10.6577" y2="51.2393" gradientUnits="userSpaceOnUse">
<stop stop-color="#656565"/>
<stop offset="1" stop-color="#767676"/>
</linearGradient>
<linearGradient id="paint1_linear_426_1422" x1="32.8888" y1="-1.1336" x2="23.4675" y2="14.2235" gradientUnits="userSpaceOnUse">
<stop stop-color="#656565"/>
<stop offset="1" stop-color="#767676"/>
</linearGradient>
<linearGradient id="paint2_linear_426_1422" x1="23.4821" y1="12.4348" x2="7.84161" y2="40.6244" gradientUnits="userSpaceOnUse">
<stop stop-color="#A3A3A3"/>
<stop offset="1" stop-color="#B5B5B5"/>
</linearGradient>
</defs>
</svg>
