<svg width="54" height="50" viewBox="0 0 54 50" fill="none" xmlns="http://www.w3.org/2000/svg">
<path d="M48.5941 5.9635C48.5759 5.9791 48.5506 5.98577 48.5258 5.97904C48.4301 5.95313 48.3336 5.92918 48.2388 5.90778C48.1986 5.89871 48.1733 5.85873 48.1824 5.81847C48.1916 5.77822 48.2315 5.75293 48.2718 5.76203C48.3685 5.78382 48.4671 5.80828 48.5648 5.83474C48.6047 5.84554 48.6283 5.88659 48.6174 5.92639C48.6134 5.94141 48.605 5.95408 48.5941 5.9635Z" fill="white"/>
<path d="M51.3878 18.2929C51.2555 18.4067 51.1176 18.5168 50.9779 18.6201C50.9447 18.6447 50.8979 18.6377 50.8734 18.6045C50.8489 18.5714 50.8551 18.5249 50.889 18.5C51.0498 18.381 51.2075 18.2532 51.3584 18.1202C51.3582 18.1204 51.3587 18.12 51.3584 18.1202C51.3894 18.0936 51.4368 18.0961 51.464 18.1269C51.4912 18.1579 51.4883 18.2051 51.4573 18.2324C51.4342 18.2527 51.4111 18.2729 51.3878 18.2929ZM52.1521 17.527C52.1246 17.5506 52.0832 17.5514 52.0548 17.5271C52.0235 17.5002 52.0198 17.453 52.0466 17.4217C52.1769 17.2695 52.3024 17.1097 52.4196 16.9468C52.4436 16.9129 52.4904 16.9056 52.5239 16.9297C52.5574 16.9538 52.5651 17.0005 52.5409 17.034C52.4213 17.2003 52.2932 17.3635 52.1602 17.5188C52.1576 17.5218 52.1549 17.5245 52.1521 17.527ZM53.0513 16.2047C53.0287 16.2242 52.9956 16.229 52.9676 16.2142C52.9311 16.1949 52.9171 16.1496 52.9365 16.1132C53.0304 15.9356 53.1176 15.7522 53.1958 15.5681C53.2118 15.5301 53.2558 15.5123 53.2938 15.5285C53.3317 15.5446 53.3495 15.5885 53.3334 15.6265C53.2536 15.8145 53.1645 16.0017 53.0686 16.183C53.0641 16.1915 53.0581 16.1988 53.0513 16.2047ZM53.6359 14.717C53.6177 14.7326 53.5925 14.7393 53.5677 14.7326C53.5279 14.7219 53.5042 14.6809 53.5149 14.6411C53.5667 14.4478 53.6108 14.2496 53.6458 14.0519C53.653 14.0113 53.6918 13.9841 53.7325 13.9914C53.7731 13.9986 53.8002 14.0374 53.793 14.078C53.7572 14.2799 53.7122 14.4824 53.6593 14.6798C53.6552 14.6948 53.6468 14.7076 53.6359 14.717ZM53.873 13.1367C53.8593 13.1485 53.8412 13.1554 53.8216 13.1546C53.7804 13.1531 53.7481 13.1185 53.7496 13.0773C53.757 12.8772 53.7557 12.6741 53.746 12.4736C53.7441 12.4324 53.776 12.3974 53.817 12.3953C53.8583 12.3934 53.8933 12.4251 53.8953 12.4663C53.9053 12.6711 53.9065 12.8784 53.899 13.0828C53.8983 13.1044 53.8883 13.1236 53.873 13.1367ZM53.7531 11.5426C53.7435 11.5508 53.7316 11.5568 53.7183 11.5593C53.6777 11.5669 53.6386 11.5403 53.6309 11.4997C53.5936 11.3024 53.5476 11.1046 53.4939 10.9117C53.4828 10.8719 53.5061 10.8307 53.5458 10.8197C53.5856 10.8086 53.6268 10.8318 53.6379 10.8716C53.6926 11.0686 53.7397 11.2705 53.7778 11.472C53.7829 11.4992 53.7727 11.5257 53.7531 11.5426ZM53.2838 10.0141C53.2782 10.0189 53.2718 10.023 53.2648 10.0261C53.2269 10.0425 53.1829 10.0251 53.1665 9.9873C53.0866 9.80331 52.9978 9.62054 52.9026 9.44416C52.883 9.40779 52.8965 9.36268 52.9329 9.34291C52.9692 9.32332 53.0145 9.33684 53.0342 9.37316C53.1314 9.5533 53.222 9.73988 53.3035 9.92774C53.3169 9.9585 53.3079 9.99337 53.2838 10.0141ZM52.4868 8.62788C52.4853 8.6291 52.4839 8.63029 52.4823 8.63144C52.4491 8.6559 52.4022 8.64877 52.3778 8.61552C52.2728 8.47288 52.1611 8.33258 52.0459 8.19857C52.0305 8.18069 52.015 8.16283 51.9995 8.14513C51.9722 8.1141 51.9752 8.0669 52.0063 8.03966C52.0061 8.03983 52.0065 8.03946 52.0063 8.03966C52.0373 8.01299 52.0847 8.01565 52.1117 8.04645C52.1277 8.0646 52.1435 8.08279 52.1592 8.1011C52.2769 8.23799 52.391 8.38126 52.4982 8.52698C52.5215 8.55864 52.5161 8.60263 52.4868 8.62788ZM51.4001 7.45512C51.3726 7.47881 51.3311 7.47943 51.3027 7.45504C51.1511 7.32447 50.9916 7.19856 50.8288 7.08075C50.7953 7.05659 50.7878 7.00982 50.812 6.97639C50.8365 6.9431 50.8829 6.93544 50.9163 6.95962C51.0827 7.07993 51.2455 7.20848 51.4002 7.34175C51.4315 7.36871 51.435 7.41587 51.4081 7.4472C51.4056 7.45002 51.4029 7.45268 51.4001 7.45512ZM50.0804 6.55214C50.0577 6.57164 50.0245 6.57638 49.9965 6.56146C49.819 6.46697 49.6358 6.37924 49.4519 6.3006C49.414 6.28442 49.3964 6.24048 49.4126 6.20255C49.4289 6.16457 49.4727 6.1469 49.5107 6.16321C49.6984 6.24344 49.8855 6.33303 50.0667 6.42948C50.1032 6.44885 50.117 6.49415 50.0976 6.53057C50.0931 6.53905 50.0872 6.54625 50.0804 6.55214Z" fill="white"/>
<path d="M50.1427 19.1514C50.1387 19.1548 50.1343 19.1579 50.1295 19.1605C50.0403 19.2089 49.95 19.2554 49.8612 19.2988C49.8241 19.3169 49.7794 19.3016 49.7612 19.2646C49.743 19.2275 49.7587 19.1829 49.7955 19.1646C49.8824 19.122 49.9709 19.0764 50.0583 19.029C50.0946 19.0094 50.14 19.0229 50.1596 19.0591C50.1767 19.0907 50.1688 19.129 50.1427 19.1514Z" fill="white"/>
<path d="M44.5653 19.6859C44.5462 19.7022 44.5195 19.7087 44.4939 19.7005C44.399 19.6704 44.3028 19.6376 44.2081 19.6031C44.1693 19.589 44.1493 19.546 44.1634 19.5073C44.1777 19.4684 44.2204 19.4485 44.2592 19.4626C44.352 19.4964 44.4461 19.5285 44.5391 19.558C44.5784 19.5705 44.6002 19.6125 44.5877 19.6518C44.5834 19.6656 44.5754 19.6772 44.5653 19.6859Z" fill="white"/>
<path d="M43.391 19.1936C43.3684 19.2131 43.3353 19.2178 43.3073 19.203C43.1297 19.1091 42.9534 19.0063 42.7833 18.8975C42.7485 18.8752 42.7384 18.829 42.7606 18.7942C42.7831 18.7597 42.8291 18.7493 42.8639 18.7715C43.0305 18.8782 43.2032 18.9789 43.3772 19.0709C43.4136 19.0902 43.4276 19.1354 43.4083 19.1719C43.4038 19.1804 43.3979 19.1877 43.391 19.1936ZM42.0881 18.3115C42.0607 18.3351 42.0194 18.3359 41.991 18.3117C41.8373 18.181 41.6874 18.0424 41.5456 17.8997C41.5165 17.8704 41.5167 17.8231 41.546 17.7941C41.5757 17.7645 41.6226 17.7651 41.6517 17.7944C41.7905 17.9341 41.9372 18.0699 42.0878 18.1978C42.1193 18.2245 42.1231 18.2717 42.0964 18.3032C42.0938 18.3062 42.091 18.309 42.0881 18.3115ZM41.0092 17.1661C41.008 17.1672 41.0066 17.1682 41.0053 17.1693C40.9723 17.194 40.9255 17.1874 40.9007 17.1544C40.7797 16.9935 40.6641 16.8253 40.557 16.6546C40.5352 16.6196 40.5458 16.5735 40.5807 16.5515C40.6156 16.5296 40.6617 16.5402 40.6837 16.5751C40.7885 16.7424 40.9018 16.9071 41.0201 17.0646C41.044 17.0963 41.0388 17.1406 41.0092 17.1661ZM40.2086 15.8117C40.2033 15.8162 40.1973 15.8202 40.1906 15.8232C40.153 15.8401 40.1087 15.8234 40.0918 15.7857C40.009 15.6022 39.9331 15.4128 39.866 15.2227C39.8523 15.1838 39.8726 15.141 39.9116 15.1274C39.9506 15.1136 39.9932 15.134 40.007 15.1729C40.0727 15.3591 40.1471 15.5446 40.2281 15.7243C40.2419 15.7552 40.2331 15.7906 40.2086 15.8117ZM39.7235 14.3152C39.7142 14.3232 39.7028 14.3291 39.69 14.3317C39.6496 14.3401 39.61 14.3141 39.6017 14.2736C39.5609 14.0764 39.528 13.8751 39.5038 13.6751C39.4988 13.6341 39.5279 13.5969 39.569 13.5919C39.61 13.587 39.6472 13.6162 39.6522 13.6572C39.6759 13.853 39.7081 14.0502 39.7481 14.2434C39.7538 14.271 39.7434 14.2981 39.7235 14.3152ZM39.5755 12.7492C39.5622 12.7607 39.5447 12.7676 39.5257 12.7673C39.4844 12.7666 39.4515 12.7326 39.4521 12.6913C39.4552 12.4898 39.4671 12.2861 39.4871 12.0859C39.4913 12.045 39.5279 12.0149 39.5689 12.019C39.61 12.0231 39.6399 12.0598 39.6358 12.1008C39.6162 12.2968 39.6047 12.4963 39.6016 12.6937C39.6012 12.7159 39.5911 12.7358 39.5755 12.7492ZM39.7735 11.1892C39.7558 11.2044 39.7315 11.2111 39.7071 11.2053C39.667 11.1956 39.6424 11.1552 39.6521 11.1151C39.6994 10.9191 39.7556 10.7229 39.8192 10.5319C39.8323 10.4929 39.8746 10.4717 39.9137 10.4846C39.9529 10.4977 39.974 10.54 39.961 10.5792C39.8987 10.7662 39.8437 10.9583 39.7973 11.1502C39.7935 11.1659 39.7849 11.1794 39.7735 11.1892ZM40.3096 9.71061C40.2876 9.72958 40.2555 9.73464 40.2278 9.72102C40.1908 9.70271 40.1756 9.65791 40.1939 9.62092C40.2828 9.4409 40.3806 9.26183 40.4848 9.08881C40.5059 9.05315 40.552 9.04204 40.5873 9.06329C40.6227 9.08457 40.6341 9.13049 40.6128 9.16584C40.5108 9.33539 40.4149 9.51073 40.3279 9.68707C40.3233 9.69633 40.317 9.70425 40.3096 9.71061ZM41.1553 8.38413C41.1285 8.40717 41.0884 8.40861 41.0598 8.38569C41.0277 8.35983 41.0226 8.31283 41.0484 8.28061C41.1749 8.12304 41.3093 7.96944 41.4478 7.82399C41.4767 7.79441 41.5236 7.79295 41.5535 7.82138C41.5834 7.84986 41.5845 7.89718 41.5561 7.92704C41.4205 8.06946 41.2889 8.21991 41.1649 8.37425C41.162 8.3779 41.1588 8.38117 41.1553 8.38413ZM42.7547 6.9195C42.7524 6.9215 42.75 6.92339 42.7474 6.92508C42.5831 7.03465 42.4217 7.15246 42.2676 7.27528C42.2353 7.301 42.1883 7.29571 42.1626 7.26345C42.1368 7.23112 42.1411 7.18407 42.1744 7.15841C42.3318 7.03296 42.4967 6.91263 42.6645 6.80076C42.6988 6.77788 42.7452 6.78708 42.7681 6.82146C42.7893 6.85321 42.7829 6.89523 42.7547 6.9195Z" fill="white"/>
<path d="M43.8763 6.30901C43.8707 6.3138 43.8644 6.31785 43.8573 6.32094C43.7665 6.36032 43.6761 6.40178 43.5886 6.44421C43.5515 6.46219 43.5068 6.44664 43.4888 6.40956C43.4708 6.37236 43.4861 6.32771 43.5234 6.30967C43.6128 6.2664 43.7051 6.22407 43.7978 6.18384C43.8357 6.16743 43.8797 6.18477 43.8961 6.22261C43.9095 6.25341 43.9004 6.28823 43.8763 6.30901Z" fill="white"/>
<path d="M45.1411 7.53736C45.1051 7.5438 45.0771 7.57238 45.0714 7.60856L44.9098 8.64055C44.4617 8.83353 44.0413 9.09935 43.6679 9.43486L42.6637 9.14974C42.6284 9.13972 42.5908 9.15318 42.5698 9.18322L41.8533 10.2111C41.8324 10.2412 41.8328 10.2812 41.8544 10.3107L42.4694 11.1542C42.2838 11.6207 42.1799 12.1071 42.1539 12.5943L41.2416 13.1031C41.2096 13.1209 41.1925 13.157 41.1989 13.1931L41.4191 14.4265C41.4256 14.4626 41.4542 14.4906 41.4903 14.4962L42.5223 14.6579C42.7153 15.1059 42.9811 15.5263 43.3167 15.8998L43.0315 16.904C43.0215 16.9392 43.035 16.9769 43.065 16.9978L44.0929 17.7143C44.1229 17.7352 44.1629 17.7348 44.1925 17.7132L45.036 17.0982C45.5025 17.2838 45.9889 17.3877 46.476 17.4137L46.9848 18.326C47.0026 18.358 47.0388 18.3751 47.0748 18.3687L48.3083 18.1485C48.3443 18.142 48.3723 18.1134 48.378 18.0773L48.5396 17.0453C48.9877 16.8523 49.4081 16.5865 49.7815 16.251L50.7857 16.5361C50.821 16.5461 50.8586 16.5327 50.8796 16.5026L51.5961 15.4747C51.617 15.4447 51.6166 15.4047 51.595 15.3751L50.98 14.5316C51.1656 14.0652 51.2694 13.5787 51.2955 13.0916L52.2077 12.5828C52.2398 12.565 52.2569 12.5288 52.2504 12.4928L52.0302 11.2593C52.0238 11.2233 51.9952 11.1953 51.959 11.1896L50.9271 11.028C50.7341 10.58 50.4683 10.1595 50.1327 9.78609L50.4179 8.78187C50.4279 8.74668 50.4144 8.70897 50.3844 8.68806L49.3565 7.97159C49.3265 7.95065 49.2865 7.95108 49.2569 7.97264L48.4134 8.58765C47.9469 8.40208 47.4605 8.2982 46.9733 8.27215L46.4646 7.35988C46.4467 7.3279 46.4106 7.31076 46.3745 7.31718L45.1411 7.53736Z" fill="white"/>
<path d="M47.5248 13.7708C47.4367 13.8465 47.3373 13.91 47.2284 13.9592C46.9303 14.0937 46.5976 14.1042 46.2916 13.9885C45.9856 13.8728 45.7431 13.6449 45.6085 13.3468C45.4739 13.0486 45.4635 12.7159 45.5792 12.4099C45.6948 12.104 45.9227 11.8613 46.2209 11.7267C46.519 11.5921 46.8518 11.5817 47.1577 11.6975C47.4637 11.8131 47.7063 12.041 47.8409 12.3392C47.9755 12.6374 47.9859 12.9701 47.8702 13.276C47.7968 13.4703 47.678 13.639 47.5248 13.7708ZM46.071 12.085C45.9459 12.1926 45.8489 12.3305 45.7889 12.4893C45.6944 12.7392 45.7029 13.011 45.8128 13.2545C45.9227 13.4981 46.1209 13.6843 46.3709 13.7788C46.6209 13.8733 46.8927 13.8647 47.1362 13.7548C47.3799 13.645 47.566 13.4468 47.6605 13.1967C47.755 12.9468 47.7465 12.675 47.6365 12.4314C47.5266 12.1878 47.3285 12.0017 47.0785 11.9072C46.8285 11.8127 46.5567 11.8211 46.3131 11.9311C46.2242 11.9712 46.143 12.0231 46.071 12.085Z" fill="#D1E4CF"/>
<path d="M48.7766 15.2457C47.7178 16.1563 46.1359 16.2754 44.9386 15.4409C44.7176 15.2869 44.5227 15.1094 44.3546 14.914C43.4438 13.8553 43.3246 12.2732 44.1592 11.0757C44.1742 11.0542 44.1895 11.0329 44.205 11.0117C44.3098 10.8692 44.4261 10.7357 44.552 10.6138C44.5667 10.5995 44.5815 10.5854 44.5965 10.5714L44.7493 10.7356C44.5988 10.8757 44.4622 11.0333 44.3431 11.204C44.342 11.2055 44.3409 11.2072 44.3398 11.2088C43.426 12.5254 43.7515 14.3402 45.0667 15.257C46.3836 16.1748 48.2016 15.8503 49.1197 14.5333C49.8946 13.4216 49.784 11.9525 48.9383 10.9695C48.7823 10.7881 48.6013 10.6233 48.3961 10.4803C47.9632 10.1786 47.4576 10 46.934 9.964L46.9493 9.74034C47.5134 9.77914 48.058 9.97138 48.5243 10.2964C48.7452 10.4504 48.9402 10.6279 49.1083 10.8233C50.0191 11.882 50.1383 13.4641 49.3037 14.6616C49.1496 14.8826 48.972 15.0777 48.7766 15.2457Z" fill="#D1E4CF"/>
<path d="M42.6926 0.506476C42.6817 0.515853 42.6665 0.519861 42.6516 0.515815C42.594 0.500231 42.536 0.485853 42.4791 0.472973C42.4549 0.467525 42.4397 0.443498 42.4452 0.419295C42.4507 0.395112 42.4747 0.379898 42.4989 0.385365C42.557 0.398458 42.6163 0.413147 42.675 0.429062C42.699 0.435541 42.7131 0.46021 42.7066 0.484141C42.7042 0.493187 42.6992 0.500814 42.6926 0.506476Z" fill="white"/>
<path d="M44.372 7.91698C44.2925 7.98539 44.2096 8.05157 44.1256 8.11368C44.1057 8.12844 44.0776 8.12424 44.0628 8.10428C44.0481 8.08438 44.0519 8.05642 44.0722 8.04148C44.1689 7.96994 44.2637 7.89309 44.3544 7.81322C44.3542 7.81332 44.3545 7.81309 44.3544 7.81322C44.373 7.79721 44.4015 7.79875 44.4178 7.81723C44.4341 7.83583 44.4324 7.8642 44.4138 7.88062C44.3999 7.89284 44.386 7.90498 44.372 7.91698ZM44.8314 7.45666C44.8149 7.47088 44.79 7.47131 44.7729 7.45672C44.7541 7.44059 44.7519 7.41222 44.768 7.39337C44.8463 7.30189 44.9217 7.20586 44.9922 7.10794C45.0066 7.08757 45.0347 7.08321 45.0549 7.09771C45.075 7.11218 45.0796 7.14027 45.0651 7.16037C44.9932 7.26035 44.9162 7.35841 44.8363 7.4518C44.8347 7.45355 44.8331 7.45518 44.8314 7.45666ZM45.3718 6.66194C45.3582 6.67363 45.3383 6.67651 45.3215 6.6676C45.2996 6.65603 45.2912 6.62883 45.3028 6.6069C45.3593 6.50015 45.4117 6.38991 45.4587 6.27927C45.4683 6.25643 45.4947 6.24579 45.5176 6.25547C45.5404 6.26516 45.5511 6.29154 45.5414 6.31439C45.4934 6.42738 45.4399 6.53991 45.3822 6.6489C45.3795 6.654 45.3759 6.6584 45.3718 6.66194ZM45.7232 5.76778C45.7123 5.77716 45.6971 5.78117 45.6822 5.77714C45.6583 5.77072 45.6441 5.74609 45.6505 5.72212C45.6816 5.60595 45.7081 5.48682 45.7292 5.36805C45.7335 5.34361 45.7568 5.32729 45.7812 5.33165C45.8057 5.33596 45.822 5.35927 45.8176 5.38373C45.7961 5.50505 45.7691 5.62673 45.7372 5.74539C45.7348 5.75443 45.7298 5.7621 45.7232 5.76778ZM45.8657 4.81794C45.8575 4.82504 45.8466 4.82919 45.8348 4.82874C45.81 4.82784 45.7907 4.80701 45.7916 4.78222C45.796 4.66196 45.7953 4.53988 45.7894 4.41941C45.7883 4.39461 45.8074 4.37361 45.8321 4.37235C45.8569 4.37116 45.8779 4.39025 45.8792 4.41504C45.8851 4.53809 45.8859 4.66272 45.8814 4.78553C45.8809 4.79854 45.8749 4.81006 45.8657 4.81794ZM45.7936 3.85983C45.7879 3.86479 45.7808 3.86837 45.7727 3.86989C45.7484 3.87448 45.7249 3.85847 45.7202 3.83409C45.6978 3.71549 45.6701 3.59658 45.6379 3.48068C45.6312 3.45677 45.6452 3.43198 45.6691 3.42537C45.693 3.41869 45.7178 3.43268 45.7244 3.45659C45.7573 3.57494 45.7856 3.69634 45.8085 3.81742C45.8116 3.83376 45.8054 3.84971 45.7936 3.85983ZM45.5116 2.94122C45.5082 2.9441 45.5044 2.94653 45.5002 2.94838C45.4774 2.95824 45.451 2.94781 45.4411 2.92507C45.3931 2.81448 45.3397 2.70464 45.2825 2.59862C45.2707 2.57677 45.2788 2.54965 45.3007 2.53777C45.3225 2.526 45.3497 2.53411 45.3616 2.55596C45.42 2.66423 45.4745 2.77637 45.5235 2.88927C45.5315 2.90775 45.5261 2.92873 45.5116 2.94122ZM45.0325 2.10801C45.0317 2.10875 45.0308 2.10947 45.0299 2.11015C45.0099 2.12486 44.9817 2.12058 44.967 2.10058C44.9039 2.01484 44.8368 1.93052 44.7676 1.84997C44.7583 1.83923 44.749 1.82849 44.7396 1.81785C44.7233 1.79919 44.7251 1.77083 44.7437 1.75446C44.7436 1.75456 44.7439 1.75435 44.7437 1.75446C44.7624 1.73843 44.7908 1.74003 44.8071 1.75855C44.8167 1.76946 44.8262 1.78038 44.8357 1.79139C44.9064 1.87367 44.975 1.95978 45.0394 2.04735C45.0534 2.06642 45.0502 2.09284 45.0325 2.10801ZM44.3794 1.40315C44.3629 1.4174 44.3379 1.41779 44.3209 1.4031C44.2298 1.32463 44.1339 1.24893 44.036 1.17813C44.0159 1.1636 44.0114 1.1355 44.0259 1.11541C44.0407 1.09539 44.0686 1.0908 44.0887 1.10533C44.1886 1.17765 44.2865 1.2549 44.3795 1.335C44.3983 1.35121 44.4004 1.37956 44.3842 1.39839C44.3827 1.40008 44.3811 1.4017 44.3794 1.40315ZM43.5862 0.860442C43.5726 0.872154 43.5527 0.875014 43.5358 0.866045C43.4291 0.809254 43.319 0.756529 43.2085 0.709252C43.1857 0.699524 43.1751 0.673123 43.1849 0.650321C43.1946 0.6275 43.221 0.616877 43.2438 0.626683C43.3567 0.674913 43.4691 0.728747 43.578 0.786725C43.5999 0.798379 43.6082 0.825597 43.5966 0.847484C43.5939 0.852562 43.5903 0.856882 43.5862 0.860442Z" fill="white"/>
<path d="M43.6237 8.43281C43.6213 8.43487 43.6187 8.43672 43.6158 8.43829C43.5622 8.46736 43.5079 8.49532 43.4545 8.52143C43.4323 8.53232 43.4054 8.5231 43.3945 8.50084C43.3835 8.47855 43.3929 8.45172 43.4151 8.44073C43.4673 8.41518 43.5204 8.38775 43.573 8.35927C43.5948 8.34746 43.6221 8.35559 43.6339 8.37738C43.6441 8.39631 43.6394 8.41931 43.6237 8.43281Z" fill="white"/>
<path d="M40.2711 8.75437C40.2597 8.7642 40.2436 8.76807 40.2282 8.76317C40.1711 8.74506 40.1133 8.72535 40.0564 8.70461C40.0331 8.69612 40.0211 8.67031 40.0296 8.64704C40.0381 8.62369 40.0639 8.61173 40.0871 8.62021C40.1429 8.64052 40.1995 8.65982 40.2554 8.67754C40.279 8.68505 40.2921 8.71031 40.2846 8.73395C40.282 8.74218 40.2772 8.74914 40.2711 8.75437Z" fill="white"/>
<path d="M39.5657 8.45845C39.5521 8.47014 39.5322 8.473 39.5154 8.46411C39.4086 8.40769 39.3027 8.3459 39.2004 8.28047C39.1795 8.26709 39.1734 8.2393 39.1868 8.21843C39.2003 8.19769 39.228 8.19142 39.2489 8.20481C39.349 8.26891 39.4528 8.32946 39.5574 8.38473C39.5793 8.39631 39.5877 8.42349 39.5761 8.44541C39.5734 8.45051 39.5698 8.45489 39.5657 8.45845ZM38.7826 7.92827C38.7661 7.94243 38.7413 7.94292 38.7243 7.92838C38.6319 7.84986 38.5418 7.76653 38.4566 7.68077C38.4391 7.66318 38.4392 7.63474 38.4568 7.61727C38.4746 7.59952 38.5028 7.59985 38.5203 7.61748C38.6037 7.70143 38.6919 7.78303 38.7824 7.85994C38.8013 7.87597 38.8037 7.90436 38.7876 7.92327C38.786 7.92508 38.7843 7.92675 38.7826 7.92827ZM38.1342 7.23985C38.1334 7.24049 38.1326 7.24111 38.1318 7.24174C38.112 7.25664 38.0838 7.25263 38.0689 7.23283C37.9962 7.13611 37.9268 7.03504 37.8624 6.93239C37.8492 6.91136 37.8556 6.88366 37.8766 6.87047C37.8976 6.85727 37.9253 6.86364 37.9385 6.88465C38.0015 6.9852 38.0696 7.08415 38.1407 7.17882C38.1551 7.19788 38.152 7.22456 38.1342 7.23985ZM37.653 6.42579C37.6498 6.42853 37.6462 6.43089 37.6421 6.4327C37.6195 6.44287 37.593 6.43283 37.5827 6.41019C37.533 6.29987 37.4874 6.18604 37.447 6.07179C37.4388 6.04841 37.451 6.02269 37.4745 6.0145C37.4979 6.00623 37.5235 6.01849 37.5318 6.04187C37.5712 6.15376 37.616 6.26526 37.6647 6.3733C37.673 6.39188 37.6677 6.41316 37.653 6.42579ZM37.3614 5.5264C37.3558 5.5312 37.349 5.53472 37.3412 5.53628C37.317 5.54132 37.2932 5.52572 37.2882 5.5014C37.2637 5.38285 37.2439 5.26184 37.2293 5.14162C37.2263 5.11699 37.2439 5.09466 37.2685 5.09164C37.2932 5.08867 37.3155 5.10621 37.3185 5.13085C37.3327 5.24857 37.3521 5.36709 37.3761 5.48321C37.3796 5.49978 37.3734 5.51609 37.3614 5.5264ZM37.2725 4.58515C37.2644 4.59206 37.2539 4.59619 37.2425 4.59601C37.2177 4.5956 37.1979 4.57517 37.1983 4.55037C37.2002 4.42922 37.2073 4.30682 37.2193 4.18649C37.2218 4.16188 37.2438 4.1438 37.2685 4.14628C37.2932 4.14877 37.3112 4.17077 37.3087 4.19544C37.2969 4.31324 37.29 4.43313 37.2881 4.55179C37.2879 4.56516 37.2819 4.57708 37.2725 4.58515ZM37.3914 3.64757C37.3809 3.65668 37.3662 3.66072 37.3516 3.65722C37.3275 3.6514 37.3126 3.62712 37.3185 3.60302C37.3469 3.48523 37.3807 3.36731 37.4189 3.25251C37.4268 3.22904 37.4522 3.21628 37.4757 3.22408C37.4993 3.23194 37.512 3.25735 37.5041 3.28091C37.4667 3.39329 37.4336 3.50875 37.4058 3.62407C37.4035 3.63358 37.3983 3.64164 37.3914 3.64757ZM37.7137 2.75886C37.7005 2.77026 37.6812 2.7733 37.6645 2.76511C37.6423 2.75409 37.6331 2.72719 37.6441 2.70495C37.6976 2.59674 37.7564 2.48913 37.819 2.38512C37.8316 2.36368 37.8594 2.357 37.8806 2.36977C37.9018 2.38257 37.9087 2.41016 37.8959 2.4314C37.8346 2.53331 37.777 2.63868 37.7247 2.74468C37.7219 2.75028 37.7181 2.75505 37.7137 2.75886ZM38.222 1.96161C38.2059 1.97546 38.1817 1.97632 38.1646 1.96254C38.1453 1.947 38.1422 1.91875 38.1577 1.89939C38.2338 1.8047 38.3146 1.71236 38.3978 1.62495C38.4151 1.60717 38.4433 1.60629 38.4613 1.62337C38.4792 1.64049 38.4799 1.66894 38.4628 1.68688C38.3813 1.77248 38.3022 1.86289 38.2278 1.95565C38.226 1.95787 38.224 1.95984 38.222 1.96161ZM39.1833 1.0813C39.1819 1.08251 39.1804 1.08364 39.1788 1.08465C39.0801 1.15051 38.9831 1.2213 38.8905 1.29514C38.8711 1.31061 38.8428 1.30741 38.8273 1.28802C38.8119 1.26858 38.8145 1.24031 38.8345 1.22488C38.9291 1.14947 39.0282 1.07716 39.129 1.00992C39.1496 0.996164 39.1775 1.00171 39.1913 1.02237C39.204 1.04148 39.2002 1.06675 39.1833 1.0813Z" fill="white"/>
<path d="M39.8572 0.714265C39.8538 0.717144 39.85 0.719576 39.8457 0.721424C39.7912 0.745101 39.7369 0.770005 39.6843 0.795511C39.6619 0.806328 39.6351 0.79697 39.6243 0.774674C39.6135 0.75232 39.6226 0.72549 39.6451 0.714634C39.6988 0.688622 39.7543 0.663174 39.81 0.63899C39.8328 0.629126 39.8592 0.639555 39.8691 0.662298C39.8771 0.680859 39.8717 0.701774 39.8572 0.714265Z" fill="white"/>
<path d="M40.6171 1.45281C40.5955 1.45668 40.5786 1.47386 40.5752 1.49559L40.478 2.11585C40.2088 2.23185 39.9561 2.3916 39.7316 2.59327L39.1281 2.42191C39.1069 2.4159 39.0842 2.42399 39.0717 2.44203L38.641 3.0598C38.6284 3.07787 38.6287 3.10192 38.6417 3.11968L39.0113 3.62664C38.8998 3.90699 38.8373 4.19937 38.8217 4.49216L38.2734 4.79794C38.2541 4.80866 38.2438 4.83039 38.2477 4.85205L38.3801 5.59338C38.3839 5.61507 38.4011 5.63189 38.4229 5.63529L39.0431 5.73245C39.1591 6.00172 39.3189 6.25442 39.5205 6.47886L39.3492 7.08243C39.3431 7.1036 39.3512 7.12625 39.3693 7.13884L39.9871 7.56945C40.0051 7.58204 40.0292 7.58178 40.047 7.56881L40.5539 7.19917C40.8343 7.31071 41.1267 7.37316 41.4194 7.3888L41.7252 7.93712C41.7359 7.95632 41.7577 7.96663 41.7793 7.96276L42.5206 7.8304C42.5423 7.82653 42.5592 7.80935 42.5626 7.7876L42.6597 7.16736C42.929 7.05138 43.1817 6.8916 43.4062 6.68996L44.0097 6.86134C44.0309 6.86735 44.0535 6.85926 44.0661 6.84122L44.4967 6.22341C44.5093 6.20538 44.509 6.18131 44.4961 6.16353L44.1264 5.65657C44.238 5.37622 44.3004 5.08382 44.3161 4.79105L44.8644 4.48527C44.8836 4.47457 44.8939 4.45282 44.89 4.43114L44.7577 3.68981C44.7538 3.66816 44.7366 3.65131 44.7149 3.6479L44.0947 3.55074C43.9787 3.28148 43.8189 3.02877 43.6172 2.80433L43.7886 2.20076C43.7946 2.17961 43.7866 2.15694 43.7685 2.14437L43.1507 1.71376C43.1327 1.70118 43.1086 1.70143 43.0908 1.71439L42.5839 2.08402C42.3035 1.9725 42.0111 1.91005 41.7184 1.89439L41.4126 1.34607C41.4018 1.32685 41.3801 1.31654 41.3584 1.32041L40.6171 1.45281Z" fill="white"/>
<path d="M42.0499 5.19898C41.997 5.24452 41.9372 5.28268 41.8718 5.31221C41.6926 5.39309 41.4927 5.39935 41.3088 5.3298C41.1249 5.2603 40.979 5.12334 40.8982 4.94411C40.8173 4.76489 40.811 4.56494 40.8806 4.38105C40.9501 4.19717 41.087 4.05131 41.2662 3.97042C41.4455 3.88954 41.6454 3.8833 41.8293 3.95285C42.0132 4.02235 42.159 4.15931 42.2399 4.33854C42.3208 4.51774 42.3271 4.71771 42.2575 4.9016C42.2134 5.01837 42.142 5.1198 42.0499 5.19898ZM41.1761 4.18577C41.1009 4.25046 41.0427 4.33332 41.0066 4.42875C40.9498 4.57897 40.9549 4.74232 41.021 4.88872C41.087 5.03511 41.2062 5.14701 41.3564 5.20381C41.5066 5.2606 41.67 5.25548 41.8164 5.18941C41.9628 5.12339 42.0747 5.00425 42.1315 4.85396C42.1883 4.70374 42.1832 4.54039 42.1171 4.39399C42.051 4.2476 41.9319 4.13569 41.7817 4.0789C41.6314 4.02211 41.468 4.02719 41.3217 4.09326C41.2682 4.11739 41.2194 4.14857 41.1761 4.18577Z" fill="#D1E4CF"/>
<path d="M42.8021 6.08548C42.1657 6.63277 41.2149 6.70436 40.4953 6.20276C40.3625 6.11021 40.2453 6.00352 40.1443 5.8861C39.5969 5.24979 39.5253 4.29886 40.0269 3.57914C40.0359 3.56622 40.0451 3.5534 40.0544 3.54067C40.1174 3.45501 40.1873 3.37479 40.263 3.30149C40.2718 3.29291 40.2808 3.28442 40.2897 3.27606L40.3816 3.3747C40.2911 3.4589 40.209 3.55363 40.1374 3.65622C40.1367 3.65717 40.1361 3.65815 40.1354 3.65912C39.5862 4.45042 39.7818 5.54119 40.5724 6.09219C41.3638 6.64386 42.4565 6.44878 43.0083 5.65727C43.4741 4.98906 43.4076 4.10611 42.8993 3.5153C42.8055 3.40627 42.6967 3.30723 42.5734 3.22129C42.3132 3.03993 42.0093 2.93259 41.6946 2.91095L41.7038 2.77654C42.0429 2.79984 42.3702 2.91539 42.6505 3.11072C42.7832 3.20329 42.9004 3.30997 43.0014 3.4274C43.5489 4.06372 43.6205 5.01465 43.1189 5.73435C43.0263 5.86719 42.9195 5.98449 42.8021 6.08548Z" fill="#D1E4CF"/>
<path d="M3.71569 45.9985C3.71569 46.4639 4.09685 46.8447 4.56271 46.8447H50.3658C50.8316 46.8447 51.2128 46.4639 51.2128 45.9985L51.5939 19.6767C51.5939 19.2113 51.0456 18.3027 50.0407 18.371L5.27687 17.2127C4.69234 17.1976 4.1272 17.4226 3.71328 17.8352C3.29936 18.2477 3.07288 18.8118 3.08669 19.3958L3.71569 45.9985Z" fill="#22C55E"/>
<path d="M4.5522 45.1865C4.5522 45.6272 4.91279 45.9878 5.35354 45.9878H49.2615C49.7022 45.9878 50.0628 45.6272 50.0628 45.1865L50.4225 21.2914C50.3801 19.8534 49.1194 19.3366 48.3552 19.3671L5.45321 18.2161C5.04256 18.2051 4.64553 18.3633 4.35469 18.6534C4.06385 18.9435 3.90388 19.3405 3.91418 19.7512L4.5522 45.1865Z" fill="white"/>
<path d="M49.5879 33.8345C49.5873 33.8345 49.5867 33.8345 49.5867 33.8345C49.5213 33.8336 49.4694 33.7802 49.4704 33.7153L49.4989 31.7774C49.4998 31.7132 49.5522 31.6617 49.6162 31.6617C49.6168 31.6617 49.6174 31.6617 49.6179 31.6617C49.6828 31.6627 49.7346 31.716 49.7337 31.7809L49.7052 33.7188C49.7043 33.783 49.6519 33.8345 49.5879 33.8345Z" fill="#D1E4CF"/>
<path d="M49.6579 29.0859C49.6573 29.0859 49.6568 29.0859 49.6562 29.0859C49.5913 29.085 49.5395 29.0315 49.5405 28.9667L49.6494 21.5447C49.6474 21.1038 49.5136 20.7518 49.2516 20.5008C48.7627 20.0324 47.9865 20.0563 47.9538 20.0579L34.2414 19.6902C34.1765 19.6885 34.1254 19.6345 34.1271 19.5696C34.1288 19.5048 34.1787 19.4496 34.2477 19.4555L47.952 19.8232C48.0373 19.8182 48.8637 19.8039 49.4141 20.3312C49.7237 20.6279 49.8819 21.0366 49.8843 21.5458L49.7753 28.9702C49.7743 29.0345 49.7219 29.0859 49.6579 29.0859Z" fill="#D1E4CF"/>
<path d="M0.110002 49.0296H53.89C53.9505 49.0296 54 48.9801 54 48.9196V46.8269C54 46.7664 53.9505 46.7169 53.89 46.7169H0.110002C0.0495143 46.7169 0 46.7664 0 46.8269V48.9196C0 48.9801 0.0494948 49.0296 0.110002 49.0296Z" fill="#22C55E"/>
<path d="M13.4418 8.36698C13.4418 6.75538 14.7482 5.44892 16.3598 5.44892H41.1752C42.5442 5.44892 43.6731 6.52179 43.7427 7.88907L45.5744 43.8667C45.6289 44.9366 44.7866 45.8391 43.7155 45.8586L15.274 46.3755C14.2675 46.3938 13.4417 45.5829 13.4417 44.5763L13.4418 8.36698Z" fill="url(#paint0_linear_426_1613)"/>
<path d="M19.4307 45.7639L16.2474 45.7228C15.1833 45.709 14.3175 44.832 14.3175 43.7678V38.9629C14.3175 38.9254 14.348 38.895 14.3855 38.895C14.423 38.895 14.4534 38.9254 14.4534 38.9629V43.7678C14.4534 44.758 15.259 45.5741 16.2492 45.5869L19.4316 45.6281C19.4691 45.6285 19.4991 45.6594 19.4986 45.6969C19.4982 45.7341 19.4678 45.7639 19.4307 45.7639Z" fill="white"/>
<path d="M14.3855 37.5424C14.348 37.5424 14.3175 37.512 14.3175 37.4744V36.6963C14.3175 36.6587 14.348 36.6283 14.3855 36.6283C14.423 36.6283 14.4534 36.6587 14.4534 36.6963V37.4744C14.4534 37.512 14.423 37.5424 14.3855 37.5424Z" fill="white"/>
<path d="M15.4747 6.00257C15.4717 5.48696 15.9252 5.08788 16.4361 5.15716C19.8249 5.61671 31.4779 7.03801 41.1125 6.29843C41.5519 6.26469 41.9332 6.5976 41.9566 7.03764L43.8773 43.1756C43.9036 43.6711 43.5252 44.0949 43.0299 44.1242C38.9778 44.364 22.2898 45.291 16.3374 44.6675C15.9752 44.6296 15.7002 44.3246 15.698 43.9603L15.4747 6.00257Z" fill="#6EB075"/>
<path d="M15.8738 6.9082C15.8709 6.412 16.3073 6.02795 16.799 6.09464C20.0602 6.53689 31.2744 7.90467 40.5462 7.19291C40.9691 7.16046 41.336 7.48081 41.3585 7.9043L43.2068 42.6815C43.2322 43.1584 42.8681 43.5661 42.3914 43.5943C38.4918 43.8251 22.4322 44.7172 16.704 44.1172C16.3554 44.0807 16.0908 43.7872 16.0887 43.4367L15.8738 6.9082Z" fill="#D1E4CF"/>
<path d="M18.8927 9.58943L19.2391 17.0453C19.2506 17.2933 19.4509 17.4905 19.6991 17.4975C21.0799 17.5364 25.3827 17.6414 27.8122 17.5147C28.087 17.5004 28.3044 17.278 28.3135 17.003C28.3598 15.6048 28.4612 11.535 28.1426 9.83375C28.0911 9.55894 27.8549 9.35758 27.5755 9.34779L19.4138 9.06236C19.1195 9.05209 18.8791 9.29526 18.8927 9.58943Z" fill="white"/>
<path d="M39.312 10.2384C39.4719 10.2384 39.5994 10.1259 39.5954 9.98832C39.5914 9.85075 39.4573 9.73586 39.2974 9.73302L30.3475 9.57353C30.1876 9.57069 30.1002 9.69176 30.1533 9.8426L30.1962 9.9642C30.2493 10.115 30.4236 10.2384 30.5835 10.2384H39.312Z" fill="white"/>
<path d="M30.3475 10.9635C30.1876 10.9606 30.1002 11.0817 30.1533 11.2326L30.1962 11.3542C30.2493 11.505 30.4236 11.6284 30.5835 11.6284H39.3119C39.4719 11.6284 39.5994 11.5158 39.5954 11.3783C39.5914 11.2407 39.4573 11.1258 39.2974 11.123L30.3475 10.9635Z" fill="white"/>
<path d="M30.3475 12.3739C30.1876 12.3711 30.1002 12.4921 30.1533 12.643L30.1962 12.7646C30.2493 12.9154 30.4236 13.0388 30.5835 13.0388H39.3119C39.4719 13.0388 39.5994 12.9263 39.5954 12.7887C39.5914 12.6511 39.4573 12.5362 39.2974 12.5334L30.3475 12.3739Z" fill="white"/>
<path d="M40.1814 19.839C40.3413 19.839 40.4647 19.7264 40.4556 19.5888C40.4466 19.4513 40.3083 19.3377 40.1484 19.3364L19.1811 19.1711C19.0212 19.1699 18.9718 19.2712 19.0714 19.3963L19.2428 19.6115C19.3424 19.7366 19.5547 19.8389 19.7146 19.8389L40.1814 19.839Z" fill="white"/>
<path d="M19.1811 20.9541C19.0212 20.9528 18.9718 21.0542 19.0714 21.1793L19.2428 21.3944C19.3424 21.5195 19.5547 21.6219 19.7146 21.6219H40.1814C40.3413 21.6219 40.4647 21.5094 40.4556 21.3718C40.4466 21.2342 40.3083 21.1206 40.1484 21.1194L19.1811 20.9541Z" fill="white"/>
<path d="M21.7921 30.0398C21.7905 30.0398 21.7889 30.0398 21.7873 30.0398L20.0177 30.0228C19.7649 30.0203 19.5562 29.8464 19.5322 29.6182L19.3767 28.1334C19.3675 28.0462 19.3946 27.9601 19.4529 27.8908C19.5181 27.8132 19.6168 27.7645 19.7236 27.7572C19.8727 27.747 20.0827 27.7291 20.305 27.7102C20.773 27.6703 21.3555 27.6208 21.6832 27.6166C21.921 27.6154 22.1227 27.7562 22.1788 27.9632C22.271 28.3041 22.2629 28.9493 22.2453 29.6366C22.2396 29.8598 22.0368 30.0398 21.7921 30.0398ZM19.7329 27.8928C19.6627 27.8975 19.5985 27.9287 19.5569 27.9782C19.5226 28.019 19.5066 28.0691 19.5118 28.1192L19.6674 29.604C19.6841 29.7635 19.8353 29.8851 20.019 29.8869L21.7886 29.9039C21.7898 29.9039 21.791 29.9039 21.7922 29.9039C21.9637 29.9039 22.1056 29.7831 22.1095 29.6331C22.1268 28.9562 22.135 28.3219 22.0476 27.9987C22.0084 27.8538 21.8577 27.7531 21.685 27.7525C21.3621 27.7566 20.7823 27.8059 20.3165 27.8456C20.0936 27.8646 19.8831 27.8825 19.7329 27.8928Z" fill="white"/>
<path d="M19.9233 28.046C20.2951 28.0206 21.1031 27.9385 21.4863 27.9337C21.6486 27.9317 21.791 28.0298 21.8291 28.1706C21.9031 28.4441 21.8933 28.9891 21.8804 29.4923C21.8766 29.6429 21.7382 29.7632 21.5693 29.7616L20.1551 29.748C19.9812 29.7463 19.8368 29.6278 19.8206 29.4733L19.6963 28.2868C19.6834 28.1641 19.7855 28.0554 19.9233 28.046Z" fill="white"/>
<path d="M23.3466 29.0539C23.3978 29.2481 23.5743 29.3829 23.7752 29.3812L40.1484 29.2416C40.3337 29.24 40.4818 29.0873 40.4778 28.9021C40.4739 28.722 40.3272 28.5779 40.1471 28.5771L23.7735 28.5024C23.4844 28.5011 23.2729 28.7744 23.3466 29.0539Z" fill="white"/>
<path d="M21.7921 33.8326C21.7905 33.8326 21.7889 33.8326 21.7873 33.8326L20.0177 33.8156C19.7649 33.8132 19.5562 33.6392 19.5322 33.411L19.3767 31.9263C19.3675 31.8391 19.3946 31.753 19.4529 31.6836C19.5181 31.6061 19.6168 31.5574 19.7236 31.55C19.8727 31.5399 20.0827 31.5219 20.305 31.503C20.773 31.4632 21.3555 31.4136 21.6832 31.4095C21.6856 31.4095 21.688 31.4094 21.6903 31.4094C21.9231 31.4094 22.1233 31.5511 22.1787 31.7561C22.2709 32.0969 22.2628 32.7421 22.2453 33.4294C22.2396 33.6527 22.0368 33.8326 21.7921 33.8326ZM19.7329 31.6856C19.6627 31.6904 19.5985 31.7216 19.5569 31.7711C19.5226 31.8119 19.5066 31.862 19.5118 31.9121L19.6674 33.3969C19.6841 33.5563 19.8353 33.678 20.019 33.6798L21.7886 33.6968C21.7898 33.6968 21.791 33.6968 21.7922 33.6968C21.9637 33.6968 22.1056 33.5759 22.1095 33.426C22.1268 32.7491 22.135 32.1148 22.0476 31.7915C22.0084 31.6468 21.8555 31.5427 21.6849 31.5454C21.3621 31.5494 20.7823 31.5988 20.3165 31.6385C20.0936 31.6574 19.8831 31.6753 19.7329 31.6856Z" fill="white"/>
<path d="M19.9233 31.839C20.2951 31.8136 21.1031 31.7315 21.4863 31.7268C21.6486 31.7247 21.791 31.8228 21.8291 31.9636C21.9031 32.2371 21.8933 32.7822 21.8804 33.2853C21.8766 33.4359 21.7382 33.5562 21.5693 33.5546L20.1551 33.541C19.9812 33.5393 19.8368 33.4208 19.8206 33.2663L19.6963 32.0798C19.6834 31.9571 19.7855 31.8484 19.9233 31.839Z" fill="white"/>
<path d="M23.3466 32.8469C23.3978 33.0412 23.5743 33.1759 23.7752 33.1742L40.1484 33.0346C40.3337 33.033 40.4818 32.8803 40.4778 32.6951C40.4739 32.5151 40.3272 32.3709 40.1471 32.3701L23.7735 32.2954C23.4844 32.2941 23.2729 32.5674 23.3466 32.8469Z" fill="white"/>
<path d="M21.7921 37.6252C21.7905 37.6252 21.7889 37.6252 21.7873 37.6252L20.0177 37.6082C19.7649 37.6058 19.5562 37.4319 19.5322 37.2037L19.3767 35.7189C19.3675 35.6317 19.3946 35.5455 19.4529 35.4762C19.5181 35.3986 19.6168 35.3499 19.7236 35.3426C19.8727 35.3324 20.0827 35.3145 20.305 35.2956C20.773 35.2557 21.3555 35.2062 21.6832 35.202C21.6856 35.202 21.688 35.202 21.6903 35.202C21.9231 35.202 22.1233 35.3437 22.1787 35.5486C22.2709 35.8895 22.2628 36.5347 22.2453 37.222C22.2396 37.4452 22.0368 37.6252 21.7921 37.6252ZM19.7329 35.4782C19.6627 35.483 19.5985 35.5141 19.5569 35.5636C19.5226 35.6044 19.5066 35.6545 19.5118 35.7047L19.6674 37.1894C19.6841 37.3489 19.8353 37.4705 20.019 37.4723L21.7886 37.4893C21.7898 37.4893 21.791 37.4893 21.7922 37.4893C21.9637 37.4893 22.1056 37.3684 22.1095 37.2185C22.1268 36.5416 22.135 35.9073 22.0476 35.5841C22.0084 35.4393 21.8555 35.3347 21.6849 35.3379C21.3621 35.3419 20.7823 35.3913 20.3165 35.431C20.0936 35.45 19.8831 35.4679 19.7329 35.4782Z" fill="white"/>
<path d="M19.9233 35.6315C20.2951 35.6061 21.1031 35.5241 21.4863 35.5193C21.6486 35.5173 21.791 35.6154 21.8291 35.7562C21.9031 36.0296 21.8933 36.5747 21.8804 37.0778C21.8766 37.2285 21.7382 37.3488 21.5693 37.3471L20.1551 37.3336C19.9812 37.3319 19.8368 37.2133 19.8206 37.0589L19.6963 35.8723C19.6834 35.7496 19.7855 35.6409 19.9233 35.6315Z" fill="white"/>
<path d="M23.3466 36.6397C23.3978 36.8339 23.5743 36.9687 23.7752 36.967L40.1484 36.8274C40.3337 36.8258 40.4818 36.6731 40.4778 36.4879C40.4739 36.3079 40.3272 36.1637 40.1471 36.1629L23.7735 36.0882C23.4844 36.0869 23.2729 36.3602 23.3466 36.6397Z" fill="white"/>
<path d="M21.7921 41.4179C21.7905 41.4179 21.7889 41.4179 21.7873 41.4179L20.0177 41.401C19.7649 41.3986 19.5562 41.2247 19.5322 40.9964L19.3767 39.5117C19.3675 39.4245 19.3946 39.3383 19.4529 39.269C19.5181 39.1914 19.6168 39.1427 19.7236 39.1353C19.8727 39.1252 20.0827 39.1073 20.305 39.0884C20.773 39.0485 21.3555 38.9989 21.6832 38.9948C21.6856 38.9948 21.688 38.9947 21.6903 38.9947C21.9231 38.9947 22.1233 39.1365 22.1787 39.3414C22.2709 39.6823 22.2628 40.3274 22.2453 41.0148C22.2396 41.238 22.0368 41.4179 21.7921 41.4179ZM19.7329 39.2709C19.6627 39.2757 19.5985 39.3069 19.5569 39.3564C19.5226 39.3972 19.5066 39.4473 19.5118 39.4975L19.6674 40.9822C19.6841 41.1417 19.8353 41.2633 20.019 41.2651L21.7886 41.2821C21.7898 41.2821 21.791 41.2821 21.7922 41.2821C21.9637 41.2821 22.1056 41.1612 22.1095 41.0113C22.1268 40.3344 22.135 39.7001 22.0476 39.3769C22.0084 39.2321 21.8555 39.127 21.6849 39.1307C21.3621 39.1348 20.7823 39.1841 20.3165 39.2238C20.0936 39.2427 19.8831 39.2606 19.7329 39.2709Z" fill="white"/>
<path d="M19.9233 39.4243C20.2951 39.3989 21.1031 39.3169 21.4863 39.3121C21.6486 39.3101 21.791 39.4082 21.8291 39.549C21.9031 39.8224 21.8933 40.3675 21.8804 40.8706C21.8766 41.0213 21.7382 41.1416 21.5693 41.1399L20.1551 41.1263C19.9812 41.1247 19.8368 41.0061 19.8206 40.8517L19.6963 39.6652C19.6834 39.5424 19.7855 39.4337 19.9233 39.4243Z" fill="white"/>
<path d="M23.3466 40.432C23.3978 40.6263 23.5743 40.7611 23.7752 40.7593L40.1484 40.6197C40.3337 40.6182 40.4818 40.4654 40.4778 40.2802C40.4739 40.1002 40.3272 39.9561 40.1471 39.9552L23.7735 39.8806C23.4844 39.8793 23.2729 40.1526 23.3466 40.432Z" fill="white"/>
<path d="M21.636 26.7398C21.6344 26.7398 21.6328 26.7398 21.6312 26.7398L19.8616 26.7228C19.6088 26.7204 19.4001 26.5465 19.3761 26.3183L19.2206 24.8335C19.2114 24.7463 19.2385 24.6601 19.2968 24.5908C19.362 24.5132 19.4607 24.4645 19.5675 24.4572C19.7166 24.447 19.9266 24.4291 20.1488 24.4102C20.6169 24.3703 21.1994 24.3208 21.5271 24.3167C21.5295 24.3167 21.5319 24.3166 21.5342 24.3166C21.767 24.3166 21.9672 24.4583 22.0226 24.6633C22.1148 25.0041 22.1067 25.6493 22.0892 26.3366C22.0835 26.5598 21.8807 26.7398 21.636 26.7398ZM19.5768 24.5928C19.5066 24.5976 19.4424 24.6287 19.4008 24.6783C19.3665 24.7191 19.3505 24.7692 19.3557 24.8193L19.5113 26.3041C19.528 26.4636 19.6792 26.5852 19.8629 26.5869L21.6325 26.6039C21.6337 26.6039 21.6349 26.6039 21.6361 26.6039C21.8075 26.6039 21.9495 26.4831 21.9534 26.3332C21.9706 25.6563 21.9789 25.022 21.8915 24.6987C21.8523 24.5539 21.6994 24.4488 21.5288 24.4526C21.206 24.4566 20.6262 24.506 20.1604 24.5457C19.9375 24.5646 19.727 24.5825 19.5768 24.5928Z" fill="white"/>
<path d="M19.7672 24.746C20.1389 24.7206 20.9469 24.6385 21.3301 24.6338C21.4925 24.6317 21.6349 24.7298 21.673 24.8706C21.7469 25.1441 21.7371 25.6892 21.7243 26.1923C21.7204 26.3429 21.5821 26.4632 21.4131 26.4616L19.9989 26.448C19.825 26.4463 19.6807 26.3278 19.6645 26.1733L19.5401 24.9868C19.5273 24.8641 19.6293 24.7554 19.7672 24.746Z" fill="white"/>
<path d="M23.1902 25.7537C23.2414 25.9479 23.4179 26.0827 23.6188 26.081L39.9921 25.9414C40.1773 25.9398 40.3255 25.7871 40.3214 25.6019C40.3175 25.4218 40.1708 25.2777 39.9907 25.2769L23.6171 25.2022C23.3281 25.2009 23.1165 25.4742 23.1902 25.7537Z" fill="white"/>
<path d="M30.3065 0.543535C29.4102 -0.0800555 28.6308 -0.0677015 28.0821 0.0941884C27.5816 0.241876 27.2572 0.725093 27.3048 1.24475L27.5414 3.82738L30.357 4.07725C30.357 4.07725 32.0644 1.76647 30.3065 0.543535ZM29.0683 2.62709C28.6806 2.62709 28.3663 2.31279 28.3663 1.92504C28.3663 1.53729 28.6806 1.22296 29.0683 1.22296C29.4561 1.22296 29.7704 1.53729 29.7704 1.92504C29.7704 2.31279 29.4561 2.62709 29.0683 2.62709Z" fill="#22C55E"/>
<path d="M27.8226 2.74103C27.7879 2.74103 27.7583 2.71456 27.7551 2.67926L27.7174 2.26797C27.7139 2.23062 27.7415 2.19758 27.7788 2.19412C27.8169 2.19054 27.8493 2.2182 27.8527 2.25564L27.8903 2.66693C27.8938 2.70428 27.8663 2.73732 27.8289 2.74078C27.8268 2.74098 27.8247 2.74103 27.8226 2.74103ZM27.7488 1.93503C27.714 1.93503 27.6844 1.90855 27.6812 1.87326L27.6526 1.56101C27.6072 1.06599 27.9187 0.605044 28.3932 0.464984C28.7293 0.365799 29.0755 0.351597 29.4222 0.422726C29.459 0.430217 29.4827 0.46619 29.4752 0.502941C29.4676 0.539635 29.432 0.563118 29.395 0.555822C29.0702 0.489342 28.7461 0.502533 28.4316 0.595297C28.0192 0.71705 27.7484 1.11799 27.7879 1.54868L27.8165 1.86092C27.8199 1.89828 27.7924 1.93133 27.755 1.93478C27.7529 1.93495 27.7508 1.93503 27.7488 1.93503Z" fill="white"/>
<path d="M23.6986 5.49651V4.19804C23.6986 3.7498 24.0701 3.39081 24.518 3.40616L33.4704 3.71288C33.8677 3.72648 34.1894 4.04008 34.2132 4.43692L34.2881 5.68456L23.6986 5.49651Z" fill="#22C55E"/>
<path d="M27.0366 3.89547H26.6517C26.6141 3.89547 26.5837 3.86509 26.5837 3.82754C26.5837 3.78997 26.6142 3.7596 26.6517 3.7596H27.0366C27.0742 3.7596 27.1046 3.78999 27.1046 3.82754C27.1046 3.86509 27.0742 3.89547 27.0366 3.89547Z" fill="white"/>
<path d="M24.1831 5.08882C24.1456 5.08882 24.1152 5.05843 24.1152 5.02088V4.4956C24.1152 4.08974 24.4454 3.7596 24.8512 3.7596H26.2667C26.3042 3.7596 26.3346 3.78999 26.3346 3.82754C26.3346 3.86509 26.3042 3.89548 26.2667 3.89548H24.8512C24.5203 3.89548 24.2511 4.16472 24.2511 4.4956V5.02088C24.2511 5.05843 24.2207 5.08882 24.1831 5.08882Z" fill="white"/>
<path d="M20.0509 5.82421C20.0725 5.37457 20.4433 5.02112 20.8935 5.0211L36.5484 5.02068C37.1113 5.02066 37.5925 5.42574 37.6885 5.9804L37.7018 6.05694C37.807 6.66448 37.3392 7.22013 36.7226 7.22013H20.6616C20.2927 7.22013 19.9986 6.9116 20.0163 6.54304L20.0509 5.82421Z" fill="url(#paint1_linear_426_1613)"/>
<path d="M21.9459 14.6413V14.3233C21.9459 14.0326 21.9905 13.779 22.0799 13.5625C22.1692 13.346 22.332 13.1135 22.5682 12.8652C22.7923 12.6199 22.9354 12.4276 22.9975 12.2883C23.0595 12.1491 23.0906 11.9719 23.0906 11.7568C23.0906 11.56 23.0452 11.3996 22.9543 11.2753C22.8635 11.1512 22.7196 11.0891 22.5228 11.0891C22.1957 11.0891 21.852 11.2057 21.4916 11.4388L21.0647 10.5303C21.54 10.2064 22.0669 10.0443 22.6454 10.0443C23.1451 10.0443 23.5395 10.1829 23.8287 10.4599C24.1179 10.737 24.2625 11.1225 24.2625 11.616C24.2625 11.9612 24.2126 12.2542 24.1126 12.495C24.0127 12.7357 23.8052 13.0257 23.4903 13.3648C23.2874 13.5859 23.1579 13.7563 23.1019 13.8759C23.0458 13.9955 23.0179 14.1583 23.0179 14.3642V14.6413L21.9459 14.6413ZM21.7324 16.1585C21.7324 15.9193 21.7967 15.7354 21.9254 15.6066C22.0541 15.4779 22.2412 15.4135 22.4864 15.4135C22.7347 15.4135 22.9225 15.4794 23.0497 15.6111C23.1769 15.7428 23.2405 15.9253 23.2405 16.1585C23.2405 16.3887 23.1753 16.5704 23.0452 16.7036C22.9149 16.8368 22.7287 16.9034 22.4864 16.9034C22.2441 16.9034 22.0578 16.8383 21.9277 16.7081C21.7975 16.578 21.7324 16.3947 21.7324 16.1585Z" fill="url(#paint2_linear_426_1613)"/>
<defs>
<linearGradient id="paint0_linear_426_1613" x1="58.2299" y1="-14.4463" x2="27.6988" y2="60.7664" gradientUnits="userSpaceOnUse">
<stop stop-color="#007B16"/>
<stop offset="1" stop-color="#008F27"/>
</linearGradient>
<linearGradient id="paint1_linear_426_1613" x1="39.2718" y1="-140.687" x2="-59.5931" y2="-115.843" gradientUnits="userSpaceOnUse">
<stop stop-color="#007B16"/>
<stop offset="1" stop-color="#008F27"/>
</linearGradient>
<linearGradient id="paint2_linear_426_1613" x1="23.4823" y1="10.7546" x2="10.5096" y2="37.0931" gradientUnits="userSpaceOnUse">
<stop stop-color="#77A1F9"/>
<stop offset="1" stop-color="#8DB7F8"/>
</linearGradient>
</defs>
</svg>
