<svg width="270" height="122" viewBox="0 0 270 122" fill="none" xmlns="http://www.w3.org/2000/svg">
<path d="M-5.4 -0.200001C-5.4 -17.1881 8.32219 -31 25.2 -31H162.9C179.778 -31 193.5 -17.1881 193.5 -0.200001V15.2H217.741C225.869 15.2 233.663 18.4244 239.4 24.1994L261.059 46C266.797 51.775 270 59.6194 270 67.8006V138.4C270 155.388 256.278 169.2 239.4 169.2H237.822C232.85 186.958 216.593 200 197.325 200C178.057 200 161.848 186.958 156.828 169.2H107.772C102.8 186.958 86.5434 200 67.275 200C48.0066 200 31.7981 186.958 26.7778 169.2H25.2C8.32219 169.2 -5.4 155.388 -5.4 138.4V115.3H-24.525C-30.8841 115.3 -36 110.151 -36 103.75C-36 97.3494 -30.8841 92.2 -24.525 92.2H29.025C35.3841 92.2 40.5 87.0506 40.5 80.65C40.5 74.2494 35.3841 69.1 29.025 69.1H-24.525C-30.8841 69.1 -36 63.9506 -36 57.55C-36 51.1494 -30.8841 46 -24.525 46H59.625C65.9841 46 71.1 40.8506 71.1 34.45C71.1 28.0494 65.9841 22.9 59.625 22.9H-24.525C-30.8841 22.9 -36 17.7506 -36 11.35C-36 4.94938 -30.8841 -0.200001 -24.525 -0.200001H-5.4ZM239.4 92.2V67.8006L217.741 46H193.5V92.2H239.4ZM86.4 157.65C86.4 147.014 77.8416 138.4 67.275 138.4C56.7084 138.4 48.15 147.014 48.15 157.65C48.15 168.286 56.7084 176.9 67.275 176.9C77.8416 176.9 86.4 168.286 86.4 157.65ZM197.325 176.9C207.892 176.9 216.45 168.286 216.45 157.65C216.45 147.014 207.892 138.4 197.325 138.4C186.758 138.4 178.2 147.014 178.2 157.65C178.2 168.286 186.758 176.9 197.325 176.9Z" fill="url(#paint0_linear_332_161)" fill-opacity="0.2"/>
<path d="M25.2002 -30H162.9C179.22 -29.9998 192.5 -16.642 192.5 -0.200195V16.2002H217.741C225.604 16.2003 233.142 19.3193 238.69 24.9043L260.35 46.7051C265.899 52.2904 269 59.8804 269 67.8008V138.4C269 154.842 255.719 168.2 239.4 168.2H237.063L236.859 168.931C232.004 186.271 216.13 199 197.325 199C178.522 199 162.693 186.272 157.79 168.928L157.584 168.2H107.014L106.81 168.931C101.954 186.271 86.0804 199 67.2754 199C48.4719 199 32.6436 186.272 27.7402 168.928L27.5342 168.2H25.2002C8.88093 168.2 -4.40018 154.842 -4.40039 138.4V114.3H-24.5254C-30.3259 114.3 -35 109.604 -35 103.75C-35 97.8956 -30.3259 93.2004 -24.5254 93.2002H29.0254C35.9426 93.2 41.4998 87.5968 41.5 80.6504C41.5 73.7038 35.9427 68.0998 29.0254 68.0996H-24.5254C-30.3259 68.0994 -35 63.4042 -35 57.5498C-34.9999 51.6955 -30.3258 47.0002 -24.5254 47H59.625C66.5424 47 72.0995 41.3969 72.0996 34.4502C72.0996 27.5034 66.5425 21.9004 59.625 21.9004H-24.5254C-30.3259 21.9002 -35 17.204 -35 11.3496C-34.9998 5.49543 -30.3257 0.800016 -24.5254 0.799805H-4.40039V-0.200195C-4.40029 -16.6421 8.88086 -30 25.2002 -30ZM67.2754 137.4C56.1504 137.4 47.1504 146.469 47.1504 157.65C47.1506 168.832 56.1505 177.9 67.2754 177.9C78.4001 177.9 87.4002 168.832 87.4004 157.65C87.4004 146.469 78.4002 137.401 67.2754 137.4ZM197.325 137.4C186.2 137.4 177.2 146.469 177.2 157.65C177.2 168.832 186.2 177.9 197.325 177.9C208.45 177.9 217.45 168.832 217.45 157.65C217.45 146.469 208.45 137.4 197.325 137.4ZM240.4 67.3887L240.109 67.0957L218.45 45.2949L218.157 45H192.5V93.2002H240.4V67.3887Z" stroke="url(#paint1_linear_332_161)" stroke-opacity="0.2" stroke-width="2"/>
<defs>
<linearGradient id="paint0_linear_332_161" x1="270" y1="86" x2="-36" y2="86" gradientUnits="userSpaceOnUse">
<stop stop-color="#22C55E"/>
<stop offset="1" stop-color="#20AD54" stop-opacity="0"/>
</linearGradient>
<linearGradient id="paint1_linear_332_161" x1="270" y1="85" x2="-36" y2="85" gradientUnits="userSpaceOnUse">
<stop stop-color="#22C55E"/>
<stop offset="1" stop-color="#20AD54" stop-opacity="0"/>
</linearGradient>
</defs>
</svg>
