<svg width="64" height="52" viewBox="0 0 64 52" fill="none" xmlns="http://www.w3.org/2000/svg">
<path d="M5.75886 49.4117H54.9079C54.9079 49.4117 61.53 30.2828 45.9165 31.3762C45.9165 31.3762 44.6103 18.253 31.0927 18.253C17.5752 18.253 15.6547 32.5304 15.6547 32.5304C15.6547 32.5304 -0.55242 27.9135 5.75886 49.4117Z" fill="#FEFEFE"/>
<path d="M54.9073 49.4116H21.501C37.1226 48.9415 31.5985 37.8971 31.5985 37.8971C48.285 34.6562 39.5693 20.5976 39.5693 20.5976C45.2196 24.3702 45.9165 31.3762 45.9165 31.3762C61.5293 30.2828 54.9073 49.4116 54.9073 49.4116Z" fill="#F0F0F0"/>
<path d="M41.1706 25.044L39.7978 25.9634C39.7675 25.9188 39.5432 25.5991 39.1201 25.1537C38.8719 24.8913 38.5538 24.5843 38.1656 24.2677C38.1465 24.2518 38.1274 24.2359 38.1083 24.22C37.4943 23.7237 36.71 23.2036 35.7524 22.7741C35.0079 22.4416 34.1584 22.1633 33.2008 21.9947C33.1849 21.9931 33.1674 21.9899 33.1467 21.9867C32.5549 21.8849 31.9234 21.8261 31.2473 21.8229C31.2203 21.8213 31.1932 21.8213 31.1693 21.8213C30.7526 21.8213 30.3549 21.8356 29.9747 21.8626C29.3797 21.9024 28.8261 21.974 28.3107 22.0694C28.1596 22.0965 28.01 22.1267 27.8653 22.1601C27.6203 22.2126 27.3833 22.273 27.1542 22.3367C26.6054 22.4925 26.1059 22.6723 25.6557 22.8711C25.2389 23.054 24.8635 23.2497 24.5262 23.4517C24.4721 23.4835 24.4196 23.5153 24.3687 23.5471C24.049 23.7476 23.7642 23.9528 23.5129 24.1516C23.2584 24.3552 23.0404 24.554 22.8527 24.7401C22.8098 24.7815 22.7684 24.8229 22.7302 24.8642C22.1719 25.4432 21.9364 25.8759 21.9301 25.8902L20.4697 25.1171C20.5031 25.0471 20.834 24.4427 21.5769 23.6776C21.7646 23.4851 21.9778 23.2815 22.2212 23.0747C22.5282 22.8107 22.8814 22.5387 23.2854 22.2746C23.4445 22.1696 23.6099 22.0662 23.7849 21.9644C23.9695 21.8563 24.1635 21.7497 24.3656 21.6479C25.1339 21.255 26.0359 20.9035 27.0842 20.6426C27.1542 20.6251 27.2258 20.6076 27.3006 20.5917C27.4835 20.5488 27.6712 20.5074 27.8621 20.4708C28.36 20.3738 28.8866 20.2974 29.4465 20.2465C29.7297 20.2195 30.0256 20.2004 30.3262 20.1877C30.4074 20.1845 30.4885 20.1813 30.5728 20.1781C30.7669 20.1718 30.9641 20.1686 31.1693 20.1686C31.2393 20.1686 31.3125 20.1686 31.3825 20.1702C31.6259 20.175 31.8629 20.1845 32.0936 20.2004C32.2527 20.2115 32.4102 20.2243 32.5645 20.2402C32.5931 20.2418 32.6233 20.2449 32.652 20.2481C35.2942 20.5376 37.2986 21.5636 38.7001 22.5943C38.9149 22.7534 39.1169 22.9109 39.303 23.0684C39.6785 23.3801 39.9966 23.6839 40.2575 23.9544C40.8286 24.5461 41.1308 24.9851 41.1706 25.044Z" fill="#003232"/>
<path d="M13.8173 34.4805C13.3983 34.2979 12.9281 34.2889 12.4763 34.3014C12.0654 34.3129 11.6532 34.3635 11.2507 34.4471C10.4289 34.618 9.62862 34.9457 8.92327 35.4007C7.48806 36.3268 6.4585 37.7727 6.03297 39.4261C5.79467 40.3525 5.75792 41.3107 5.9073 42.2539C5.94086 42.4663 6.20223 42.5865 6.3944 42.5351C6.61997 42.4747 6.70937 42.2609 6.67565 42.0481C6.44657 40.6015 6.78971 39.0845 7.57014 37.8516C8.35058 36.6185 9.5984 35.726 10.9977 35.3282C11.3898 35.2167 11.7908 35.1407 12.1974 35.1111C12.4069 35.0958 12.6171 35.091 12.8271 35.0971C13.014 35.1025 13.2442 35.0928 13.4196 35.1693C13.6166 35.255 13.8467 35.2248 13.9629 35.0237C14.061 34.8539 14.0154 34.5669 13.8173 34.4805Z" fill="#F0F0F0"/>
<path d="M7.22719 47.1148C6.95389 46.2396 6.80532 45.3382 6.78877 44.4213C6.78495 44.2067 6.60551 44.0245 6.38885 44.0257C6.17553 44.027 5.9894 44.2101 5.99322 44.4256C6.01088 45.4061 6.16646 46.3845 6.45884 47.3206C6.52279 47.5255 6.73246 47.659 6.94594 47.6018C7.14734 47.5478 7.29146 47.3205 7.22719 47.1148Z" fill="#F0F0F0"/>
<path d="M19.7572 27.1582C18.359 28.7079 17.4358 30.665 17.1671 32.7375C17.1396 32.9503 17.2253 33.1635 17.4518 33.2226C17.6395 33.2716 17.9092 33.1522 17.937 32.9379C18.1874 31.0057 19.0086 29.1736 20.3156 27.7248C20.6577 27.3458 20.1005 26.7778 19.7572 27.1582Z" fill="#F0F0F0"/>
<path d="M33.2673 36.4469H32.1649V40.4049C32.1649 40.9504 31.7227 41.3926 31.1772 41.3926H30.3589C29.8134 41.3926 29.3712 40.9504 29.3712 40.4049V36.4469H28.27C27.8361 36.4469 27.5741 35.9668 27.8087 35.6019L30.3067 31.7171C30.5226 31.3813 31.0133 31.3813 31.2292 31.7169L33.7283 35.6018C33.9635 35.9667 33.7013 36.4469 33.2673 36.4469Z" fill="#8BBB75"/>
<path d="M41.1504 44.7109H20.4883V40.0716C20.4883 39.7117 20.78 39.4202 21.1397 39.4202H21.7456C22.1055 39.4202 22.3971 39.7119 22.3971 40.0716V42.8021H39.2411V40.0716C39.2411 39.7117 39.5328 39.4202 39.8925 39.4202H40.4985C40.8583 39.4202 41.1499 39.7119 41.1499 40.0716V44.7109H41.1504Z" fill="#8BBB75"/>
<path d="M33.2673 36.7813H32.1649V40.7393C32.1649 41.2847 31.7227 41.7269 31.1772 41.7269H30.3589C29.8134 41.7269 29.3712 41.2847 29.3712 40.7393V36.7813H28.27C27.8361 36.7813 27.5741 36.3012 27.8087 35.9363L30.3067 32.0515C30.5226 31.7157 31.0133 31.7157 31.2292 32.0513L33.7283 35.9362C33.9635 36.3012 33.7013 36.7813 33.2673 36.7813Z" fill="#9AD28A"/>
<path d="M41.1504 45.0452H20.4883V40.4059C20.4883 40.0461 20.78 39.7545 21.1397 39.7545H21.7456C22.1055 39.7545 22.3971 40.0462 22.3971 40.4059V43.1364H39.2411V40.4059C39.2411 40.0461 39.5328 39.7545 39.8925 39.7545H40.4985C40.8583 39.7545 41.1499 40.0462 41.1499 40.4059V45.0452H41.1504Z" fill="#9AD28A"/>
<path d="M28.7273 6.8755L20.9404 15.0897C22.3292 14.8638 23.7593 14.8845 25.1369 15.1485C25.8114 15.2758 26.5066 15.4794 26.9854 15.9677C27.6233 16.6183 27.7347 17.5997 27.7872 18.5096C27.8253 19.1633 27.8508 19.8171 27.8619 20.4708C27.8667 20.7063 27.8683 20.9417 27.8683 21.1771L27.9637 21.1739C28.7591 21.1469 29.5561 21.1151 30.3499 21.0864C31.4778 21.0467 32.6216 21.0085 33.6953 21.333C34.513 21.5811 35.2877 22.079 35.7522 22.7741C36.7099 23.2036 37.4941 23.7237 38.1082 24.22C38.1273 24.2359 38.1464 24.2518 38.1654 24.2677L39.3029 23.0684L42.381 19.8203L28.7273 6.8755ZM28.3773 11.4852C29.378 10.4306 31.0356 10.3861 32.0871 11.3818C33.1418 12.3824 33.1863 14.0398 32.1857 15.0944C31.1883 16.1458 29.5307 16.1904 28.476 15.1899C27.4245 14.1941 27.3799 12.5367 28.3773 11.4852Z" fill="#7AEC93"/>
<path d="M29.3847 6.18354L28.5766 5.41685L17.6543 16.9348L23.2857 22.2746L24.5265 23.4517C24.8637 23.2497 25.2392 23.054 25.6559 22.8711L24.3658 21.6479L19.2864 16.833L20.9409 15.0896L28.7277 6.87548L42.3815 19.8202L39.3033 23.0684L38.1659 24.2677C38.554 24.5843 38.8722 24.8913 39.1203 25.1537L40.2578 23.9544L43.985 20.0238L29.3847 6.18354Z" fill="#F9F9F9"/>
<path d="M35.7523 22.7742C35.0079 22.4417 34.1584 22.1633 33.2007 21.9947C33.1848 21.9931 33.1673 21.99 33.1466 21.9868C32.5549 21.885 31.9233 21.8261 31.2472 21.8229C31.2202 21.8214 31.1932 21.8214 31.1693 21.8214C30.7525 21.8214 30.3548 21.8357 29.9746 21.8627C29.3797 21.9025 28.8261 21.9741 28.3107 22.0695C28.1595 22.0965 28.01 22.1268 27.8652 22.1602C27.87 21.8325 27.8716 21.5048 27.8684 21.1771L27.9639 21.174C28.7593 21.1469 29.5562 21.1151 30.35 21.0865C31.4779 21.0467 32.6217 21.0085 33.6955 21.333C34.5131 21.5812 35.2878 22.079 35.7523 22.7742Z" fill="#9AD28A"/>
<path d="M27.8684 21.1771C27.8716 21.5048 27.87 21.8325 27.8652 22.1602C27.6203 22.2127 27.3832 22.2731 27.1542 22.3367C26.6053 22.4926 26.1058 22.6724 25.6556 22.8712L24.3655 21.648L19.2861 16.8331L20.9405 15.0897C22.3293 14.8638 23.7594 14.8845 25.137 15.1485C25.8115 15.2758 26.5067 15.4794 26.9855 15.9677C27.6234 16.6183 27.7348 17.5997 27.7873 18.5096C27.8255 19.1634 27.8509 19.8171 27.8621 20.4709C27.8668 20.7063 27.8684 20.9417 27.8684 21.1771Z" fill="#79AE6E"/>
<path d="M32.087 11.3827C33.1419 12.3827 33.1861 14.0403 32.186 15.0951C31.1892 16.1464 29.5314 16.1906 28.4766 15.1905C27.4252 14.1938 27.381 12.5362 28.3778 11.4849C29.3779 10.43 31.0357 10.3859 32.087 11.3827Z" fill="#00B731"/>
<path d="M48.2488 26.0611L48.9296 26.7435L48.3744 27.2987L47.692 26.6179L47.0127 27.2987L46.4559 26.7435L47.1368 26.0611L46.4512 25.3756L47.0064 24.8204L47.692 25.506L48.3744 24.8252L48.9296 25.3819L48.2488 26.0611Z" fill="#FEFEFE"/>
<path d="M56.9505 28.0657L60.6741 31.1096L57.6298 34.8331L53.9062 31.7892L56.9505 28.0657ZM60.3057 31.1466L56.9876 28.4344L54.275 31.7522L57.5931 34.4644L60.3057 31.1466ZM59.0257 31.2753L57.116 29.7142L55.5548 31.6235L57.4645 33.1846L59.0257 31.2753Z" fill="#FEFEFE"/>
<path d="M57.0816 29.3437L55.1885 31.6582L57.5032 33.5511L59.3963 31.2366L57.0816 29.3437Z" fill="#FEFEFE"/>
<path d="M61.4135 21.8195C59.9847 21.8195 58.8242 20.6591 58.8242 19.2328C58.8242 17.8064 59.9847 16.6437 61.4135 16.6437C62.84 16.6437 64.0005 17.8064 64.0005 19.2328C64.0005 20.6591 62.84 21.8195 61.4135 21.8195ZM59.7914 19.2328C59.7914 20.1272 60.5192 20.8525 61.4137 20.8525C62.3058 20.8525 63.0336 20.1274 63.0336 19.2328C63.0336 18.3383 62.3058 17.6106 61.4137 17.6106C60.519 17.6106 59.7914 18.3383 59.7914 19.2328Z" fill="#92D669"/>
<path d="M52.6541 23.6971C51.8146 23.6971 51.1328 23.0154 51.1328 22.1773C51.1328 21.3393 51.8146 20.6561 52.6541 20.6561C53.4921 20.6561 54.1739 21.3393 54.1739 22.1773C54.1739 23.0154 53.4921 23.6971 52.6541 23.6971ZM51.7009 22.1773C51.7009 22.7028 52.1285 23.1289 52.6541 23.1289C53.1782 23.1289 53.6058 22.7028 53.6058 22.1773C53.6058 21.6517 53.1782 21.2241 52.6541 21.2241C52.1285 21.2243 51.7009 21.6519 51.7009 22.1773Z" fill="#92D669"/>
<path d="M55.996 23.4769L57.7393 24.6805L58.943 22.9374L57.1997 21.7338L55.996 23.4769Z" fill="#D0F4E6"/>
<path d="M51.7862 15.5254C52.4997 15.5254 53.0782 14.947 53.0782 14.2335C53.0782 13.52 52.4997 12.9416 51.7862 12.9416C51.0726 12.9416 50.4941 13.52 50.4941 14.2335C50.4941 14.947 51.0726 15.5254 51.7862 15.5254Z" fill="#D0F4E6"/>
<path d="M8.71265 8.79744L7.402 10.1081L8.70215 11.4104L7.64046 12.472L6.34031 11.1697L5.03793 12.4719L3.97656 11.4102L5.27862 10.1081L3.97656 8.8081L5.03793 7.74649L6.34031 9.04653L7.65096 7.73599L8.71265 8.79744ZM5.03809 8.09978L4.33019 8.80778L5.63225 10.1078L4.33019 11.4101L5.03809 12.1183L6.34047 10.816L7.64062 12.1183L8.34884 11.4101L7.04869 10.1078L8.35933 8.79744L7.65112 8.08928L6.34047 9.39982L5.03809 8.09978Z" fill="#97E289"/>
<path d="M15.4914 27.7049L11.9398 30.6082L9.03613 27.0566L12.5877 24.1533L15.4914 27.7049ZM11.9749 30.2567L15.1398 27.6696L12.5526 24.5052L9.3877 27.0922L11.9749 30.2567ZM14.2706 27.5823L12.0624 29.3875L10.2571 27.1792L12.4652 25.374L14.2706 27.5823ZM12.0976 29.0358L13.9192 27.5468L12.4301 25.7257L10.6085 27.2147L12.0976 29.0358Z" fill="#FEFEFE"/>
<path d="M9.88574 11.1832C9.88574 10.0486 10.8089 9.1235 11.9437 9.1235C13.0804 9.1235 14.0036 10.0485 14.0036 11.1832C14.0036 12.3179 13.0805 13.2411 11.9437 13.2411C10.809 13.2411 9.88574 12.318 9.88574 11.1832ZM11.9437 9.8929C11.2341 9.8929 10.655 10.4717 10.655 11.1834C10.655 11.8949 11.2339 12.472 11.9437 12.472C12.6553 12.472 13.2343 11.8951 13.2343 11.1834C13.2343 10.4717 12.6553 9.8929 11.9437 9.8929Z" fill="#00B731"/>
<path d="M0 21.1169C0 20.3176 0.650313 19.6659 1.44968 19.6659C2.25048 19.6659 2.9008 20.3176 2.9008 21.1169C2.9008 21.9162 2.25048 22.5665 1.44968 22.5665C0.650313 22.5666 0 21.9162 0 21.1169ZM1.44968 20.2079C0.949698 20.2079 0.54198 20.6157 0.54198 21.1169C0.54198 21.6181 0.949858 22.0245 1.44968 22.0245C1.95094 22.0245 2.35882 21.6181 2.35882 21.1169C2.35882 20.6157 1.95094 20.2079 1.44968 20.2079Z" fill="#79AE6E"/>
<path d="M7.62566 15.0108L5.96289 16.1588L7.111 17.8214L8.77377 16.6734L7.62566 15.0108Z" fill="#97E289"/>
<path d="M5.17882 28.6797C5.53753 28.6797 5.82833 28.3889 5.82833 28.0302C5.82833 27.6715 5.53753 27.3808 5.17882 27.3808C4.8201 27.3808 4.5293 27.6715 4.5293 28.0302C4.5293 28.3889 4.8201 28.6797 5.17882 28.6797Z" fill="#97E289"/>
<path d="M8.4817 23.0486C8.98828 23.0486 9.39895 22.638 9.39895 22.1314C9.39895 21.6249 8.98828 21.2142 8.4817 21.2142C7.97512 21.2142 7.56445 21.6249 7.56445 22.1314C7.56445 22.638 7.97512 23.0486 8.4817 23.0486Z" fill="#00B731"/>
<path d="M55.4826 12.2061C55.9703 12.2061 56.3657 11.8107 56.3657 11.3231C56.3657 10.8354 55.9703 10.4401 55.4826 10.4401C54.995 10.4401 54.5996 10.8354 54.5996 11.3231C54.5996 11.8107 54.995 12.2061 55.4826 12.2061Z" fill="#00B731"/>
<path d="M44.7494 14.7187C45.215 14.7187 45.5925 14.3412 45.5925 13.8756C45.5925 13.41 45.215 13.0326 44.7494 13.0326C44.2837 13.0326 43.9062 13.41 43.9062 13.8756C43.9062 14.3412 44.2837 14.7187 44.7494 14.7187Z" fill="#9AD28A"/>
<path d="M40.949 5.49954L38.9129 14.1392C38.6606 13.7313 38.4129 13.3245 38.1606 12.9166C37.9322 12.5342 37.6942 12.1496 37.368 11.8439C36.5548 11.0699 35.3009 10.9187 34.2044 11.1782C33.1125 11.4386 32.1429 12.0464 31.1897 12.6481C30.5172 13.072 29.8437 13.5007 29.1713 13.9248L29.0897 13.9752C28.6433 13.208 28.1688 12.454 27.6767 11.7109C27.1739 10.9502 26.5839 10.1592 25.705 9.91727C25.0456 9.73705 24.3426 9.90995 23.6958 10.1408C22.3716 10.6052 21.1259 11.3073 20.0391 12.2011L22.6352 1.18472L40.949 5.49954ZM29.76 6.54683C30.0935 5.1321 29.2211 3.72182 27.8061 3.38842C26.3958 3.05613 24.9856 3.92844 24.6522 5.34333C24.3199 6.75345 25.1923 8.16357 26.6025 8.49585C28.0175 8.82926 29.4277 7.95694 29.76 6.54683Z" fill="#CFFFEB"/>
<path d="M38.9122 14.1392L40.9482 5.49954L22.6346 1.18456L20.0385 12.201L19.4873 14.54L30.6697 17.1748L37.8008 18.855L38.9122 14.1392ZM42.4358 4.86948L38.7949 20.3189L18.1279 15.4494L21.7688 0L42.4358 4.86948Z" fill="#F9F9F9"/>
<path d="M38.9121 14.1392L37.8008 18.8552L30.6696 17.175L30.7174 16.9721C30.2099 15.9565 29.6698 14.9533 29.0889 13.975L29.1705 13.9246C29.8429 13.5007 30.5164 13.072 31.1889 12.6479C32.1421 12.0462 33.1118 11.4384 34.2036 11.178C35.3001 10.9187 36.5539 11.0697 37.3672 11.8437C37.6933 12.1496 37.9312 12.5342 38.1598 12.9165C38.4121 13.3246 38.6598 13.7313 38.9121 14.1392Z" fill="#9AD28A"/>
<path d="M30.7176 16.9722L30.6699 17.175L19.4873 14.5402L20.0385 12.2011C21.1253 11.3073 22.3711 10.6052 23.6952 10.1408C24.3421 9.9098 25.0449 9.73705 25.7044 9.91727C26.5833 10.1592 27.1735 10.9504 27.6762 11.7109C28.1682 12.4541 28.6426 13.208 29.0891 13.9752C29.6701 14.9533 30.2102 15.9567 30.7176 16.9722Z" fill="#79AE6E"/>
<path d="M27.8056 3.38856C29.2204 3.72196 30.0929 5.13208 29.7595 6.54697C29.4272 7.95708 28.017 8.8294 26.602 8.496C25.1917 8.16371 24.3193 6.75359 24.6517 5.34348C24.9851 3.92859 26.3955 3.05627 27.8056 3.38856Z" fill="#7AEC93"/>
<path d="M5.80664 49.4112H54.8824C54.8824 49.4112 49.2558 51.32 29.1759 51.32C9.09599 51.32 5.80664 49.4112 5.80664 49.4112Z" fill="#E8E8E8"/>
</svg>
